%TF.GenerationSoftware,KiCad,Pcbnew,(6.0.7)*%
%TF.CreationDate,2022-08-22T17:31:43+01:00*%
%TF.ProjectId,ortho40,6f727468-6f34-4302-9e6b-696361645f70,rev?*%
%TF.SameCoordinates,Original*%
%TF.FileFunction,Copper,L1,Top*%
%TF.FilePolarity,Positive*%
%FSLAX46Y46*%
G04 Gerber Fmt 4.6, Leading zero omitted, Abs format (unit mm)*
G04 Created by KiCad (PCBNEW (6.0.7)) date 2022-08-22 17:31:43*
%MOMM*%
%LPD*%
G01*
G04 APERTURE LIST*
G04 Aperture macros list*
%AMHorizOval*
0 Thick line with rounded ends*
0 $1 width*
0 $2 $3 position (X,Y) of the first rounded end (center of the circle)*
0 $4 $5 position (X,Y) of the second rounded end (center of the circle)*
0 Add line between two ends*
20,1,$1,$2,$3,$4,$5,0*
0 Add two circle primitives to create the rounded ends*
1,1,$1,$2,$3*
1,1,$1,$4,$5*%
G04 Aperture macros list end*
%TA.AperFunction,ComponentPad*%
%ADD10C,2.250000*%
%TD*%
%TA.AperFunction,ComponentPad*%
%ADD11HorizOval,2.250000X0.655001X0.730000X-0.655001X-0.730000X0*%
%TD*%
%TA.AperFunction,ComponentPad*%
%ADD12HorizOval,2.250000X0.020000X0.290000X-0.020000X-0.290000X0*%
%TD*%
%TA.AperFunction,ComponentPad*%
%ADD13R,1.700000X1.700000*%
%TD*%
%TA.AperFunction,ComponentPad*%
%ADD14O,1.700000X1.700000*%
%TD*%
%TA.AperFunction,ComponentPad*%
%ADD15C,0.600000*%
%TD*%
%TA.AperFunction,ComponentPad*%
%ADD16C,4.000000*%
%TD*%
%TA.AperFunction,ComponentPad*%
%ADD17C,1.650000*%
%TD*%
%TA.AperFunction,ComponentPad*%
%ADD18O,1.000000X2.100000*%
%TD*%
%TA.AperFunction,ComponentPad*%
%ADD19O,1.000000X1.600000*%
%TD*%
%TA.AperFunction,ViaPad*%
%ADD20C,0.600000*%
%TD*%
%TA.AperFunction,Conductor*%
%ADD21C,0.381000*%
%TD*%
%TA.AperFunction,Conductor*%
%ADD22C,0.200000*%
%TD*%
%TA.AperFunction,Conductor*%
%ADD23C,0.600000*%
%TD*%
%TA.AperFunction,Conductor*%
%ADD24C,0.635000*%
%TD*%
G04 APERTURE END LIST*
D10*
%TO.P,MX27,1,COL*%
%TO.N,c2*%
X87500000Y-66000000D03*
D11*
X86845001Y-66730000D03*
D10*
%TO.P,MX27,2,ROW*%
%TO.N,Net-(D26-Pad2)*%
X92540000Y-64920000D03*
D12*
X92520000Y-65210000D03*
%TD*%
D11*
%TO.P,MX41,1,COL*%
%TO.N,c4*%
X126845001Y-86730000D03*
D10*
X127500000Y-86000000D03*
D12*
%TO.P,MX41,2,ROW*%
%TO.N,Net-(D41-Pad2)*%
X132520000Y-85210000D03*
D10*
X132540000Y-84920000D03*
%TD*%
D11*
%TO.P,MX24,1,COL*%
%TO.N,c11*%
X306845001Y-46730000D03*
D10*
X307500000Y-46000000D03*
D12*
%TO.P,MX24,2,ROW*%
%TO.N,Net-(D24-Pad2)*%
X312520000Y-45210000D03*
D10*
X312540000Y-44920000D03*
%TD*%
%TO.P,MX48,1,COL*%
%TO.N,c11*%
X307500000Y-86000000D03*
D11*
X306845001Y-86730000D03*
D12*
%TO.P,MX48,2,ROW*%
%TO.N,Net-(D48-Pad2)*%
X312520000Y-85210000D03*
D10*
X312540000Y-84920000D03*
%TD*%
%TO.P,MX36,1,COL*%
%TO.N,c11*%
X307500000Y-66000000D03*
D11*
X306845001Y-66730000D03*
D12*
%TO.P,MX36,2,ROW*%
%TO.N,Net-(D36-Pad2)*%
X312520000Y-65210000D03*
D10*
X312540000Y-64920000D03*
%TD*%
D11*
%TO.P,MX11,1,COL*%
%TO.N,c10*%
X286845001Y-26730000D03*
D10*
X287500000Y-26000000D03*
D12*
%TO.P,MX11,2,ROW*%
%TO.N,Net-(D8-Pad2)*%
X292520000Y-25210000D03*
D10*
X292540000Y-24920000D03*
%TD*%
D11*
%TO.P,MX7,1,COL*%
%TO.N,c6*%
X206845001Y-26730000D03*
D10*
X207500000Y-26000000D03*
%TO.P,MX7,2,ROW*%
%TO.N,Net-(D6-Pad2)*%
X212540000Y-24920000D03*
D12*
X212520000Y-25210000D03*
%TD*%
D11*
%TO.P,MX29,1,COL*%
%TO.N,c4*%
X126845001Y-66730000D03*
D10*
X127500000Y-66000000D03*
D12*
%TO.P,MX29,2,ROW*%
%TO.N,Net-(D29-Pad2)*%
X132520000Y-65210000D03*
D10*
X132540000Y-64920000D03*
%TD*%
%TO.P,MX14,1,COL*%
%TO.N,c1*%
X67500000Y-46000000D03*
D11*
X66845001Y-46730000D03*
D10*
%TO.P,MX14,2,ROW*%
%TO.N,Net-(D15-Pad2)*%
X72540000Y-44920000D03*
D12*
X72520000Y-45210000D03*
%TD*%
D10*
%TO.P,MX43,1,COL*%
%TO.N,c6*%
X207500000Y-86000000D03*
D11*
X206845001Y-86730000D03*
D12*
%TO.P,MX43,2,ROW*%
%TO.N,Net-(D42-Pad2)*%
X212520000Y-85210000D03*
D10*
X212540000Y-84920000D03*
%TD*%
%TO.P,MX4,1,COL*%
%TO.N,c3*%
X107500000Y-26000000D03*
D11*
X106845001Y-26730000D03*
D10*
%TO.P,MX4,2,ROW*%
%TO.N,Net-(D4-Pad2)*%
X112540000Y-24920000D03*
D12*
X112520000Y-25210000D03*
%TD*%
D10*
%TO.P,MX25,1,COL*%
%TO.N,c0*%
X47500000Y-66000000D03*
D11*
X46845001Y-66730000D03*
D12*
%TO.P,MX25,2,ROW*%
%TO.N,Net-(D25-Pad2)*%
X52520000Y-65210000D03*
D10*
X52540000Y-64920000D03*
%TD*%
D11*
%TO.P,MX45,1,COL*%
%TO.N,c8*%
X246845001Y-86730000D03*
D10*
X247500000Y-86000000D03*
D12*
%TO.P,MX45,2,ROW*%
%TO.N,Net-(D43-Pad2)*%
X252520000Y-85210000D03*
D10*
X252540000Y-84920000D03*
%TD*%
%TO.P,MX23,1,COL*%
%TO.N,c10*%
X287500000Y-46000000D03*
D11*
X286845001Y-46730000D03*
D10*
%TO.P,MX23,2,ROW*%
%TO.N,Net-(D20-Pad2)*%
X292540000Y-44920000D03*
D12*
X292520000Y-45210000D03*
%TD*%
D10*
%TO.P,MX32,1,COL*%
%TO.N,c7*%
X227500000Y-66000000D03*
D11*
X226845001Y-66730000D03*
D10*
%TO.P,MX32,2,ROW*%
%TO.N,Net-(D34-Pad2)*%
X232540000Y-64920000D03*
D12*
X232520000Y-65210000D03*
%TD*%
D11*
%TO.P,MX3,1,COL*%
%TO.N,c2*%
X86845001Y-26730000D03*
D10*
X87500000Y-26000000D03*
D12*
%TO.P,MX3,2,ROW*%
%TO.N,Net-(D2-Pad2)*%
X92520000Y-25210000D03*
D10*
X92540000Y-24920000D03*
%TD*%
D11*
%TO.P,MX22,1,COL*%
%TO.N,c9*%
X266845001Y-46730000D03*
D10*
X267500000Y-46000000D03*
D12*
%TO.P,MX22,2,ROW*%
%TO.N,Net-(D23-Pad2)*%
X272520000Y-45210000D03*
D10*
X272540000Y-44920000D03*
%TD*%
D11*
%TO.P,MX21,1,COL*%
%TO.N,c8*%
X246845001Y-46730000D03*
D10*
X247500000Y-46000000D03*
%TO.P,MX21,2,ROW*%
%TO.N,Net-(D19-Pad2)*%
X252540000Y-44920000D03*
D12*
X252520000Y-45210000D03*
%TD*%
D10*
%TO.P,MX8,1,COL*%
%TO.N,c7*%
X227500000Y-26000000D03*
D11*
X226845001Y-26730000D03*
D10*
%TO.P,MX8,2,ROW*%
%TO.N,Net-(D10-Pad2)*%
X232540000Y-24920000D03*
D12*
X232520000Y-25210000D03*
%TD*%
D11*
%TO.P,MX44,1,COL*%
%TO.N,c7*%
X226845001Y-86730000D03*
D10*
X227500000Y-86000000D03*
%TO.P,MX44,2,ROW*%
%TO.N,Net-(D46-Pad2)*%
X232540000Y-84920000D03*
D12*
X232520000Y-85210000D03*
%TD*%
D10*
%TO.P,MX40,1,COL*%
%TO.N,c3*%
X107500000Y-86000000D03*
D11*
X106845001Y-86730000D03*
D10*
%TO.P,MX40,2,ROW*%
%TO.N,Net-(D40-Pad2)*%
X112540000Y-84920000D03*
D12*
X112520000Y-85210000D03*
%TD*%
D10*
%TO.P,MX39,1,COL*%
%TO.N,c2*%
X87500000Y-86000000D03*
D11*
X86845001Y-86730000D03*
D12*
%TO.P,MX39,2,ROW*%
%TO.N,Net-(D38-Pad2)*%
X92520000Y-85210000D03*
D10*
X92540000Y-84920000D03*
%TD*%
D13*
%TO.P,SW1,1,1*%
%TO.N,GND*%
X192000000Y-25000000D03*
D14*
%TO.P,SW1,2,2*%
%TO.N,/~{BOOTSEL}*%
X189460000Y-25000000D03*
%TD*%
D11*
%TO.P,MX38,1,COL*%
%TO.N,c1*%
X66845001Y-86730000D03*
D10*
X67500000Y-86000000D03*
%TO.P,MX38,2,ROW*%
%TO.N,Net-(D39-Pad2)*%
X72540000Y-84920000D03*
D12*
X72520000Y-85210000D03*
%TD*%
D11*
%TO.P,MX18,1,COL*%
%TO.N,c5*%
X146845001Y-46730000D03*
D10*
X147500000Y-46000000D03*
D12*
%TO.P,MX18,2,ROW*%
%TO.N,Net-(D21-Pad2)*%
X152520000Y-45210000D03*
D10*
X152540000Y-44920000D03*
%TD*%
%TO.P,MX28,1,COL*%
%TO.N,c3*%
X107500000Y-66000000D03*
D11*
X106845001Y-66730000D03*
D10*
%TO.P,MX28,2,ROW*%
%TO.N,Net-(D28-Pad2)*%
X112540000Y-64920000D03*
D12*
X112520000Y-65210000D03*
%TD*%
D11*
%TO.P,MX31,1,COL*%
%TO.N,c6*%
X206845001Y-66730000D03*
D10*
X207500000Y-66000000D03*
D12*
%TO.P,MX31,2,ROW*%
%TO.N,Net-(D30-Pad2)*%
X212520000Y-65210000D03*
D10*
X212540000Y-64920000D03*
%TD*%
%TO.P,MX1,1,COL*%
%TO.N,c0*%
X47500000Y-26000000D03*
D11*
X46845001Y-26730000D03*
D10*
%TO.P,MX1,2,ROW*%
%TO.N,Net-(D1-Pad2)*%
X52540000Y-24920000D03*
D12*
X52520000Y-25210000D03*
%TD*%
D11*
%TO.P,MX26,1,COL*%
%TO.N,c1*%
X66845001Y-66730000D03*
D10*
X67500000Y-66000000D03*
D12*
%TO.P,MX26,2,ROW*%
%TO.N,Net-(D27-Pad2)*%
X72520000Y-65210000D03*
D10*
X72540000Y-64920000D03*
%TD*%
%TO.P,MX13,1,COL*%
%TO.N,c0*%
X47500000Y-46000000D03*
D11*
X46845001Y-46730000D03*
D12*
%TO.P,MX13,2,ROW*%
%TO.N,Net-(D13-Pad2)*%
X52520000Y-45210000D03*
D10*
X52540000Y-44920000D03*
%TD*%
%TO.P,MX9,1,COL*%
%TO.N,c8*%
X247500000Y-26000000D03*
D11*
X246845001Y-26730000D03*
D10*
%TO.P,MX9,2,ROW*%
%TO.N,Net-(D7-Pad2)*%
X252540000Y-24920000D03*
D12*
X252520000Y-25210000D03*
%TD*%
D11*
%TO.P,MX46,1,COL*%
%TO.N,c9*%
X266845001Y-86730000D03*
D10*
X267500000Y-86000000D03*
D12*
%TO.P,MX46,2,ROW*%
%TO.N,Net-(D47-Pad2)*%
X272520000Y-85210000D03*
D10*
X272540000Y-84920000D03*
%TD*%
D11*
%TO.P,MX17,1,COL*%
%TO.N,c4*%
X126845001Y-46730000D03*
D10*
X127500000Y-46000000D03*
%TO.P,MX17,2,ROW*%
%TO.N,Net-(D17-Pad2)*%
X132540000Y-44920000D03*
D12*
X132520000Y-45210000D03*
%TD*%
D10*
%TO.P,MX10,1,COL*%
%TO.N,c9*%
X267500000Y-26000000D03*
D11*
X266845001Y-26730000D03*
D12*
%TO.P,MX10,2,ROW*%
%TO.N,Net-(D11-Pad2)*%
X272520000Y-25210000D03*
D10*
X272540000Y-24920000D03*
%TD*%
D11*
%TO.P,MX30,1,COL*%
%TO.N,c5*%
X146845001Y-66730000D03*
D10*
X147500000Y-66000000D03*
D12*
%TO.P,MX30,2,ROW*%
%TO.N,Net-(D33-Pad2)*%
X152520000Y-65210000D03*
D10*
X152540000Y-64920000D03*
%TD*%
D11*
%TO.P,MX6,1,COL*%
%TO.N,c5*%
X146845001Y-26730000D03*
D10*
X147500000Y-26000000D03*
D12*
%TO.P,MX6,2,ROW*%
%TO.N,Net-(D9-Pad2)*%
X152520000Y-25210000D03*
D10*
X152540000Y-24920000D03*
%TD*%
%TO.P,MX35,1,COL*%
%TO.N,c10*%
X287500000Y-66000000D03*
D11*
X286845001Y-66730000D03*
D10*
%TO.P,MX35,2,ROW*%
%TO.N,Net-(D32-Pad2)*%
X292540000Y-64920000D03*
D12*
X292520000Y-65210000D03*
%TD*%
D10*
%TO.P,MX20,1,COL*%
%TO.N,c7*%
X227500000Y-46000000D03*
D11*
X226845001Y-46730000D03*
D12*
%TO.P,MX20,2,ROW*%
%TO.N,Net-(D22-Pad2)*%
X232520000Y-45210000D03*
D10*
X232540000Y-44920000D03*
%TD*%
D11*
%TO.P,MX33,1,COL*%
%TO.N,c8*%
X246845001Y-66730000D03*
D10*
X247500000Y-66000000D03*
D12*
%TO.P,MX33,2,ROW*%
%TO.N,Net-(D31-Pad2)*%
X252520000Y-65210000D03*
D10*
X252540000Y-64920000D03*
%TD*%
%TO.P,MX15,1,COL*%
%TO.N,c2*%
X87500000Y-46000000D03*
D11*
X86845001Y-46730000D03*
D10*
%TO.P,MX15,2,ROW*%
%TO.N,Net-(D14-Pad2)*%
X92540000Y-44920000D03*
D12*
X92520000Y-45210000D03*
%TD*%
D11*
%TO.P,MX37,1,COL*%
%TO.N,c0*%
X46845001Y-86730000D03*
D10*
X47500000Y-86000000D03*
%TO.P,MX37,2,ROW*%
%TO.N,Net-(D37-Pad2)*%
X52540000Y-84920000D03*
D12*
X52520000Y-85210000D03*
%TD*%
D10*
%TO.P,MX34,1,COL*%
%TO.N,c9*%
X267500000Y-66000000D03*
D11*
X266845001Y-66730000D03*
D12*
%TO.P,MX34,2,ROW*%
%TO.N,Net-(D35-Pad2)*%
X272520000Y-65210000D03*
D10*
X272540000Y-64920000D03*
%TD*%
D11*
%TO.P,MX2,1,COL*%
%TO.N,c1*%
X66845001Y-26730000D03*
D10*
X67500000Y-26000000D03*
D12*
%TO.P,MX2,2,ROW*%
%TO.N,Net-(D3-Pad2)*%
X72520000Y-25210000D03*
D10*
X72540000Y-24920000D03*
%TD*%
%TO.P,MX5,1,COL*%
%TO.N,c4*%
X127500000Y-26000000D03*
D11*
X126845001Y-26730000D03*
D12*
%TO.P,MX5,2,ROW*%
%TO.N,Net-(D5-Pad2)*%
X132520000Y-25210000D03*
D10*
X132540000Y-24920000D03*
%TD*%
D11*
%TO.P,MX47,1,COL*%
%TO.N,c10*%
X286845001Y-86730000D03*
D10*
X287500000Y-86000000D03*
D12*
%TO.P,MX47,2,ROW*%
%TO.N,Net-(D44-Pad2)*%
X292520000Y-85210000D03*
D10*
X292540000Y-84920000D03*
%TD*%
D11*
%TO.P,MX19,1,COL*%
%TO.N,c6*%
X206845001Y-46730000D03*
D10*
X207500000Y-46000000D03*
D12*
%TO.P,MX19,2,ROW*%
%TO.N,Net-(D18-Pad2)*%
X212520000Y-45210000D03*
D10*
X212540000Y-44920000D03*
%TD*%
%TO.P,MX16,1,COL*%
%TO.N,c3*%
X107500000Y-46000000D03*
D11*
X106845001Y-46730000D03*
D10*
%TO.P,MX16,2,ROW*%
%TO.N,Net-(D16-Pad2)*%
X112540000Y-44920000D03*
D12*
X112520000Y-45210000D03*
%TD*%
D11*
%TO.P,MX12,1,COL*%
%TO.N,c11*%
X306845001Y-26730000D03*
D10*
X307500000Y-26000000D03*
%TO.P,MX12,2,ROW*%
%TO.N,Net-(D12-Pad2)*%
X312540000Y-24920000D03*
D12*
X312520000Y-25210000D03*
%TD*%
D10*
%TO.P,MX42,1,COL*%
%TO.N,c5*%
X147500000Y-86000000D03*
D11*
X146845001Y-86730000D03*
D12*
%TO.P,MX42,2,ROW*%
%TO.N,Net-(D45-Pad2)*%
X152520000Y-85210000D03*
D10*
X152540000Y-84920000D03*
%TD*%
D15*
%TO.P,U1,57,GND*%
%TO.N,GND*%
X178725000Y-48725000D03*
X181275000Y-48725000D03*
X180000000Y-48725000D03*
X178725000Y-50000000D03*
X181275000Y-51275000D03*
X178725000Y-51275000D03*
X180000000Y-51275000D03*
X181275000Y-50000000D03*
X180000000Y-50000000D03*
%TD*%
D13*
%TO.P,J1,1,Pin_1*%
%TO.N,SWCLK*%
X182050000Y-68050000D03*
D14*
%TO.P,J1,2,Pin_2*%
%TO.N,SWD*%
X179510000Y-68050000D03*
%TO.P,J1,3,Pin_3*%
%TO.N,GND*%
X176970000Y-68050000D03*
%TO.P,J1,4,Pin_4*%
%TO.N,+3V3*%
X174430000Y-68050000D03*
%TO.P,J1,5,Pin_5*%
%TO.N,RESET*%
X171890000Y-68050000D03*
%TD*%
D16*
%TO.P,U5,*%
%TO.N,*%
X195250000Y-80000000D03*
X166750000Y-28000000D03*
X166750000Y-80000000D03*
X195250000Y-28000000D03*
D17*
%TO.P,U5,1,VCC*%
%TO.N,+3V3*%
X190000000Y-80500000D03*
%TO.P,U5,2,GND*%
%TO.N,GND*%
X188000000Y-80500000D03*
%TO.P,U5,3,SCLK*%
%TO.N,LCD_SCK*%
X186000000Y-80500000D03*
%TO.P,U5,4,MOSI*%
%TO.N,LCD_TX*%
X184000000Y-80500000D03*
%TO.P,U5,5,MISO*%
%TO.N,LCD_RX*%
X182000000Y-80500000D03*
%TO.P,U5,6,CS*%
%TO.N,LCD_CS*%
X180000000Y-80500000D03*
%TO.P,U5,7,~{RESET}*%
%TO.N,LCD_RESET*%
X178000000Y-80500000D03*
%TO.P,U5,8,DC*%
%TO.N,LCD_DC*%
X176000000Y-80500000D03*
%TO.P,U5,9,BLK*%
%TO.N,LCD_BACKLT*%
X174000000Y-80500000D03*
%TO.P,U5,10,SDCS*%
%TO.N,LCD_SDSEL*%
X172000000Y-80500000D03*
%TD*%
D18*
%TO.P,J2,S1,SHIELD*%
%TO.N,GND*%
X175680000Y-23130000D03*
X184320000Y-23130000D03*
D19*
X184320000Y-18950000D03*
X175680000Y-18950000D03*
%TD*%
D20*
%TO.N,c0*%
X46190000Y-54810000D03*
%TO.N,c1*%
X66190000Y-54810000D03*
%TO.N,c2*%
X86190000Y-54810000D03*
%TO.N,c3*%
X106190000Y-54810000D03*
%TO.N,c4*%
X126190000Y-54810000D03*
%TO.N,c5*%
X146190000Y-54810000D03*
%TO.N,c11*%
X306190000Y-34810000D03*
%TO.N,c10*%
X286190000Y-34810000D03*
%TO.N,c9*%
X266190000Y-34810000D03*
%TO.N,c8*%
X246190000Y-34810000D03*
%TO.N,c7*%
X226190000Y-34810000D03*
%TO.N,c6*%
X206190000Y-34810000D03*
%TO.N,r1*%
X164000000Y-50000000D03*
%TO.N,r0*%
X167000000Y-36000000D03*
%TO.N,GND*%
X175494710Y-65445510D03*
%TO.N,+3V3*%
X172000000Y-55000000D03*
X174000000Y-59000000D03*
X185000000Y-39000000D03*
X180000000Y-43000000D03*
%TO.N,GND*%
X186000000Y-60690500D03*
X186000000Y-44000000D03*
X178000000Y-36000000D03*
X170519309Y-43964820D03*
X175000000Y-26000000D03*
X175000000Y-41000000D03*
X178000000Y-64950000D03*
X185000000Y-26000000D03*
X182573112Y-41123942D03*
X183519121Y-29581574D03*
X189901780Y-32023070D03*
X189000000Y-53000000D03*
X172000000Y-32000000D03*
X176496018Y-58472206D03*
X170000000Y-55000000D03*
%TO.N,+1V1*%
X180536802Y-43644915D03*
X178496018Y-56472206D03*
X178889817Y-47838993D03*
X179399059Y-52328303D03*
%TO.N,r0*%
X198000000Y-32000000D03*
%TO.N,r1*%
X198000000Y-52000000D03*
%TO.N,r2*%
X198000000Y-72000000D03*
X162000000Y-72000000D03*
%TO.N,r3*%
X198000000Y-92000000D03*
X162000000Y-92000000D03*
%TD*%
D21*
%TO.N,c0*%
X46190000Y-54810000D02*
X46190000Y-67460000D01*
%TO.N,c1*%
X66190000Y-54810000D02*
X66190000Y-67460000D01*
%TO.N,c2*%
X86190000Y-54810000D02*
X86190000Y-67460000D01*
%TO.N,c3*%
X106190000Y-54810000D02*
X106190000Y-67460000D01*
%TO.N,c4*%
X126190000Y-54810000D02*
X126190000Y-67460000D01*
%TO.N,c5*%
X146190000Y-54810000D02*
X146190000Y-67460000D01*
%TO.N,c11*%
X306190000Y-34810000D02*
X306190000Y-47460000D01*
%TO.N,c10*%
X286190000Y-34810000D02*
X286190000Y-47460000D01*
%TO.N,c9*%
X266190000Y-34810000D02*
X266190000Y-27460000D01*
%TO.N,c8*%
X246190000Y-34810000D02*
X246190000Y-47460000D01*
%TO.N,c7*%
X226190000Y-34810000D02*
X226190000Y-27460000D01*
%TO.N,c6*%
X206190000Y-34810000D02*
X206190000Y-47460000D01*
%TO.N,c11*%
X306190000Y-27460000D02*
X306190000Y-34810000D01*
X306190000Y-47460000D02*
X306190000Y-67460000D01*
X306190000Y-87460000D02*
X306190000Y-67460000D01*
%TO.N,c10*%
X286190000Y-67460000D02*
X286190000Y-87460000D01*
X286190000Y-47460000D02*
X286190000Y-67460000D01*
X286190000Y-27460000D02*
X286190000Y-34810000D01*
%TO.N,c9*%
X266190000Y-47460000D02*
X266190000Y-34810000D01*
X266190000Y-67460000D02*
X266190000Y-47460000D01*
X266190000Y-87460000D02*
X266190000Y-67460000D01*
%TO.N,c8*%
X246190000Y-67460000D02*
X246190000Y-87460000D01*
X246190000Y-47460000D02*
X246190000Y-67460000D01*
X246190000Y-27460000D02*
X246190000Y-34810000D01*
%TO.N,c7*%
X226190000Y-47460000D02*
X226190000Y-34810000D01*
X226190000Y-67460000D02*
X226190000Y-47460000D01*
X226190000Y-87460000D02*
X226190000Y-67460000D01*
%TO.N,c6*%
X206190000Y-67460000D02*
X206190000Y-87460000D01*
X206190000Y-47460000D02*
X206190000Y-67460000D01*
X206190000Y-27460000D02*
X206190000Y-34810000D01*
%TO.N,r1*%
X164000000Y-70000000D02*
X164000000Y-50000000D01*
X165000000Y-71000000D02*
X164000000Y-70000000D01*
X187000000Y-71000000D02*
X165000000Y-71000000D01*
X198000000Y-60000000D02*
X187000000Y-71000000D01*
%TO.N,r0*%
X167690500Y-35309500D02*
X167000000Y-36000000D01*
X194690500Y-35309500D02*
X167690500Y-35309500D01*
X198000000Y-32000000D02*
X194690500Y-35309500D01*
%TO.N,+3V3*%
X174000000Y-57000000D02*
X174000000Y-59000000D01*
X172000000Y-55000000D02*
X174000000Y-57000000D01*
D22*
%TO.N,+1V1*%
X178824352Y-56472206D02*
X178496018Y-56472206D01*
X179395412Y-55901146D02*
X178824352Y-56472206D01*
X179395412Y-53604588D02*
X179395412Y-55901146D01*
X179399059Y-53600941D02*
X179395412Y-53604588D01*
D23*
%TO.N,+3V3*%
X182000000Y-40000000D02*
X183000000Y-39000000D01*
X180000000Y-42000000D02*
X182000000Y-40000000D01*
X183000000Y-39000000D02*
X185000000Y-39000000D01*
X180000000Y-43000000D02*
X180000000Y-42000000D01*
D24*
%TO.N,GND*%
X178725000Y-48725000D02*
X180000000Y-48725000D01*
X178725000Y-50000000D02*
X180000000Y-50000000D01*
X180000000Y-50000000D02*
X180000000Y-48725000D01*
X180000000Y-51275000D02*
X178725000Y-51275000D01*
X181275000Y-50000000D02*
X181275000Y-51275000D01*
X181275000Y-48725000D02*
X181275000Y-50000000D01*
X181275000Y-48725000D02*
X180000000Y-48725000D01*
X178725000Y-48725000D02*
X178725000Y-50000000D01*
X178725000Y-51275000D02*
X178725000Y-50000000D01*
X181275000Y-51275000D02*
X180000000Y-51275000D01*
X180000000Y-50000000D02*
X181275000Y-50000000D01*
X180000000Y-51275000D02*
X180000000Y-50000000D01*
D22*
%TO.N,+1V1*%
X179399059Y-52328303D02*
X179399059Y-53600941D01*
D21*
X178889817Y-47838993D02*
X180536802Y-46192008D01*
X180536802Y-46192008D02*
X180536802Y-43644915D01*
%TO.N,r0*%
X198000000Y-32000000D02*
X197000000Y-33000000D01*
%TO.N,r1*%
X198000000Y-60000000D02*
X198000000Y-52000000D01*
%TO.N,r2*%
X162000000Y-72000000D02*
X198000000Y-72000000D01*
%TO.N,r3*%
X162000000Y-92000000D02*
X198000000Y-92000000D01*
%TO.N,c0*%
X46190000Y-47460000D02*
X46190000Y-54810000D01*
X46190000Y-67460000D02*
X46190000Y-87460000D01*
X46190000Y-27460000D02*
X46190000Y-47460000D01*
%TO.N,c1*%
X66190000Y-47460000D02*
X66190000Y-54810000D01*
X66190000Y-47460000D02*
X66190000Y-27460000D01*
X66190000Y-67460000D02*
X66190000Y-87460000D01*
%TO.N,c2*%
X86190000Y-47460000D02*
X86190000Y-54810000D01*
X86190000Y-27460000D02*
X86190000Y-47460000D01*
X86190000Y-67460000D02*
X86190000Y-87460000D01*
%TO.N,c3*%
X106190000Y-27460000D02*
X106190000Y-47460000D01*
X106190000Y-47460000D02*
X106190000Y-54810000D01*
X106190000Y-67460000D02*
X106190000Y-87460000D01*
%TO.N,c4*%
X126190000Y-27460000D02*
X126190000Y-47460000D01*
X126190000Y-47460000D02*
X126190000Y-54810000D01*
X126190000Y-67460000D02*
X126190000Y-87460000D01*
%TO.N,c5*%
X146190000Y-27460000D02*
X146190000Y-47460000D01*
X146190000Y-67460000D02*
X146190000Y-87460000D01*
X146190000Y-47460000D02*
X146190000Y-54810000D01*
%TD*%
M02*
