%TF.GenerationSoftware,KiCad,Pcbnew,(6.0.7)*%
%TF.CreationDate,2022-08-23T18:51:20+01:00*%
%TF.ProjectId,ortho40,6f727468-6f34-4302-9e6b-696361645f70,rev?*%
%TF.SameCoordinates,Original*%
%TF.FileFunction,Soldermask,Top*%
%TF.FilePolarity,Negative*%
%FSLAX46Y46*%
G04 Gerber Fmt 4.6, Leading zero omitted, Abs format (unit mm)*
G04 Created by KiCad (PCBNEW (6.0.7)) date 2022-08-23 18:51:20*
%MOMM*%
%LPD*%
G01*
G04 APERTURE LIST*
%ADD10C,1.650000*%
%ADD11C,4.000000*%
%ADD12C,3.987800*%
%ADD13C,1.750000*%
%ADD14R,1.700000X1.700000*%
%ADD15O,1.700000X1.700000*%
%ADD16O,1.000000X1.600000*%
%ADD17O,1.000000X2.100000*%
%ADD18C,0.650000*%
G04 APERTURE END LIST*
D10*
%TO.C,U5*%
X171250000Y-76500000D03*
X173250000Y-76500000D03*
X175250000Y-76500000D03*
X177250000Y-76500000D03*
X179250000Y-76500000D03*
X181250000Y-76500000D03*
X183250000Y-76500000D03*
X185250000Y-76500000D03*
X187250000Y-76500000D03*
X189250000Y-76500000D03*
D11*
X194500000Y-24000000D03*
X166000000Y-76000000D03*
X166000000Y-24000000D03*
X194500000Y-76000000D03*
%TD*%
D12*
%TO.C,MX27*%
X90000000Y-70000000D03*
D13*
X95080000Y-70000000D03*
X84920000Y-70000000D03*
%TD*%
%TO.C,MX41*%
X124920000Y-90000000D03*
X135080000Y-90000000D03*
D12*
X130000000Y-90000000D03*
%TD*%
%TO.C,MX24*%
X310000000Y-50000000D03*
D13*
X315080000Y-50000000D03*
X304920000Y-50000000D03*
%TD*%
%TO.C,MX48*%
X304920000Y-90000000D03*
D12*
X310000000Y-90000000D03*
D13*
X315080000Y-90000000D03*
%TD*%
%TO.C,MX36*%
X315080000Y-70000000D03*
D12*
X310000000Y-70000000D03*
D13*
X304920000Y-70000000D03*
%TD*%
D12*
%TO.C,MX11*%
X290000000Y-30000000D03*
D13*
X295080000Y-30000000D03*
X284920000Y-30000000D03*
%TD*%
%TO.C,MX7*%
X215080000Y-30000000D03*
X204920000Y-30000000D03*
D12*
X210000000Y-30000000D03*
%TD*%
D13*
%TO.C,MX29*%
X124920000Y-70000000D03*
D12*
X130000000Y-70000000D03*
D13*
X135080000Y-70000000D03*
%TD*%
D12*
%TO.C,MX14*%
X70000000Y-50000000D03*
D13*
X75080000Y-50000000D03*
X64920000Y-50000000D03*
%TD*%
D12*
%TO.C,MX43*%
X210000000Y-90000000D03*
D13*
X215080000Y-90000000D03*
X204920000Y-90000000D03*
%TD*%
D12*
%TO.C,MX4*%
X110000000Y-30000000D03*
D13*
X115080000Y-30000000D03*
X104920000Y-30000000D03*
%TD*%
%TO.C,MX25*%
X55080000Y-70000000D03*
X44920000Y-70000000D03*
D12*
X50000000Y-70000000D03*
%TD*%
%TO.C,MX45*%
X250000000Y-90000000D03*
D13*
X255080000Y-90000000D03*
X244920000Y-90000000D03*
%TD*%
D12*
%TO.C,MX23*%
X290000000Y-50000000D03*
D13*
X295080000Y-50000000D03*
X284920000Y-50000000D03*
%TD*%
%TO.C,MX32*%
X224920000Y-70000000D03*
X235080000Y-70000000D03*
D12*
X230000000Y-70000000D03*
%TD*%
%TO.C,MX3*%
X90000000Y-30000000D03*
D13*
X84920000Y-30000000D03*
X95080000Y-30000000D03*
%TD*%
%TO.C,MX22*%
X264920000Y-50000000D03*
D12*
X270000000Y-50000000D03*
D13*
X275080000Y-50000000D03*
%TD*%
D12*
%TO.C,MX21*%
X250000000Y-50000000D03*
D13*
X255080000Y-50000000D03*
X244920000Y-50000000D03*
%TD*%
D12*
%TO.C,MX8*%
X230000000Y-30000000D03*
D13*
X235080000Y-30000000D03*
X224920000Y-30000000D03*
%TD*%
%TO.C,MX44*%
X224920000Y-90000000D03*
D12*
X230000000Y-90000000D03*
D13*
X235080000Y-90000000D03*
%TD*%
%TO.C,MX40*%
X115080000Y-90000000D03*
D12*
X110000000Y-90000000D03*
D13*
X104920000Y-90000000D03*
%TD*%
%TO.C,MX39*%
X84920000Y-90000000D03*
X95080000Y-90000000D03*
D12*
X90000000Y-90000000D03*
%TD*%
D14*
%TO.C,SW1*%
X191000000Y-25000000D03*
D15*
X188460000Y-25000000D03*
%TD*%
D13*
%TO.C,MX38*%
X75080000Y-90000000D03*
D12*
X70000000Y-90000000D03*
D13*
X64920000Y-90000000D03*
%TD*%
%TO.C,MX18*%
X144920000Y-50000000D03*
X155080000Y-50000000D03*
D12*
X150000000Y-50000000D03*
%TD*%
D13*
%TO.C,MX28*%
X115080000Y-70000000D03*
X104920000Y-70000000D03*
D12*
X110000000Y-70000000D03*
%TD*%
%TO.C,MX31*%
X210000000Y-70000000D03*
D13*
X215080000Y-70000000D03*
X204920000Y-70000000D03*
%TD*%
%TO.C,MX1*%
X44920000Y-30000000D03*
X55080000Y-30000000D03*
D12*
X50000000Y-30000000D03*
%TD*%
D13*
%TO.C,MX26*%
X75080000Y-70000000D03*
D12*
X70000000Y-70000000D03*
D13*
X64920000Y-70000000D03*
%TD*%
%TO.C,MX13*%
X55080000Y-50000000D03*
X44920000Y-50000000D03*
D12*
X50000000Y-50000000D03*
%TD*%
D13*
%TO.C,MX9*%
X255080000Y-30000000D03*
D12*
X250000000Y-30000000D03*
D13*
X244920000Y-30000000D03*
%TD*%
D12*
%TO.C,MX46*%
X270000000Y-90000000D03*
D13*
X264920000Y-90000000D03*
X275080000Y-90000000D03*
%TD*%
%TO.C,MX17*%
X135080000Y-50000000D03*
X124920000Y-50000000D03*
D12*
X130000000Y-50000000D03*
%TD*%
%TO.C,MX10*%
X270000000Y-30000000D03*
D13*
X264920000Y-30000000D03*
X275080000Y-30000000D03*
%TD*%
%TO.C,MX30*%
X155080000Y-70000000D03*
X144920000Y-70000000D03*
D12*
X150000000Y-70000000D03*
%TD*%
D13*
%TO.C,MX6*%
X144920000Y-30000000D03*
X155080000Y-30000000D03*
D12*
X150000000Y-30000000D03*
%TD*%
D13*
%TO.C,MX35*%
X295080000Y-70000000D03*
D12*
X290000000Y-70000000D03*
D13*
X284920000Y-70000000D03*
%TD*%
%TO.C,MX20*%
X235080000Y-50000000D03*
X224920000Y-50000000D03*
D12*
X230000000Y-50000000D03*
%TD*%
D13*
%TO.C,MX33*%
X255080000Y-70000000D03*
X244920000Y-70000000D03*
D12*
X250000000Y-70000000D03*
%TD*%
%TO.C,MX15*%
X90000000Y-50000000D03*
D13*
X95080000Y-50000000D03*
X84920000Y-50000000D03*
%TD*%
%TO.C,MX37*%
X44920000Y-90000000D03*
X55080000Y-90000000D03*
D12*
X50000000Y-90000000D03*
%TD*%
D13*
%TO.C,MX34*%
X264920000Y-70000000D03*
X275080000Y-70000000D03*
D12*
X270000000Y-70000000D03*
%TD*%
D13*
%TO.C,MX2*%
X64920000Y-30000000D03*
D12*
X70000000Y-30000000D03*
D13*
X75080000Y-30000000D03*
%TD*%
%TO.C,MX5*%
X124920000Y-30000000D03*
X135080000Y-30000000D03*
D12*
X130000000Y-30000000D03*
%TD*%
D13*
%TO.C,MX47*%
X284920000Y-90000000D03*
D12*
X290000000Y-90000000D03*
D13*
X295080000Y-90000000D03*
%TD*%
%TO.C,MX19*%
X215080000Y-50000000D03*
D12*
X210000000Y-50000000D03*
D13*
X204920000Y-50000000D03*
%TD*%
%TO.C,MX16*%
X104920000Y-50000000D03*
X115080000Y-50000000D03*
D12*
X110000000Y-50000000D03*
%TD*%
%TO.C,MX12*%
X310000000Y-30000000D03*
D13*
X315080000Y-30000000D03*
X304920000Y-30000000D03*
%TD*%
%TO.C,MX42*%
X155080000Y-90000000D03*
X144920000Y-90000000D03*
D12*
X150000000Y-90000000D03*
%TD*%
D14*
%TO.C,J1*%
X182050000Y-68050000D03*
D15*
X179510000Y-68050000D03*
X176970000Y-68050000D03*
X174430000Y-68050000D03*
X171890000Y-68050000D03*
%TD*%
D16*
%TO.C,J2*%
X175680000Y-18950000D03*
X184320000Y-18950000D03*
D17*
X184320000Y-23130000D03*
X175680000Y-23130000D03*
D18*
X177110000Y-22600000D03*
X182890000Y-22600000D03*
%TD*%
M02*
