%TF.GenerationSoftware,KiCad,Pcbnew,(6.0.7)*%
%TF.CreationDate,2022-08-22T17:31:43+01:00*%
%TF.ProjectId,ortho40,6f727468-6f34-4302-9e6b-696361645f70,rev?*%
%TF.SameCoordinates,Original*%
%TF.FileFunction,Copper,L2,Bot*%
%TF.FilePolarity,Positive*%
%FSLAX46Y46*%
G04 Gerber Fmt 4.6, Leading zero omitted, Abs format (unit mm)*
G04 Created by KiCad (PCBNEW (6.0.7)) date 2022-08-22 17:31:43*
%MOMM*%
%LPD*%
G01*
G04 APERTURE LIST*
G04 Aperture macros list*
%AMRoundRect*
0 Rectangle with rounded corners*
0 $1 Rounding radius*
0 $2 $3 $4 $5 $6 $7 $8 $9 X,Y pos of 4 corners*
0 Add a 4 corners polygon primitive as box body*
4,1,4,$2,$3,$4,$5,$6,$7,$8,$9,$2,$3,0*
0 Add four circle primitives for the rounded corners*
1,1,$1+$1,$2,$3*
1,1,$1+$1,$4,$5*
1,1,$1+$1,$6,$7*
1,1,$1+$1,$8,$9*
0 Add four rect primitives between the rounded corners*
20,1,$1+$1,$2,$3,$4,$5,0*
20,1,$1+$1,$4,$5,$6,$7,0*
20,1,$1+$1,$6,$7,$8,$9,0*
20,1,$1+$1,$8,$9,$2,$3,0*%
%AMHorizOval*
0 Thick line with rounded ends*
0 $1 width*
0 $2 $3 position (X,Y) of the first rounded end (center of the circle)*
0 $4 $5 position (X,Y) of the second rounded end (center of the circle)*
0 Add line between two ends*
20,1,$1,$2,$3,$4,$5,0*
0 Add two circle primitives to create the rounded ends*
1,1,$1,$2,$3*
1,1,$1,$4,$5*%
G04 Aperture macros list end*
%TA.AperFunction,ComponentPad*%
%ADD10C,2.250000*%
%TD*%
%TA.AperFunction,ComponentPad*%
%ADD11HorizOval,2.250000X0.655001X0.730000X-0.655001X-0.730000X0*%
%TD*%
%TA.AperFunction,ComponentPad*%
%ADD12HorizOval,2.250000X0.020000X0.290000X-0.020000X-0.290000X0*%
%TD*%
%TA.AperFunction,ComponentPad*%
%ADD13R,1.700000X1.700000*%
%TD*%
%TA.AperFunction,ComponentPad*%
%ADD14O,1.700000X1.700000*%
%TD*%
%TA.AperFunction,SMDPad,CuDef*%
%ADD15R,1.200000X0.900000*%
%TD*%
%TA.AperFunction,SMDPad,CuDef*%
%ADD16RoundRect,0.140000X0.170000X-0.140000X0.170000X0.140000X-0.170000X0.140000X-0.170000X-0.140000X0*%
%TD*%
%TA.AperFunction,SMDPad,CuDef*%
%ADD17RoundRect,0.140000X0.140000X0.170000X-0.140000X0.170000X-0.140000X-0.170000X0.140000X-0.170000X0*%
%TD*%
%TA.AperFunction,SMDPad,CuDef*%
%ADD18RoundRect,0.250000X-0.625000X0.375000X-0.625000X-0.375000X0.625000X-0.375000X0.625000X0.375000X0*%
%TD*%
%TA.AperFunction,SMDPad,CuDef*%
%ADD19RoundRect,0.135000X0.185000X-0.135000X0.185000X0.135000X-0.185000X0.135000X-0.185000X-0.135000X0*%
%TD*%
%TA.AperFunction,SMDPad,CuDef*%
%ADD20R,1.400000X1.200000*%
%TD*%
%TA.AperFunction,SMDPad,CuDef*%
%ADD21RoundRect,0.135000X-0.035355X0.226274X-0.226274X0.035355X0.035355X-0.226274X0.226274X-0.035355X0*%
%TD*%
%TA.AperFunction,SMDPad,CuDef*%
%ADD22RoundRect,0.150000X0.150000X-0.587500X0.150000X0.587500X-0.150000X0.587500X-0.150000X-0.587500X0*%
%TD*%
%TA.AperFunction,SMDPad,CuDef*%
%ADD23RoundRect,0.135000X0.135000X0.185000X-0.135000X0.185000X-0.135000X-0.185000X0.135000X-0.185000X0*%
%TD*%
%TA.AperFunction,SMDPad,CuDef*%
%ADD24RoundRect,0.140000X-0.021213X0.219203X-0.219203X0.021213X0.021213X-0.219203X0.219203X-0.021213X0*%
%TD*%
%TA.AperFunction,SMDPad,CuDef*%
%ADD25RoundRect,0.050000X0.387500X0.050000X-0.387500X0.050000X-0.387500X-0.050000X0.387500X-0.050000X0*%
%TD*%
%TA.AperFunction,SMDPad,CuDef*%
%ADD26RoundRect,0.050000X0.050000X0.387500X-0.050000X0.387500X-0.050000X-0.387500X0.050000X-0.387500X0*%
%TD*%
%TA.AperFunction,ComponentPad*%
%ADD27C,0.600000*%
%TD*%
%TA.AperFunction,SMDPad,CuDef*%
%ADD28RoundRect,0.144000X1.456000X1.456000X-1.456000X1.456000X-1.456000X-1.456000X1.456000X-1.456000X0*%
%TD*%
%TA.AperFunction,SMDPad,CuDef*%
%ADD29RoundRect,0.135000X-0.185000X0.135000X-0.185000X-0.135000X0.185000X-0.135000X0.185000X0.135000X0*%
%TD*%
%TA.AperFunction,SMDPad,CuDef*%
%ADD30RoundRect,0.140000X-0.140000X-0.170000X0.140000X-0.170000X0.140000X0.170000X-0.140000X0.170000X0*%
%TD*%
%TA.AperFunction,SMDPad,CuDef*%
%ADD31RoundRect,0.140000X-0.170000X0.140000X-0.170000X-0.140000X0.170000X-0.140000X0.170000X0.140000X0*%
%TD*%
%TA.AperFunction,SMDPad,CuDef*%
%ADD32RoundRect,0.150000X0.150000X-0.512500X0.150000X0.512500X-0.150000X0.512500X-0.150000X-0.512500X0*%
%TD*%
%TA.AperFunction,ComponentPad*%
%ADD33C,4.000000*%
%TD*%
%TA.AperFunction,ComponentPad*%
%ADD34C,1.650000*%
%TD*%
%TA.AperFunction,SMDPad,CuDef*%
%ADD35RoundRect,0.140000X-0.219203X-0.021213X-0.021213X-0.219203X0.219203X0.021213X0.021213X0.219203X0*%
%TD*%
%TA.AperFunction,SMDPad,CuDef*%
%ADD36R,0.600000X1.450000*%
%TD*%
%TA.AperFunction,SMDPad,CuDef*%
%ADD37R,0.300000X1.450000*%
%TD*%
%TA.AperFunction,ComponentPad*%
%ADD38O,1.000000X2.100000*%
%TD*%
%TA.AperFunction,ComponentPad*%
%ADD39O,1.000000X1.600000*%
%TD*%
%TA.AperFunction,SMDPad,CuDef*%
%ADD40RoundRect,0.140000X-0.077224X0.206244X-0.217224X-0.036244X0.077224X-0.206244X0.217224X0.036244X0*%
%TD*%
%TA.AperFunction,SMDPad,CuDef*%
%ADD41RoundRect,0.150000X-0.150000X0.650000X-0.150000X-0.650000X0.150000X-0.650000X0.150000X0.650000X0*%
%TD*%
%TA.AperFunction,ViaPad*%
%ADD42C,0.600000*%
%TD*%
%TA.AperFunction,Conductor*%
%ADD43C,0.200000*%
%TD*%
%TA.AperFunction,Conductor*%
%ADD44C,0.381000*%
%TD*%
%TA.AperFunction,Conductor*%
%ADD45C,0.600000*%
%TD*%
%TA.AperFunction,Conductor*%
%ADD46C,0.250000*%
%TD*%
G04 APERTURE END LIST*
D10*
%TO.P,MX27,1,COL*%
%TO.N,c2*%
X87500000Y-66000000D03*
D11*
X86845001Y-66730000D03*
D10*
%TO.P,MX27,2,ROW*%
%TO.N,Net-(D26-Pad2)*%
X92540000Y-64920000D03*
D12*
X92520000Y-65210000D03*
%TD*%
D11*
%TO.P,MX41,1,COL*%
%TO.N,c4*%
X126845001Y-86730000D03*
D10*
X127500000Y-86000000D03*
D12*
%TO.P,MX41,2,ROW*%
%TO.N,Net-(D41-Pad2)*%
X132520000Y-85210000D03*
D10*
X132540000Y-84920000D03*
%TD*%
D11*
%TO.P,MX24,1,COL*%
%TO.N,c11*%
X306845001Y-46730000D03*
D10*
X307500000Y-46000000D03*
D12*
%TO.P,MX24,2,ROW*%
%TO.N,Net-(D24-Pad2)*%
X312520000Y-45210000D03*
D10*
X312540000Y-44920000D03*
%TD*%
%TO.P,MX48,1,COL*%
%TO.N,c11*%
X307500000Y-86000000D03*
D11*
X306845001Y-86730000D03*
D12*
%TO.P,MX48,2,ROW*%
%TO.N,Net-(D48-Pad2)*%
X312520000Y-85210000D03*
D10*
X312540000Y-84920000D03*
%TD*%
%TO.P,MX36,1,COL*%
%TO.N,c11*%
X307500000Y-66000000D03*
D11*
X306845001Y-66730000D03*
D12*
%TO.P,MX36,2,ROW*%
%TO.N,Net-(D36-Pad2)*%
X312520000Y-65210000D03*
D10*
X312540000Y-64920000D03*
%TD*%
D11*
%TO.P,MX11,1,COL*%
%TO.N,c10*%
X286845001Y-26730000D03*
D10*
X287500000Y-26000000D03*
D12*
%TO.P,MX11,2,ROW*%
%TO.N,Net-(D8-Pad2)*%
X292520000Y-25210000D03*
D10*
X292540000Y-24920000D03*
%TD*%
D11*
%TO.P,MX7,1,COL*%
%TO.N,c6*%
X206845001Y-26730000D03*
D10*
X207500000Y-26000000D03*
%TO.P,MX7,2,ROW*%
%TO.N,Net-(D6-Pad2)*%
X212540000Y-24920000D03*
D12*
X212520000Y-25210000D03*
%TD*%
D11*
%TO.P,MX29,1,COL*%
%TO.N,c4*%
X126845001Y-66730000D03*
D10*
X127500000Y-66000000D03*
D12*
%TO.P,MX29,2,ROW*%
%TO.N,Net-(D29-Pad2)*%
X132520000Y-65210000D03*
D10*
X132540000Y-64920000D03*
%TD*%
%TO.P,MX14,1,COL*%
%TO.N,c1*%
X67500000Y-46000000D03*
D11*
X66845001Y-46730000D03*
D10*
%TO.P,MX14,2,ROW*%
%TO.N,Net-(D15-Pad2)*%
X72540000Y-44920000D03*
D12*
X72520000Y-45210000D03*
%TD*%
D10*
%TO.P,MX43,1,COL*%
%TO.N,c6*%
X207500000Y-86000000D03*
D11*
X206845001Y-86730000D03*
D12*
%TO.P,MX43,2,ROW*%
%TO.N,Net-(D42-Pad2)*%
X212520000Y-85210000D03*
D10*
X212540000Y-84920000D03*
%TD*%
%TO.P,MX4,1,COL*%
%TO.N,c3*%
X107500000Y-26000000D03*
D11*
X106845001Y-26730000D03*
D10*
%TO.P,MX4,2,ROW*%
%TO.N,Net-(D4-Pad2)*%
X112540000Y-24920000D03*
D12*
X112520000Y-25210000D03*
%TD*%
D10*
%TO.P,MX25,1,COL*%
%TO.N,c0*%
X47500000Y-66000000D03*
D11*
X46845001Y-66730000D03*
D12*
%TO.P,MX25,2,ROW*%
%TO.N,Net-(D25-Pad2)*%
X52520000Y-65210000D03*
D10*
X52540000Y-64920000D03*
%TD*%
D11*
%TO.P,MX45,1,COL*%
%TO.N,c8*%
X246845001Y-86730000D03*
D10*
X247500000Y-86000000D03*
D12*
%TO.P,MX45,2,ROW*%
%TO.N,Net-(D43-Pad2)*%
X252520000Y-85210000D03*
D10*
X252540000Y-84920000D03*
%TD*%
%TO.P,MX23,1,COL*%
%TO.N,c10*%
X287500000Y-46000000D03*
D11*
X286845001Y-46730000D03*
D10*
%TO.P,MX23,2,ROW*%
%TO.N,Net-(D20-Pad2)*%
X292540000Y-44920000D03*
D12*
X292520000Y-45210000D03*
%TD*%
D10*
%TO.P,MX32,1,COL*%
%TO.N,c7*%
X227500000Y-66000000D03*
D11*
X226845001Y-66730000D03*
D10*
%TO.P,MX32,2,ROW*%
%TO.N,Net-(D34-Pad2)*%
X232540000Y-64920000D03*
D12*
X232520000Y-65210000D03*
%TD*%
D11*
%TO.P,MX3,1,COL*%
%TO.N,c2*%
X86845001Y-26730000D03*
D10*
X87500000Y-26000000D03*
D12*
%TO.P,MX3,2,ROW*%
%TO.N,Net-(D2-Pad2)*%
X92520000Y-25210000D03*
D10*
X92540000Y-24920000D03*
%TD*%
D11*
%TO.P,MX22,1,COL*%
%TO.N,c9*%
X266845001Y-46730000D03*
D10*
X267500000Y-46000000D03*
D12*
%TO.P,MX22,2,ROW*%
%TO.N,Net-(D23-Pad2)*%
X272520000Y-45210000D03*
D10*
X272540000Y-44920000D03*
%TD*%
D11*
%TO.P,MX21,1,COL*%
%TO.N,c8*%
X246845001Y-46730000D03*
D10*
X247500000Y-46000000D03*
%TO.P,MX21,2,ROW*%
%TO.N,Net-(D19-Pad2)*%
X252540000Y-44920000D03*
D12*
X252520000Y-45210000D03*
%TD*%
D10*
%TO.P,MX8,1,COL*%
%TO.N,c7*%
X227500000Y-26000000D03*
D11*
X226845001Y-26730000D03*
D10*
%TO.P,MX8,2,ROW*%
%TO.N,Net-(D10-Pad2)*%
X232540000Y-24920000D03*
D12*
X232520000Y-25210000D03*
%TD*%
D11*
%TO.P,MX44,1,COL*%
%TO.N,c7*%
X226845001Y-86730000D03*
D10*
X227500000Y-86000000D03*
%TO.P,MX44,2,ROW*%
%TO.N,Net-(D46-Pad2)*%
X232540000Y-84920000D03*
D12*
X232520000Y-85210000D03*
%TD*%
D10*
%TO.P,MX40,1,COL*%
%TO.N,c3*%
X107500000Y-86000000D03*
D11*
X106845001Y-86730000D03*
D10*
%TO.P,MX40,2,ROW*%
%TO.N,Net-(D40-Pad2)*%
X112540000Y-84920000D03*
D12*
X112520000Y-85210000D03*
%TD*%
D10*
%TO.P,MX39,1,COL*%
%TO.N,c2*%
X87500000Y-86000000D03*
D11*
X86845001Y-86730000D03*
D12*
%TO.P,MX39,2,ROW*%
%TO.N,Net-(D38-Pad2)*%
X92520000Y-85210000D03*
D10*
X92540000Y-84920000D03*
%TD*%
D13*
%TO.P,SW1,1,1*%
%TO.N,GND*%
X192000000Y-25000000D03*
D14*
%TO.P,SW1,2,2*%
%TO.N,/~{BOOTSEL}*%
X189460000Y-25000000D03*
%TD*%
D11*
%TO.P,MX38,1,COL*%
%TO.N,c1*%
X66845001Y-86730000D03*
D10*
X67500000Y-86000000D03*
%TO.P,MX38,2,ROW*%
%TO.N,Net-(D39-Pad2)*%
X72540000Y-84920000D03*
D12*
X72520000Y-85210000D03*
%TD*%
D11*
%TO.P,MX18,1,COL*%
%TO.N,c5*%
X146845001Y-46730000D03*
D10*
X147500000Y-46000000D03*
D12*
%TO.P,MX18,2,ROW*%
%TO.N,Net-(D21-Pad2)*%
X152520000Y-45210000D03*
D10*
X152540000Y-44920000D03*
%TD*%
%TO.P,MX28,1,COL*%
%TO.N,c3*%
X107500000Y-66000000D03*
D11*
X106845001Y-66730000D03*
D10*
%TO.P,MX28,2,ROW*%
%TO.N,Net-(D28-Pad2)*%
X112540000Y-64920000D03*
D12*
X112520000Y-65210000D03*
%TD*%
D11*
%TO.P,MX31,1,COL*%
%TO.N,c6*%
X206845001Y-66730000D03*
D10*
X207500000Y-66000000D03*
D12*
%TO.P,MX31,2,ROW*%
%TO.N,Net-(D30-Pad2)*%
X212520000Y-65210000D03*
D10*
X212540000Y-64920000D03*
%TD*%
%TO.P,MX1,1,COL*%
%TO.N,c0*%
X47500000Y-26000000D03*
D11*
X46845001Y-26730000D03*
D10*
%TO.P,MX1,2,ROW*%
%TO.N,Net-(D1-Pad2)*%
X52540000Y-24920000D03*
D12*
X52520000Y-25210000D03*
%TD*%
D11*
%TO.P,MX26,1,COL*%
%TO.N,c1*%
X66845001Y-66730000D03*
D10*
X67500000Y-66000000D03*
D12*
%TO.P,MX26,2,ROW*%
%TO.N,Net-(D27-Pad2)*%
X72520000Y-65210000D03*
D10*
X72540000Y-64920000D03*
%TD*%
%TO.P,MX13,1,COL*%
%TO.N,c0*%
X47500000Y-46000000D03*
D11*
X46845001Y-46730000D03*
D12*
%TO.P,MX13,2,ROW*%
%TO.N,Net-(D13-Pad2)*%
X52520000Y-45210000D03*
D10*
X52540000Y-44920000D03*
%TD*%
%TO.P,MX9,1,COL*%
%TO.N,c8*%
X247500000Y-26000000D03*
D11*
X246845001Y-26730000D03*
D10*
%TO.P,MX9,2,ROW*%
%TO.N,Net-(D7-Pad2)*%
X252540000Y-24920000D03*
D12*
X252520000Y-25210000D03*
%TD*%
D11*
%TO.P,MX46,1,COL*%
%TO.N,c9*%
X266845001Y-86730000D03*
D10*
X267500000Y-86000000D03*
D12*
%TO.P,MX46,2,ROW*%
%TO.N,Net-(D47-Pad2)*%
X272520000Y-85210000D03*
D10*
X272540000Y-84920000D03*
%TD*%
D11*
%TO.P,MX17,1,COL*%
%TO.N,c4*%
X126845001Y-46730000D03*
D10*
X127500000Y-46000000D03*
%TO.P,MX17,2,ROW*%
%TO.N,Net-(D17-Pad2)*%
X132540000Y-44920000D03*
D12*
X132520000Y-45210000D03*
%TD*%
D10*
%TO.P,MX10,1,COL*%
%TO.N,c9*%
X267500000Y-26000000D03*
D11*
X266845001Y-26730000D03*
D12*
%TO.P,MX10,2,ROW*%
%TO.N,Net-(D11-Pad2)*%
X272520000Y-25210000D03*
D10*
X272540000Y-24920000D03*
%TD*%
D11*
%TO.P,MX30,1,COL*%
%TO.N,c5*%
X146845001Y-66730000D03*
D10*
X147500000Y-66000000D03*
D12*
%TO.P,MX30,2,ROW*%
%TO.N,Net-(D33-Pad2)*%
X152520000Y-65210000D03*
D10*
X152540000Y-64920000D03*
%TD*%
D11*
%TO.P,MX6,1,COL*%
%TO.N,c5*%
X146845001Y-26730000D03*
D10*
X147500000Y-26000000D03*
D12*
%TO.P,MX6,2,ROW*%
%TO.N,Net-(D9-Pad2)*%
X152520000Y-25210000D03*
D10*
X152540000Y-24920000D03*
%TD*%
%TO.P,MX35,1,COL*%
%TO.N,c10*%
X287500000Y-66000000D03*
D11*
X286845001Y-66730000D03*
D10*
%TO.P,MX35,2,ROW*%
%TO.N,Net-(D32-Pad2)*%
X292540000Y-64920000D03*
D12*
X292520000Y-65210000D03*
%TD*%
D10*
%TO.P,MX20,1,COL*%
%TO.N,c7*%
X227500000Y-46000000D03*
D11*
X226845001Y-46730000D03*
D12*
%TO.P,MX20,2,ROW*%
%TO.N,Net-(D22-Pad2)*%
X232520000Y-45210000D03*
D10*
X232540000Y-44920000D03*
%TD*%
D11*
%TO.P,MX33,1,COL*%
%TO.N,c8*%
X246845001Y-66730000D03*
D10*
X247500000Y-66000000D03*
D12*
%TO.P,MX33,2,ROW*%
%TO.N,Net-(D31-Pad2)*%
X252520000Y-65210000D03*
D10*
X252540000Y-64920000D03*
%TD*%
%TO.P,MX15,1,COL*%
%TO.N,c2*%
X87500000Y-46000000D03*
D11*
X86845001Y-46730000D03*
D10*
%TO.P,MX15,2,ROW*%
%TO.N,Net-(D14-Pad2)*%
X92540000Y-44920000D03*
D12*
X92520000Y-45210000D03*
%TD*%
D11*
%TO.P,MX37,1,COL*%
%TO.N,c0*%
X46845001Y-86730000D03*
D10*
X47500000Y-86000000D03*
%TO.P,MX37,2,ROW*%
%TO.N,Net-(D37-Pad2)*%
X52540000Y-84920000D03*
D12*
X52520000Y-85210000D03*
%TD*%
D10*
%TO.P,MX34,1,COL*%
%TO.N,c9*%
X267500000Y-66000000D03*
D11*
X266845001Y-66730000D03*
D12*
%TO.P,MX34,2,ROW*%
%TO.N,Net-(D35-Pad2)*%
X272520000Y-65210000D03*
D10*
X272540000Y-64920000D03*
%TD*%
D11*
%TO.P,MX2,1,COL*%
%TO.N,c1*%
X66845001Y-26730000D03*
D10*
X67500000Y-26000000D03*
D12*
%TO.P,MX2,2,ROW*%
%TO.N,Net-(D3-Pad2)*%
X72520000Y-25210000D03*
D10*
X72540000Y-24920000D03*
%TD*%
%TO.P,MX5,1,COL*%
%TO.N,c4*%
X127500000Y-26000000D03*
D11*
X126845001Y-26730000D03*
D12*
%TO.P,MX5,2,ROW*%
%TO.N,Net-(D5-Pad2)*%
X132520000Y-25210000D03*
D10*
X132540000Y-24920000D03*
%TD*%
D11*
%TO.P,MX47,1,COL*%
%TO.N,c10*%
X286845001Y-86730000D03*
D10*
X287500000Y-86000000D03*
D12*
%TO.P,MX47,2,ROW*%
%TO.N,Net-(D44-Pad2)*%
X292520000Y-85210000D03*
D10*
X292540000Y-84920000D03*
%TD*%
D11*
%TO.P,MX19,1,COL*%
%TO.N,c6*%
X206845001Y-46730000D03*
D10*
X207500000Y-46000000D03*
D12*
%TO.P,MX19,2,ROW*%
%TO.N,Net-(D18-Pad2)*%
X212520000Y-45210000D03*
D10*
X212540000Y-44920000D03*
%TD*%
%TO.P,MX16,1,COL*%
%TO.N,c3*%
X107500000Y-46000000D03*
D11*
X106845001Y-46730000D03*
D10*
%TO.P,MX16,2,ROW*%
%TO.N,Net-(D16-Pad2)*%
X112540000Y-44920000D03*
D12*
X112520000Y-45210000D03*
%TD*%
D11*
%TO.P,MX12,1,COL*%
%TO.N,c11*%
X306845001Y-26730000D03*
D10*
X307500000Y-26000000D03*
%TO.P,MX12,2,ROW*%
%TO.N,Net-(D12-Pad2)*%
X312540000Y-24920000D03*
D12*
X312520000Y-25210000D03*
%TD*%
D10*
%TO.P,MX42,1,COL*%
%TO.N,c5*%
X147500000Y-86000000D03*
D11*
X146845001Y-86730000D03*
D12*
%TO.P,MX42,2,ROW*%
%TO.N,Net-(D45-Pad2)*%
X152520000Y-85210000D03*
D10*
X152540000Y-84920000D03*
%TD*%
D15*
%TO.P,D6,1,K*%
%TO.N,r0*%
X218000000Y-31650000D03*
%TO.P,D6,2,A*%
%TO.N,Net-(D6-Pad2)*%
X218000000Y-28350000D03*
%TD*%
%TO.P,D39,1,K*%
%TO.N,r3*%
X78000000Y-90650000D03*
%TO.P,D39,2,A*%
%TO.N,Net-(D39-Pad2)*%
X78000000Y-87350000D03*
%TD*%
D16*
%TO.P,C14,1*%
%TO.N,+3V3*%
X186000000Y-46480000D03*
%TO.P,C14,2*%
%TO.N,GND*%
X186000000Y-45520000D03*
%TD*%
%TO.P,C6,1*%
%TO.N,+1V1*%
X176455282Y-43500759D03*
%TO.P,C6,2*%
%TO.N,GND*%
X176455282Y-42540759D03*
%TD*%
D15*
%TO.P,D21,1,K*%
%TO.N,r1*%
X158000000Y-52000000D03*
%TO.P,D21,2,A*%
%TO.N,Net-(D21-Pad2)*%
X158000000Y-48700000D03*
%TD*%
%TO.P,D16,1,K*%
%TO.N,r1*%
X118000000Y-51650000D03*
%TO.P,D16,2,A*%
%TO.N,Net-(D16-Pad2)*%
X118000000Y-48350000D03*
%TD*%
%TO.P,D22,1,K*%
%TO.N,r1*%
X238000000Y-51650000D03*
%TO.P,D22,2,A*%
%TO.N,Net-(D22-Pad2)*%
X238000000Y-48350000D03*
%TD*%
D17*
%TO.P,C2,1*%
%TO.N,+5V*%
X174480000Y-32000000D03*
%TO.P,C2,2*%
%TO.N,GND*%
X173520000Y-32000000D03*
%TD*%
D18*
%TO.P,F1,1*%
%TO.N,VBUS*%
X176000000Y-27600000D03*
%TO.P,F1,2*%
%TO.N,+5V*%
X176000000Y-30400000D03*
%TD*%
D15*
%TO.P,D23,1,K*%
%TO.N,r1*%
X278000000Y-51650000D03*
%TO.P,D23,2,A*%
%TO.N,Net-(D23-Pad2)*%
X278000000Y-48350000D03*
%TD*%
D19*
%TO.P,R2,1*%
%TO.N,Net-(R2-Pad1)*%
X181324156Y-33460671D03*
%TO.P,R2,2*%
%TO.N,DP*%
X181324156Y-32440671D03*
%TD*%
D20*
%TO.P,Y1,1,1*%
%TO.N,Net-(C16-Pad2)*%
X180900000Y-61100000D03*
%TO.P,Y1,2,2*%
%TO.N,GND*%
X183100000Y-61100000D03*
%TO.P,Y1,3,3*%
%TO.N,CLK_IN*%
X183100000Y-62800000D03*
%TO.P,Y1,4,4*%
%TO.N,GND*%
X180900000Y-62800000D03*
%TD*%
D15*
%TO.P,D31,1,K*%
%TO.N,r2*%
X258000000Y-71650000D03*
%TO.P,D31,2,A*%
%TO.N,Net-(D31-Pad2)*%
X258000000Y-68350000D03*
%TD*%
%TO.P,D18,1,K*%
%TO.N,r1*%
X218000000Y-51650000D03*
%TO.P,D18,2,A*%
%TO.N,Net-(D18-Pad2)*%
X218000000Y-48350000D03*
%TD*%
D21*
%TO.P,R6,1*%
%TO.N,/~{BOOTSEL}*%
X186034799Y-27394231D03*
%TO.P,R6,2*%
%TO.N,QSPI_SS*%
X185313551Y-28115479D03*
%TD*%
D16*
%TO.P,C5,1*%
%TO.N,+1V1*%
X181500000Y-42980000D03*
%TO.P,C5,2*%
%TO.N,GND*%
X181500000Y-42020000D03*
%TD*%
D17*
%TO.P,C8,1*%
%TO.N,+3V3*%
X172999309Y-43964820D03*
%TO.P,C8,2*%
%TO.N,GND*%
X172039309Y-43964820D03*
%TD*%
D15*
%TO.P,D2,1,K*%
%TO.N,r0*%
X98000000Y-31650000D03*
%TO.P,D2,2,A*%
%TO.N,Net-(D2-Pad2)*%
X98000000Y-28350000D03*
%TD*%
%TO.P,D46,1,K*%
%TO.N,r3*%
X238000000Y-90650000D03*
%TO.P,D46,2,A*%
%TO.N,Net-(D46-Pad2)*%
X238000000Y-87350000D03*
%TD*%
D22*
%TO.P,U2,1,GND*%
%TO.N,GND*%
X175950000Y-35937500D03*
%TO.P,U2,2,VO*%
%TO.N,+3V3*%
X174050000Y-35937500D03*
%TO.P,U2,3,VI*%
%TO.N,+5V*%
X175000000Y-34062500D03*
%TD*%
D16*
%TO.P,C16,1*%
%TO.N,GND*%
X178000000Y-63430000D03*
%TO.P,C16,2*%
%TO.N,Net-(C16-Pad2)*%
X178000000Y-62470000D03*
%TD*%
D15*
%TO.P,D41,1,K*%
%TO.N,r3*%
X138000000Y-90650000D03*
%TO.P,D41,2,A*%
%TO.N,Net-(D41-Pad2)*%
X138000000Y-87350000D03*
%TD*%
%TO.P,D11,1,K*%
%TO.N,r0*%
X278000000Y-31300000D03*
%TO.P,D11,2,A*%
%TO.N,Net-(D11-Pad2)*%
X278000000Y-28000000D03*
%TD*%
%TO.P,D7,1,K*%
%TO.N,r0*%
X258000000Y-31650000D03*
%TO.P,D7,2,A*%
%TO.N,Net-(D7-Pad2)*%
X258000000Y-28350000D03*
%TD*%
%TO.P,D10,1,K*%
%TO.N,r0*%
X238000000Y-31650000D03*
%TO.P,D10,2,A*%
%TO.N,Net-(D10-Pad2)*%
X238000000Y-28350000D03*
%TD*%
D23*
%TO.P,R1,2*%
%TO.N,RESET*%
X171490000Y-65000000D03*
%TO.P,R1,1*%
%TO.N,+3V3*%
X172510000Y-65000000D03*
%TD*%
D15*
%TO.P,D14,1,K*%
%TO.N,r1*%
X98000000Y-51650000D03*
%TO.P,D14,2,A*%
%TO.N,Net-(D14-Pad2)*%
X98000000Y-48350000D03*
%TD*%
%TO.P,D17,1,K*%
%TO.N,r1*%
X138000000Y-51650000D03*
%TO.P,D17,2,A*%
%TO.N,Net-(D17-Pad2)*%
X138000000Y-48350000D03*
%TD*%
%TO.P,D27,1,K*%
%TO.N,r2*%
X78000000Y-71650000D03*
%TO.P,D27,2,A*%
%TO.N,Net-(D27-Pad2)*%
X78000000Y-68350000D03*
%TD*%
D24*
%TO.P,C4,1*%
%TO.N,+1V1*%
X177835429Y-57132795D03*
%TO.P,C4,2*%
%TO.N,GND*%
X177156607Y-57811617D03*
%TD*%
D15*
%TO.P,D32,1,K*%
%TO.N,r2*%
X298000000Y-71650000D03*
%TO.P,D32,2,A*%
%TO.N,Net-(D32-Pad2)*%
X298000000Y-68350000D03*
%TD*%
%TO.P,D42,1,K*%
%TO.N,r3*%
X218000000Y-90650000D03*
%TO.P,D42,2,A*%
%TO.N,Net-(D42-Pad2)*%
X218000000Y-87350000D03*
%TD*%
%TO.P,D1,1,K*%
%TO.N,r0*%
X58000000Y-31650000D03*
%TO.P,D1,2,A*%
%TO.N,Net-(D1-Pad2)*%
X58000000Y-28350000D03*
%TD*%
%TO.P,D36,1,K*%
%TO.N,r2*%
X318000000Y-71650000D03*
%TO.P,D36,2,A*%
%TO.N,Net-(D36-Pad2)*%
X318000000Y-68350000D03*
%TD*%
D25*
%TO.P,U1,1,IOVDD*%
%TO.N,+3V3*%
X183437500Y-47400000D03*
%TO.P,U1,2,GPIO0*%
%TO.N,c6*%
X183437500Y-47800000D03*
%TO.P,U1,3,GPIO1*%
%TO.N,c7*%
X183437500Y-48200000D03*
%TO.P,U1,4,GPIO2*%
%TO.N,c8*%
X183437500Y-48600000D03*
%TO.P,U1,5,GPIO3*%
%TO.N,c9*%
X183437500Y-49000000D03*
%TO.P,U1,6,GPIO4*%
%TO.N,c10*%
X183437500Y-49400000D03*
%TO.P,U1,7,GPIO5*%
%TO.N,c11*%
X183437500Y-49800000D03*
%TO.P,U1,8,GPIO6*%
%TO.N,unconnected-(U1-Pad8)*%
X183437500Y-50200000D03*
%TO.P,U1,9,GPIO7*%
%TO.N,unconnected-(U1-Pad9)*%
X183437500Y-50600000D03*
%TO.P,U1,10,IOVDD*%
%TO.N,+3V3*%
X183437500Y-51000000D03*
%TO.P,U1,11,GPIO8*%
%TO.N,unconnected-(U1-Pad11)*%
X183437500Y-51400000D03*
%TO.P,U1,12,GPIO9*%
%TO.N,unconnected-(U1-Pad12)*%
X183437500Y-51800000D03*
%TO.P,U1,13,GPIO10*%
%TO.N,r2*%
X183437500Y-52200000D03*
%TO.P,U1,14,GPIO11*%
%TO.N,r3*%
X183437500Y-52600000D03*
D26*
%TO.P,U1,15,GPIO12*%
%TO.N,unconnected-(U1-Pad15)*%
X182600000Y-53437500D03*
%TO.P,U1,16,GPIO13*%
%TO.N,unconnected-(U1-Pad16)*%
X182200000Y-53437500D03*
%TO.P,U1,17,GPIO14*%
%TO.N,unconnected-(U1-Pad17)*%
X181800000Y-53437500D03*
%TO.P,U1,18,GPIO15*%
%TO.N,unconnected-(U1-Pad18)*%
X181400000Y-53437500D03*
%TO.P,U1,19,TESTEN*%
%TO.N,GND*%
X181000000Y-53437500D03*
%TO.P,U1,20,XTAL_IN*%
%TO.N,CLK_IN*%
X180600000Y-53437500D03*
%TO.P,U1,21,XTAL_OUT*%
%TO.N,CLK_OUT*%
X180200000Y-53437500D03*
%TO.P,U1,22,IOVDD*%
%TO.N,+3V3*%
X179800000Y-53437500D03*
%TO.P,U1,23,DVDD*%
%TO.N,+1V1*%
X179400000Y-53437500D03*
%TO.P,U1,24,SWCLK*%
%TO.N,SWCLK*%
X179000000Y-53437500D03*
%TO.P,U1,25,SWDIO*%
%TO.N,SWD*%
X178600000Y-53437500D03*
%TO.P,U1,26,~{RUN}*%
%TO.N,RESET*%
X178200000Y-53437500D03*
%TO.P,U1,27,GPIO16*%
%TO.N,unconnected-(U1-Pad27)*%
X177800000Y-53437500D03*
%TO.P,U1,28,GPIO17*%
%TO.N,unconnected-(U1-Pad28)*%
X177400000Y-53437500D03*
D25*
%TO.P,U1,29,GPIO18*%
%TO.N,unconnected-(U1-Pad29)*%
X176562500Y-52600000D03*
%TO.P,U1,30,GPIO19*%
%TO.N,unconnected-(U1-Pad30)*%
X176562500Y-52200000D03*
%TO.P,U1,31,GPIO20*%
%TO.N,unconnected-(U1-Pad31)*%
X176562500Y-51800000D03*
%TO.P,U1,32,GPIO21*%
%TO.N,unconnected-(U1-Pad32)*%
X176562500Y-51400000D03*
%TO.P,U1,33,IOVDD*%
%TO.N,+3V3*%
X176562500Y-51000000D03*
%TO.P,U1,34,GPIO22*%
%TO.N,c0*%
X176562500Y-50600000D03*
%TO.P,U1,35,GPIO23*%
%TO.N,c1*%
X176562500Y-50200000D03*
%TO.P,U1,36,GPIO24*%
%TO.N,c2*%
X176562500Y-49800000D03*
%TO.P,U1,37,GPIO25*%
%TO.N,c3*%
X176562500Y-49400000D03*
%TO.P,U1,38,GPIO26/ADC0*%
%TO.N,c4*%
X176562500Y-49000000D03*
%TO.P,U1,39,GPIO27/ADC1*%
%TO.N,c5*%
X176562500Y-48600000D03*
%TO.P,U1,40,GPIO28/ADC2*%
%TO.N,r1*%
X176562500Y-48200000D03*
%TO.P,U1,41,GPIO29/ADC3*%
%TO.N,r0*%
X176562500Y-47800000D03*
%TO.P,U1,42,IOVDD*%
%TO.N,+3V3*%
X176562500Y-47400000D03*
D26*
%TO.P,U1,43,ADC_AVDD*%
X177400000Y-46562500D03*
%TO.P,U1,44,VREG_VIN*%
X177800000Y-46562500D03*
%TO.P,U1,45,VREG_VOUT*%
%TO.N,+1V1*%
X178200000Y-46562500D03*
%TO.P,U1,46,D-*%
%TO.N,Net-(R3-Pad1)*%
X178600000Y-46562500D03*
%TO.P,U1,47,D+*%
%TO.N,Net-(R2-Pad1)*%
X179000000Y-46562500D03*
%TO.P,U1,48,USB_VDD*%
%TO.N,+3V3*%
X179400000Y-46562500D03*
%TO.P,U1,49,IOVDD*%
X179800000Y-46562500D03*
%TO.P,U1,50,DVDD*%
%TO.N,+1V1*%
X180200000Y-46562500D03*
%TO.P,U1,51,QSPI_SD3*%
%TO.N,QSPI_SD3*%
X180600000Y-46562500D03*
%TO.P,U1,52,QSPI_SCLK*%
%TO.N,QSPI_SCLK*%
X181000000Y-46562500D03*
%TO.P,U1,53,QSPI_SD0*%
%TO.N,QSPI_SD0*%
X181400000Y-46562500D03*
%TO.P,U1,54,QSPI_SD2*%
%TO.N,QSPI_SD2*%
X181800000Y-46562500D03*
%TO.P,U1,55,QSPI_SD1*%
%TO.N,QSPI_SD1*%
X182200000Y-46562500D03*
%TO.P,U1,56,QSPI_SS_N*%
%TO.N,QSPI_SS*%
X182600000Y-46562500D03*
D27*
%TO.P,U1,57,GND*%
%TO.N,GND*%
X178725000Y-48725000D03*
X181275000Y-48725000D03*
X180000000Y-48725000D03*
X178725000Y-50000000D03*
X181275000Y-51275000D03*
X178725000Y-51275000D03*
X180000000Y-51275000D03*
X181275000Y-50000000D03*
D28*
X180000000Y-50000000D03*
D27*
X180000000Y-50000000D03*
%TD*%
D29*
%TO.P,R4,1*%
%TO.N,Net-(J2-PadA5)*%
X178000000Y-27490000D03*
%TO.P,R4,2*%
%TO.N,GND*%
X178000000Y-28510000D03*
%TD*%
D15*
%TO.P,D12,1,K*%
%TO.N,r0*%
X318000000Y-31250000D03*
%TO.P,D12,2,A*%
%TO.N,Net-(D12-Pad2)*%
X318000000Y-27950000D03*
%TD*%
D16*
%TO.P,C7,1*%
%TO.N,+3V3*%
X179000000Y-42480000D03*
%TO.P,C7,2*%
%TO.N,GND*%
X179000000Y-41520000D03*
%TD*%
D15*
%TO.P,D40,1,K*%
%TO.N,r3*%
X118000000Y-90650000D03*
%TO.P,D40,2,A*%
%TO.N,Net-(D40-Pad2)*%
X118000000Y-87350000D03*
%TD*%
D29*
%TO.P,R5,1*%
%TO.N,Net-(J2-PadB5)*%
X184000000Y-27490000D03*
%TO.P,R5,2*%
%TO.N,GND*%
X184000000Y-28510000D03*
%TD*%
D24*
%TO.P,C13,1*%
%TO.N,+3V3*%
X171339411Y-53660589D03*
%TO.P,C13,2*%
%TO.N,GND*%
X170660589Y-54339411D03*
%TD*%
D15*
%TO.P,D25,1,K*%
%TO.N,r2*%
X58000000Y-71650000D03*
%TO.P,D25,2,A*%
%TO.N,Net-(D25-Pad2)*%
X58000000Y-68350000D03*
%TD*%
D13*
%TO.P,J1,1,Pin_1*%
%TO.N,SWCLK*%
X182050000Y-68050000D03*
D14*
%TO.P,J1,2,Pin_2*%
%TO.N,SWD*%
X179510000Y-68050000D03*
%TO.P,J1,3,Pin_3*%
%TO.N,GND*%
X176970000Y-68050000D03*
%TO.P,J1,4,Pin_4*%
%TO.N,+3V3*%
X174430000Y-68050000D03*
%TO.P,J1,5,Pin_5*%
%TO.N,RESET*%
X171890000Y-68050000D03*
%TD*%
D17*
%TO.P,C10,1*%
%TO.N,+3V3*%
X172999309Y-45964820D03*
%TO.P,C10,2*%
%TO.N,GND*%
X172039309Y-45964820D03*
%TD*%
D15*
%TO.P,D47,1,K*%
%TO.N,r3*%
X278000000Y-90650000D03*
%TO.P,D47,2,A*%
%TO.N,Net-(D47-Pad2)*%
X278000000Y-87350000D03*
%TD*%
%TO.P,D30,1,K*%
%TO.N,r2*%
X218000000Y-71650000D03*
%TO.P,D30,2,A*%
%TO.N,Net-(D30-Pad2)*%
X218000000Y-68350000D03*
%TD*%
%TO.P,D15,1,K*%
%TO.N,r1*%
X78000000Y-52000000D03*
%TO.P,D15,2,A*%
%TO.N,Net-(D15-Pad2)*%
X78000000Y-48700000D03*
%TD*%
%TO.P,D26,1,K*%
%TO.N,r2*%
X98000000Y-71650000D03*
%TO.P,D26,2,A*%
%TO.N,Net-(D26-Pad2)*%
X98000000Y-68350000D03*
%TD*%
%TO.P,D43,1,K*%
%TO.N,r3*%
X258000000Y-90650000D03*
%TO.P,D43,2,A*%
%TO.N,Net-(D43-Pad2)*%
X258000000Y-87350000D03*
%TD*%
D30*
%TO.P,C3,1*%
%TO.N,+3V3*%
X172520000Y-40000000D03*
%TO.P,C3,2*%
%TO.N,GND*%
X173480000Y-40000000D03*
%TD*%
D15*
%TO.P,D4,1,K*%
%TO.N,r0*%
X118000000Y-31650000D03*
%TO.P,D4,2,A*%
%TO.N,Net-(D4-Pad2)*%
X118000000Y-28350000D03*
%TD*%
%TO.P,D19,1,K*%
%TO.N,r1*%
X258000000Y-51650000D03*
%TO.P,D19,2,A*%
%TO.N,Net-(D19-Pad2)*%
X258000000Y-48350000D03*
%TD*%
D31*
%TO.P,C15,1*%
%TO.N,GND*%
X186000000Y-61470000D03*
%TO.P,C15,2*%
%TO.N,CLK_IN*%
X186000000Y-62430000D03*
%TD*%
D15*
%TO.P,D8,1,K*%
%TO.N,r0*%
X298000000Y-31300000D03*
%TO.P,D8,2,A*%
%TO.N,Net-(D8-Pad2)*%
X298000000Y-28000000D03*
%TD*%
%TO.P,D33,1,K*%
%TO.N,r2*%
X158000000Y-71650000D03*
%TO.P,D33,2,A*%
%TO.N,Net-(D33-Pad2)*%
X158000000Y-68350000D03*
%TD*%
D30*
%TO.P,C12,1*%
%TO.N,+3V3*%
X172520000Y-38985000D03*
%TO.P,C12,2*%
%TO.N,GND*%
X173480000Y-38985000D03*
%TD*%
D32*
%TO.P,U4,1,I/O1*%
%TO.N,DP*%
X181950000Y-30137500D03*
%TO.P,U4,2,GND*%
%TO.N,GND*%
X181000000Y-30137500D03*
%TO.P,U4,3,I/O2*%
%TO.N,DN*%
X180050000Y-30137500D03*
%TO.P,U4,4,I/O2*%
%TO.N,USB_DN*%
X180050000Y-27862500D03*
%TO.P,U4,5,VBUS*%
%TO.N,+5V*%
X181000000Y-27862500D03*
%TO.P,U4,6,I/O1*%
%TO.N,USB_DP*%
X181950000Y-27862500D03*
%TD*%
D29*
%TO.P,R7,1*%
%TO.N,CLK_OUT*%
X181000000Y-58440000D03*
%TO.P,R7,2*%
%TO.N,Net-(C16-Pad2)*%
X181000000Y-59460000D03*
%TD*%
D15*
%TO.P,D44,1,K*%
%TO.N,r3*%
X298000000Y-90650000D03*
%TO.P,D44,2,A*%
%TO.N,Net-(D44-Pad2)*%
X298000000Y-87350000D03*
%TD*%
%TO.P,D35,1,K*%
%TO.N,r2*%
X278000000Y-71650000D03*
%TO.P,D35,2,A*%
%TO.N,Net-(D35-Pad2)*%
X278000000Y-68350000D03*
%TD*%
%TO.P,D38,1,K*%
%TO.N,r3*%
X98000000Y-90650000D03*
%TO.P,D38,2,A*%
%TO.N,Net-(D38-Pad2)*%
X98000000Y-87350000D03*
%TD*%
%TO.P,D13,1,K*%
%TO.N,r1*%
X58000000Y-51650000D03*
%TO.P,D13,2,A*%
%TO.N,Net-(D13-Pad2)*%
X58000000Y-48350000D03*
%TD*%
%TO.P,D3,1,K*%
%TO.N,r0*%
X78000000Y-31650000D03*
%TO.P,D3,2,A*%
%TO.N,Net-(D3-Pad2)*%
X78000000Y-28350000D03*
%TD*%
%TO.P,D24,1,K*%
%TO.N,r1*%
X318000000Y-51650000D03*
%TO.P,D24,2,A*%
%TO.N,Net-(D24-Pad2)*%
X318000000Y-48350000D03*
%TD*%
%TO.P,D34,1,K*%
%TO.N,r2*%
X238000000Y-71650000D03*
%TO.P,D34,2,A*%
%TO.N,Net-(D34-Pad2)*%
X238000000Y-68350000D03*
%TD*%
%TO.P,D29,1,K*%
%TO.N,r2*%
X138000000Y-71650000D03*
%TO.P,D29,2,A*%
%TO.N,Net-(D29-Pad2)*%
X138000000Y-68350000D03*
%TD*%
D16*
%TO.P,C9,1*%
%TO.N,+3V3*%
X175000000Y-43480000D03*
%TO.P,C9,2*%
%TO.N,GND*%
X175000000Y-42520000D03*
%TD*%
D15*
%TO.P,D9,1,K*%
%TO.N,r0*%
X158000000Y-31650000D03*
%TO.P,D9,2,A*%
%TO.N,Net-(D9-Pad2)*%
X158000000Y-28350000D03*
%TD*%
%TO.P,D48,1,K*%
%TO.N,r3*%
X318000000Y-90650000D03*
%TO.P,D48,2,A*%
%TO.N,Net-(D48-Pad2)*%
X318000000Y-87350000D03*
%TD*%
D33*
%TO.P,U5,*%
%TO.N,*%
X195250000Y-80000000D03*
X166750000Y-28000000D03*
X166750000Y-80000000D03*
X195250000Y-28000000D03*
D34*
%TO.P,U5,1,VCC*%
%TO.N,+3V3*%
X190000000Y-80500000D03*
%TO.P,U5,2,GND*%
%TO.N,GND*%
X188000000Y-80500000D03*
%TO.P,U5,3,SCLK*%
%TO.N,LCD_SCK*%
X186000000Y-80500000D03*
%TO.P,U5,4,MOSI*%
%TO.N,LCD_TX*%
X184000000Y-80500000D03*
%TO.P,U5,5,MISO*%
%TO.N,LCD_RX*%
X182000000Y-80500000D03*
%TO.P,U5,6,CS*%
%TO.N,LCD_CS*%
X180000000Y-80500000D03*
%TO.P,U5,7,~{RESET}*%
%TO.N,LCD_RESET*%
X178000000Y-80500000D03*
%TO.P,U5,8,DC*%
%TO.N,LCD_DC*%
X176000000Y-80500000D03*
%TO.P,U5,9,BLK*%
%TO.N,LCD_BACKLT*%
X174000000Y-80500000D03*
%TO.P,U5,10,SDCS*%
%TO.N,LCD_SDSEL*%
X172000000Y-80500000D03*
%TD*%
D15*
%TO.P,D20,1,K*%
%TO.N,r1*%
X298000000Y-51650000D03*
%TO.P,D20,2,A*%
%TO.N,Net-(D20-Pad2)*%
X298000000Y-48350000D03*
%TD*%
D35*
%TO.P,C11,1*%
%TO.N,+3V3*%
X187660589Y-51660589D03*
%TO.P,C11,2*%
%TO.N,GND*%
X188339411Y-52339411D03*
%TD*%
D15*
%TO.P,D28,1,K*%
%TO.N,r2*%
X118000000Y-71650000D03*
%TO.P,D28,2,A*%
%TO.N,Net-(D28-Pad2)*%
X118000000Y-68350000D03*
%TD*%
%TO.P,D5,1,K*%
%TO.N,r0*%
X138000000Y-31650000D03*
%TO.P,D5,2,A*%
%TO.N,Net-(D5-Pad2)*%
X138000000Y-28350000D03*
%TD*%
D36*
%TO.P,J2,A1,GND*%
%TO.N,GND*%
X176750000Y-24045000D03*
%TO.P,J2,A4,VBUS*%
%TO.N,VBUS*%
X177550000Y-24045000D03*
D37*
%TO.P,J2,A5,CC1*%
%TO.N,Net-(J2-PadA5)*%
X178750000Y-24045000D03*
%TO.P,J2,A6,D+*%
%TO.N,USB_DP*%
X179750000Y-24045000D03*
%TO.P,J2,A7,D-*%
%TO.N,USB_DN*%
X180250000Y-24045000D03*
%TO.P,J2,A8,SBU1*%
%TO.N,unconnected-(J2-PadA8)*%
X181250000Y-24045000D03*
D36*
%TO.P,J2,A9,VBUS*%
%TO.N,VBUS*%
X182450000Y-24045000D03*
%TO.P,J2,A12,GND*%
%TO.N,GND*%
X183250000Y-24045000D03*
%TO.P,J2,B1,GND*%
X183250000Y-24045000D03*
%TO.P,J2,B4,VBUS*%
%TO.N,VBUS*%
X182450000Y-24045000D03*
D37*
%TO.P,J2,B5,CC2*%
%TO.N,Net-(J2-PadB5)*%
X181750000Y-24045000D03*
%TO.P,J2,B6,D+*%
%TO.N,USB_DP*%
X180750000Y-24045000D03*
%TO.P,J2,B7,D-*%
%TO.N,USB_DN*%
X179250000Y-24045000D03*
%TO.P,J2,B8,SBU2*%
%TO.N,unconnected-(J2-PadB8)*%
X178250000Y-24045000D03*
D36*
%TO.P,J2,B9,VBUS*%
%TO.N,VBUS*%
X177550000Y-24045000D03*
%TO.P,J2,B12,GND*%
%TO.N,GND*%
X176750000Y-24045000D03*
D38*
%TO.P,J2,S1,SHIELD*%
X175680000Y-23130000D03*
X184320000Y-23130000D03*
D39*
X184320000Y-18950000D03*
X175680000Y-18950000D03*
%TD*%
D15*
%TO.P,D45,1,K*%
%TO.N,r3*%
X158000000Y-90650000D03*
%TO.P,D45,2,A*%
%TO.N,Net-(D45-Pad2)*%
X158000000Y-87350000D03*
%TD*%
D40*
%TO.P,C1,1*%
%TO.N,+3V3*%
X179371503Y-57514574D03*
%TO.P,C1,2*%
%TO.N,GND*%
X178891503Y-58345958D03*
%TD*%
D15*
%TO.P,D37,1,K*%
%TO.N,r3*%
X58000000Y-90650000D03*
%TO.P,D37,2,A*%
%TO.N,Net-(D37-Pad2)*%
X58000000Y-87350000D03*
%TD*%
D19*
%TO.P,R3,1*%
%TO.N,Net-(R3-Pad1)*%
X180072022Y-33470344D03*
%TO.P,R3,2*%
%TO.N,DN*%
X180072022Y-32450344D03*
%TD*%
D41*
%TO.P,U3,1,~{CS}*%
%TO.N,QSPI_SS*%
X186095000Y-30400000D03*
%TO.P,U3,2,DO(IO1)*%
%TO.N,QSPI_SD1*%
X187365000Y-30400000D03*
%TO.P,U3,3,IO2*%
%TO.N,QSPI_SD2*%
X188635000Y-30400000D03*
%TO.P,U3,4,GND*%
%TO.N,GND*%
X189905000Y-30400000D03*
%TO.P,U3,5,DI(IO0)*%
%TO.N,QSPI_SD0*%
X189905000Y-37600000D03*
%TO.P,U3,6,CLK*%
%TO.N,QSPI_SCLK*%
X188635000Y-37600000D03*
%TO.P,U3,7,IO3*%
%TO.N,QSPI_SD3*%
X187365000Y-37600000D03*
%TO.P,U3,8,VCC*%
%TO.N,+3V3*%
X186095000Y-37600000D03*
%TD*%
D42*
%TO.N,c0*%
X46190000Y-54810000D03*
%TO.N,c1*%
X66190000Y-54810000D03*
%TO.N,c2*%
X86190000Y-54810000D03*
%TO.N,c3*%
X106190000Y-54810000D03*
%TO.N,c4*%
X126190000Y-54810000D03*
%TO.N,c5*%
X146190000Y-54810000D03*
%TO.N,c11*%
X306190000Y-34810000D03*
%TO.N,c10*%
X286190000Y-34810000D03*
%TO.N,c9*%
X266190000Y-34810000D03*
%TO.N,c8*%
X246190000Y-34810000D03*
%TO.N,c7*%
X226190000Y-34810000D03*
%TO.N,c6*%
X206190000Y-34810000D03*
%TO.N,r1*%
X164000000Y-50000000D03*
%TO.N,r0*%
X167000000Y-36000000D03*
%TO.N,GND*%
X175494710Y-65445510D03*
%TO.N,+3V3*%
X172000000Y-55000000D03*
X174000000Y-59000000D03*
X185000000Y-39000000D03*
X180000000Y-43000000D03*
%TO.N,GND*%
X186000000Y-60690500D03*
X186000000Y-44000000D03*
X178000000Y-36000000D03*
X170519309Y-43964820D03*
X175000000Y-26000000D03*
X175000000Y-41000000D03*
X178000000Y-64950000D03*
X185000000Y-26000000D03*
X182573112Y-41123942D03*
X183519121Y-29581574D03*
X189901780Y-32023070D03*
X189000000Y-53000000D03*
X172000000Y-32000000D03*
X176496018Y-58472206D03*
X170000000Y-55000000D03*
%TO.N,+1V1*%
X180536802Y-43644915D03*
X178496018Y-56472206D03*
X178889817Y-47838993D03*
X179399059Y-52328303D03*
%TO.N,r0*%
X198000000Y-32000000D03*
%TO.N,r1*%
X198000000Y-52000000D03*
%TO.N,r2*%
X198000000Y-72000000D03*
X162000000Y-72000000D03*
%TO.N,r3*%
X198000000Y-92000000D03*
X162000000Y-92000000D03*
%TD*%
D43*
%TO.N,QSPI_SS*%
X191666282Y-28000000D02*
X187000000Y-28000000D01*
X191676996Y-28010714D02*
X191666282Y-28000000D01*
X192000000Y-28333718D02*
X191676996Y-28010714D01*
X192000000Y-28434314D02*
X192000000Y-28333718D01*
X182600000Y-45965686D02*
X182600000Y-46562500D01*
X187165686Y-41400000D02*
X182600000Y-45965686D01*
X190165686Y-41400000D02*
X187165686Y-41400000D01*
X193216974Y-34905533D02*
X193216974Y-38348711D01*
X192400000Y-28834315D02*
X192400000Y-34088559D01*
X192000000Y-28434314D02*
X192400000Y-28834315D01*
X186095000Y-30400000D02*
X186095000Y-28905000D01*
X193216974Y-38348711D02*
X190165686Y-41400000D01*
X186095000Y-28905000D02*
X187000000Y-28000000D01*
X192400000Y-34088559D02*
X193216974Y-34905533D01*
%TO.N,c0*%
X46380000Y-55000000D02*
X46190000Y-54810000D01*
X64000000Y-55000000D02*
X46380000Y-55000000D01*
X65000000Y-56000000D02*
X64000000Y-55000000D01*
X67000000Y-56000000D02*
X65000000Y-56000000D01*
X67600000Y-55400000D02*
X67000000Y-56000000D01*
X83834315Y-55400000D02*
X67600000Y-55400000D01*
X87165685Y-56400000D02*
X84834315Y-56400000D01*
X87565686Y-56000000D02*
X87165685Y-56400000D01*
X104000000Y-56000000D02*
X87565686Y-56000000D01*
X105000000Y-57000000D02*
X104000000Y-56000000D01*
X108000000Y-57000000D02*
X105000000Y-57000000D01*
X108600000Y-56400000D02*
X108000000Y-57000000D01*
X123400000Y-56400000D02*
X108600000Y-56400000D01*
X84834315Y-56400000D02*
X83834315Y-55400000D01*
X124400000Y-57400000D02*
X123400000Y-56400000D01*
X128165685Y-57400000D02*
X124400000Y-57400000D01*
X144000000Y-58000000D02*
X143000000Y-57000000D01*
X149000000Y-58000000D02*
X144000000Y-58000000D01*
X149600000Y-57400000D02*
X149000000Y-58000000D01*
X128565686Y-57000000D02*
X128165685Y-57400000D01*
X161600000Y-57400000D02*
X149600000Y-57400000D01*
X168400000Y-50600000D02*
X161600000Y-57400000D01*
X143000000Y-57000000D02*
X128565686Y-57000000D01*
X176562500Y-50600000D02*
X168400000Y-50600000D01*
%TO.N,c1*%
X66380000Y-55000000D02*
X66190000Y-54810000D01*
X84000000Y-55000000D02*
X66380000Y-55000000D01*
X85000000Y-56000000D02*
X84000000Y-55000000D01*
X87000000Y-56000000D02*
X85000000Y-56000000D01*
X87600000Y-55400000D02*
X87000000Y-56000000D01*
X104400000Y-55400000D02*
X87600000Y-55400000D01*
X105400000Y-56400000D02*
X104400000Y-55400000D01*
X107165685Y-56400000D02*
X105400000Y-56400000D01*
X107565686Y-56000000D02*
X107165685Y-56400000D01*
X123868629Y-56000000D02*
X107565686Y-56000000D01*
X124868629Y-57000000D02*
X123868629Y-56000000D01*
X128000000Y-57000000D02*
X124868629Y-57000000D01*
X143268629Y-56400000D02*
X128600000Y-56400000D01*
X144268628Y-57400000D02*
X143268629Y-56400000D01*
X148165685Y-57400000D02*
X144268628Y-57400000D01*
X148565686Y-57000000D02*
X148165685Y-57400000D01*
X161131372Y-57000000D02*
X148565686Y-57000000D01*
X128600000Y-56400000D02*
X128000000Y-57000000D01*
X176562500Y-50200000D02*
X167931372Y-50200000D01*
X167931372Y-50200000D02*
X161131372Y-57000000D01*
%TO.N,c2*%
X86380000Y-55000000D02*
X86190000Y-54810000D01*
X105000000Y-55000000D02*
X86380000Y-55000000D01*
X106000000Y-56000000D02*
X105000000Y-55000000D01*
X107000000Y-56000000D02*
X106000000Y-56000000D01*
X123834315Y-55400000D02*
X107600000Y-55400000D01*
X124834315Y-56400000D02*
X123834315Y-55400000D01*
X127165685Y-56400000D02*
X124834315Y-56400000D01*
X127565686Y-56000000D02*
X127165685Y-56400000D01*
X143434315Y-56000000D02*
X127565686Y-56000000D01*
X144434314Y-57000000D02*
X143434315Y-56000000D01*
X148000000Y-57000000D02*
X144434314Y-57000000D01*
X161165685Y-56400000D02*
X148600000Y-56400000D01*
X148600000Y-56400000D02*
X148000000Y-57000000D01*
X167765686Y-49800000D02*
X161165685Y-56400000D01*
X176562500Y-49800000D02*
X167765686Y-49800000D01*
X107600000Y-55400000D02*
X107000000Y-56000000D01*
%TO.N,c3*%
X106380000Y-55000000D02*
X106190000Y-54810000D01*
X125000000Y-56000000D02*
X124000000Y-55000000D01*
X127000000Y-56000000D02*
X125000000Y-56000000D01*
X147165685Y-56400000D02*
X144400000Y-56400000D01*
X144400000Y-56400000D02*
X143400000Y-55400000D01*
X161000000Y-56000000D02*
X147565686Y-56000000D01*
X147565686Y-56000000D02*
X147165685Y-56400000D01*
X176562500Y-49400000D02*
X167600000Y-49400000D01*
X167600000Y-49400000D02*
X161000000Y-56000000D01*
X124000000Y-55000000D02*
X106380000Y-55000000D01*
X143400000Y-55400000D02*
X127600000Y-55400000D01*
X127600000Y-55400000D02*
X127000000Y-56000000D01*
%TO.N,c4*%
X144000000Y-55000000D02*
X126380000Y-55000000D01*
X147000000Y-56000000D02*
X145000000Y-56000000D01*
X145000000Y-56000000D02*
X144000000Y-55000000D01*
X126380000Y-55000000D02*
X126190000Y-54810000D01*
X147600000Y-55400000D02*
X147000000Y-56000000D01*
X160600000Y-55400000D02*
X147600000Y-55400000D01*
X167000000Y-49000000D02*
X160600000Y-55400000D01*
X176562500Y-49000000D02*
X167000000Y-49000000D01*
%TO.N,c5*%
X160000000Y-55000000D02*
X159000000Y-55000000D01*
X162000000Y-53000000D02*
X160000000Y-55000000D01*
X166400000Y-48600000D02*
X162000000Y-53000000D01*
X176562500Y-48600000D02*
X166400000Y-48600000D01*
X159000000Y-55000000D02*
X146380000Y-55000000D01*
X146380000Y-55000000D02*
X146190000Y-54810000D01*
%TO.N,+3V3*%
X176562500Y-51000000D02*
X174000000Y-51000000D01*
X174000000Y-51000000D02*
X173600000Y-51400000D01*
%TO.N,r1*%
X165800000Y-48200000D02*
X164000000Y-50000000D01*
X176562500Y-48200000D02*
X165800000Y-48200000D01*
%TO.N,r0*%
X170800000Y-47800000D02*
X170000000Y-47000000D01*
X174200000Y-47800000D02*
X170800000Y-47800000D01*
%TO.N,+3V3*%
X174434489Y-47400000D02*
X172999309Y-45964820D01*
X176562500Y-47400000D02*
X174434489Y-47400000D01*
X173000000Y-52000000D02*
X173600000Y-51400000D01*
X172000000Y-53000000D02*
X173000000Y-52000000D01*
X171339411Y-53660589D02*
X172000000Y-53000000D01*
%TO.N,r0*%
X170000000Y-47000000D02*
X170000000Y-46000000D01*
%TO.N,c11*%
X306000000Y-35000000D02*
X306190000Y-34810000D01*
X288000000Y-35000000D02*
X306000000Y-35000000D01*
X287000000Y-36000000D02*
X288000000Y-35000000D01*
X268000000Y-36000000D02*
X287000000Y-36000000D01*
X267000000Y-37000000D02*
X268000000Y-36000000D01*
X248000000Y-37000000D02*
X267000000Y-37000000D01*
X229000000Y-38000000D02*
X247000000Y-38000000D01*
X218000000Y-39000000D02*
X228000000Y-39000000D01*
X217000000Y-40000000D02*
X218000000Y-39000000D01*
X228000000Y-39000000D02*
X229000000Y-38000000D01*
X247000000Y-38000000D02*
X248000000Y-37000000D01*
X200000000Y-40000000D02*
X217000000Y-40000000D01*
X190200000Y-49800000D02*
X200000000Y-40000000D01*
X183437500Y-49800000D02*
X190200000Y-49800000D01*
%TO.N,c10*%
X286000000Y-35000000D02*
X286190000Y-34810000D01*
X268000000Y-35000000D02*
X286000000Y-35000000D01*
X267000000Y-36000000D02*
X268000000Y-35000000D01*
X248000000Y-36000000D02*
X267000000Y-36000000D01*
X247000000Y-37000000D02*
X248000000Y-36000000D01*
X229000000Y-37000000D02*
X247000000Y-37000000D01*
X228000000Y-38000000D02*
X229000000Y-37000000D01*
X218000000Y-38000000D02*
X228000000Y-38000000D01*
X217000000Y-39000000D02*
X218000000Y-38000000D01*
X200000000Y-39000000D02*
X217000000Y-39000000D01*
X189600000Y-49400000D02*
X200000000Y-39000000D01*
X183437500Y-49400000D02*
X189600000Y-49400000D01*
%TO.N,c9*%
X266000000Y-35000000D02*
X266190000Y-34810000D01*
X248000000Y-35000000D02*
X266000000Y-35000000D01*
X247000000Y-36000000D02*
X248000000Y-35000000D01*
X229000000Y-36000000D02*
X247000000Y-36000000D01*
X228000000Y-37000000D02*
X229000000Y-36000000D01*
X218000000Y-37000000D02*
X228000000Y-37000000D01*
X217000000Y-38000000D02*
X218000000Y-37000000D01*
X200000000Y-38000000D02*
X217000000Y-38000000D01*
X189000000Y-49000000D02*
X200000000Y-38000000D01*
X183437500Y-49000000D02*
X189000000Y-49000000D01*
%TO.N,c8*%
X246000000Y-35000000D02*
X246190000Y-34810000D01*
X229000000Y-35000000D02*
X246000000Y-35000000D01*
X228000000Y-36000000D02*
X229000000Y-35000000D01*
X218000000Y-36000000D02*
X228000000Y-36000000D01*
X217000000Y-37000000D02*
X218000000Y-36000000D01*
X200000000Y-37000000D02*
X217000000Y-37000000D01*
X188400000Y-48600000D02*
X200000000Y-37000000D01*
X183437500Y-48600000D02*
X188400000Y-48600000D01*
%TO.N,c7*%
X200000000Y-36000000D02*
X217000000Y-36000000D01*
X217000000Y-36000000D02*
X218190000Y-34810000D01*
X187800000Y-48200000D02*
X200000000Y-36000000D01*
X218190000Y-34810000D02*
X226190000Y-34810000D01*
X183437500Y-48200000D02*
X187800000Y-48200000D01*
%TO.N,c6*%
X206000000Y-35000000D02*
X206190000Y-34810000D01*
X187200000Y-47800000D02*
X200000000Y-35000000D01*
X200000000Y-35000000D02*
X206000000Y-35000000D01*
X183437500Y-47800000D02*
X187200000Y-47800000D01*
%TO.N,r3*%
X196000000Y-90000000D02*
X198000000Y-92000000D01*
X196000000Y-71000000D02*
X196000000Y-90000000D01*
X197000000Y-70000000D02*
X196000000Y-71000000D01*
X197000000Y-58000000D02*
X197000000Y-70000000D01*
X190400000Y-56400000D02*
X195400000Y-56400000D01*
X186600000Y-52600000D02*
X190400000Y-56400000D01*
X183437500Y-52600000D02*
X186600000Y-52600000D01*
X195400000Y-56400000D02*
X197000000Y-58000000D01*
%TO.N,r2*%
X196000000Y-56000000D02*
X198000000Y-58000000D01*
X198000000Y-58000000D02*
X198000000Y-72000000D01*
X187200000Y-52200000D02*
X191000000Y-56000000D01*
X191000000Y-56000000D02*
X196000000Y-56000000D01*
X183437500Y-52200000D02*
X187200000Y-52200000D01*
%TO.N,+3V3*%
X185000000Y-51000000D02*
X187000000Y-51000000D01*
D44*
%TO.N,r2*%
X198000000Y-72000000D02*
X197000000Y-72000000D01*
D43*
%TO.N,RESET*%
X171490000Y-64510000D02*
X171490000Y-65000000D01*
X173000000Y-59000000D02*
X173000000Y-63000000D01*
X174000000Y-56490000D02*
X174000000Y-58000000D01*
X174000000Y-58000000D02*
X173000000Y-59000000D01*
X173000000Y-63000000D02*
X171490000Y-64510000D01*
X178000000Y-55000000D02*
X175490000Y-55000000D01*
X175490000Y-55000000D02*
X174000000Y-56490000D01*
X178200000Y-54800000D02*
X178000000Y-55000000D01*
X178200000Y-53437500D02*
X178200000Y-54800000D01*
D44*
X171490000Y-67650000D02*
X171890000Y-68050000D01*
X171490000Y-65000000D02*
X171490000Y-67650000D01*
%TO.N,+3V3*%
X173000000Y-65000000D02*
X174430000Y-63570000D01*
X172510000Y-65000000D02*
X173000000Y-65000000D01*
X174430000Y-59430000D02*
X174430000Y-63570000D01*
X174430000Y-63570000D02*
X174430000Y-68050000D01*
X174000000Y-59000000D02*
X174430000Y-59430000D01*
%TO.N,GND*%
X175494710Y-66574710D02*
X176970000Y-68050000D01*
X175494710Y-65445510D02*
X175494710Y-66574710D01*
X175445510Y-65445510D02*
X175494710Y-65445510D01*
D43*
%TO.N,SWD*%
X179510000Y-68050000D02*
X179050000Y-68050000D01*
X175000000Y-63000000D02*
X175027843Y-62972157D01*
X179050000Y-68050000D02*
X175000000Y-64000000D01*
X175000000Y-64000000D02*
X175000000Y-63000000D01*
%TO.N,SWCLK*%
X182050000Y-66050000D02*
X182050000Y-68050000D01*
X182000000Y-66000000D02*
X182050000Y-66050000D01*
X177855686Y-66000000D02*
X182000000Y-66000000D01*
X175427843Y-63572157D02*
X177855686Y-66000000D01*
%TO.N,c5*%
X151500000Y-82000000D02*
X160000000Y-82000000D01*
X147500000Y-86000000D02*
X151500000Y-82000000D01*
D44*
%TO.N,r1*%
X163000000Y-50000000D02*
X164000000Y-50000000D01*
X161000000Y-52000000D02*
X163000000Y-50000000D01*
D43*
%TO.N,r0*%
X167000000Y-37000000D02*
X167000000Y-36000000D01*
D44*
X166000000Y-36000000D02*
X167000000Y-36000000D01*
X158000000Y-31650000D02*
X161650000Y-31650000D01*
X161650000Y-31650000D02*
X166000000Y-36000000D01*
D43*
X167000000Y-43000000D02*
X170000000Y-46000000D01*
X167000000Y-37000000D02*
X167000000Y-43000000D01*
X176562500Y-47800000D02*
X174200000Y-47800000D01*
%TO.N,SWCLK*%
X179000000Y-55131372D02*
X179000000Y-53437500D01*
X178331372Y-55800000D02*
X179000000Y-55131372D01*
X175427843Y-56193529D02*
X175821372Y-55800000D01*
X175821372Y-55800000D02*
X178331372Y-55800000D01*
X175427843Y-63572157D02*
X175427843Y-56193529D01*
%TO.N,SWD*%
X178600000Y-54965686D02*
X178600000Y-53437500D01*
X178165686Y-55400000D02*
X178600000Y-54965686D01*
X175655686Y-55400000D02*
X178165686Y-55400000D01*
X175027843Y-56027843D02*
X175655686Y-55400000D01*
X175027843Y-62972157D02*
X175027843Y-56027843D01*
D44*
%TO.N,+3V3*%
X172000000Y-54321178D02*
X171339411Y-53660589D01*
X172000000Y-55000000D02*
X172000000Y-54321178D01*
%TO.N,GND*%
X177345958Y-58345958D02*
X177000000Y-58000000D01*
X178891503Y-58345958D02*
X177345958Y-58345958D01*
D43*
%TO.N,+1V1*%
X178896018Y-56472206D02*
X178496018Y-56472206D01*
X179400000Y-55968224D02*
X178896018Y-56472206D01*
X179400000Y-53437500D02*
X179400000Y-55968224D01*
%TO.N,+3V3*%
X179800000Y-57086077D02*
X179371503Y-57514574D01*
X179800000Y-53437500D02*
X179800000Y-57086077D01*
%TO.N,CLK_OUT*%
X180200000Y-57640000D02*
X181000000Y-58440000D01*
X180200000Y-53437500D02*
X180200000Y-57640000D01*
%TO.N,CLK_IN*%
X180600000Y-56550000D02*
X180600000Y-53437500D01*
X183000000Y-57950000D02*
X182000000Y-57950000D01*
X182000000Y-57950000D02*
X180600000Y-56550000D01*
X185000000Y-60950000D02*
X185000000Y-59950000D01*
X183150000Y-62800000D02*
X185000000Y-60950000D01*
X185000000Y-59950000D02*
X183000000Y-57950000D01*
X183100000Y-62800000D02*
X183150000Y-62800000D01*
%TO.N,GND*%
X186000000Y-59950000D02*
X186000000Y-60690500D01*
X181000000Y-56384314D02*
X182165686Y-57550000D01*
X182165686Y-57550000D02*
X183600000Y-57550000D01*
X183600000Y-57550000D02*
X186000000Y-59950000D01*
X181000000Y-53437500D02*
X181000000Y-56384314D01*
%TO.N,+3V3*%
X177203344Y-51000000D02*
X177444908Y-51241564D01*
D45*
X186095000Y-37905000D02*
X185000000Y-39000000D01*
X172520000Y-38985000D02*
X172520000Y-40000000D01*
D43*
X179800000Y-53437500D02*
X179800000Y-52899196D01*
X177800000Y-46562500D02*
X177800000Y-46280000D01*
X187000000Y-51000000D02*
X187660589Y-51660589D01*
D45*
X172520000Y-42000000D02*
X174000000Y-43480000D01*
X172520000Y-37482500D02*
X172520000Y-38985000D01*
D43*
X179400000Y-46030025D02*
X179400000Y-45400000D01*
X179800000Y-46562500D02*
X179800000Y-47096614D01*
X179800000Y-52899196D02*
X179957650Y-52741546D01*
X177400000Y-47400000D02*
X176562500Y-47400000D01*
X179800000Y-46562500D02*
X179800000Y-45800000D01*
D45*
X172520000Y-37480000D02*
X174000000Y-36000000D01*
D43*
X185000000Y-46480000D02*
X184080000Y-47400000D01*
X183437500Y-51000000D02*
X182624358Y-51000000D01*
X183437500Y-51000000D02*
X185000000Y-51000000D01*
D45*
X186095000Y-37600000D02*
X186095000Y-37905000D01*
D43*
X179800000Y-45800000D02*
X179400000Y-45400000D01*
X179400000Y-43600000D02*
X180000000Y-43000000D01*
X177400000Y-46562500D02*
X177400000Y-45880000D01*
D45*
X172520000Y-37482500D02*
X172520000Y-37480000D01*
D43*
X179400000Y-45400000D02*
X179400000Y-43600000D01*
X179800000Y-47096614D02*
X180067797Y-47364411D01*
X179400000Y-46562500D02*
X179400000Y-46030025D01*
X182624358Y-51000000D02*
X182426894Y-51197464D01*
D45*
X174000000Y-43480000D02*
X175000000Y-43480000D01*
D43*
X179400000Y-43600000D02*
X179000000Y-43200000D01*
X177400000Y-45880000D02*
X175000000Y-43480000D01*
X176562500Y-51000000D02*
X177203344Y-51000000D01*
X183437500Y-47400000D02*
X184080000Y-47400000D01*
X179000000Y-43200000D02*
X179000000Y-42480000D01*
X177800000Y-46280000D02*
X177400000Y-45880000D01*
X186000000Y-46480000D02*
X185000000Y-46480000D01*
X177400000Y-46562500D02*
X177400000Y-47400000D01*
D44*
X172999309Y-43964820D02*
X172999309Y-45964820D01*
D45*
X172520000Y-40000000D02*
X172520000Y-42000000D01*
D44*
%TO.N,GND*%
X186000000Y-44000000D02*
X186000000Y-45520000D01*
X189901780Y-32023070D02*
X189901780Y-30403220D01*
X181876058Y-41123942D02*
X182573112Y-41123942D01*
X176455282Y-42540759D02*
X175540759Y-42540759D01*
X181000000Y-29660618D02*
X181660618Y-29000000D01*
X177156607Y-57811617D02*
X176496018Y-58472206D01*
X186000000Y-60690500D02*
X186000000Y-61470000D01*
D43*
X175680000Y-23680000D02*
X176000000Y-24000000D01*
D44*
X189901780Y-30403220D02*
X189905000Y-30400000D01*
D46*
X182850000Y-61100000D02*
X181150000Y-62800000D01*
D44*
X184000000Y-26000000D02*
X185000000Y-26000000D01*
X175000000Y-42000000D02*
X175000000Y-41000000D01*
X181500000Y-42020000D02*
X181500000Y-41500000D01*
X176000000Y-26000000D02*
X176750000Y-25250000D01*
D46*
X180270000Y-63430000D02*
X180900000Y-62800000D01*
D45*
X172000000Y-32000000D02*
X173520000Y-32000000D01*
D44*
X184000000Y-28510000D02*
X184000000Y-29100695D01*
X179000000Y-41520000D02*
X179020000Y-41500000D01*
D46*
X183100000Y-61100000D02*
X182850000Y-61100000D01*
D44*
X183000000Y-29000000D02*
X183000000Y-29062453D01*
X175000000Y-42520000D02*
X175000000Y-42000000D01*
D45*
X176012500Y-36000000D02*
X175950000Y-35937500D01*
D46*
X178000000Y-63430000D02*
X178000000Y-64950000D01*
D44*
X188339411Y-52339411D02*
X189000000Y-53000000D01*
X183250000Y-25250000D02*
X184000000Y-26000000D01*
X183250000Y-24045000D02*
X183250000Y-25250000D01*
X170519309Y-43964820D02*
X172039309Y-43964820D01*
X176750000Y-25250000D02*
X176750000Y-24045000D01*
X175000000Y-26000000D02*
X176000000Y-26000000D01*
D45*
X178000000Y-36000000D02*
X176012500Y-36000000D01*
D44*
X170000000Y-55000000D02*
X170660589Y-54339411D01*
X172039309Y-43964820D02*
X172039309Y-45964820D01*
X175540759Y-42540759D02*
X175000000Y-42000000D01*
X181000000Y-30137500D02*
X181000000Y-29660618D01*
X181660618Y-29000000D02*
X183000000Y-29000000D01*
D46*
X178000000Y-63430000D02*
X180270000Y-63430000D01*
X181150000Y-62800000D02*
X180900000Y-62800000D01*
D44*
X181500000Y-41500000D02*
X181876058Y-41123942D01*
X183000000Y-29062453D02*
X183519121Y-29581574D01*
D43*
X175680000Y-23130000D02*
X175680000Y-23680000D01*
D44*
X186000000Y-60690500D02*
X186000000Y-60950000D01*
X179020000Y-41500000D02*
X181500000Y-41500000D01*
X184000000Y-29100695D02*
X183519121Y-29581574D01*
D45*
%TO.N,+5V*%
X176000000Y-32000000D02*
X174480000Y-32000000D01*
X176000000Y-33062500D02*
X175000000Y-34062500D01*
D44*
X181000000Y-27862500D02*
X181000000Y-28661024D01*
X180661024Y-29000000D02*
X181000000Y-28661024D01*
X178360618Y-30400000D02*
X176000000Y-30400000D01*
D45*
X176000000Y-33062500D02*
X176000000Y-32000000D01*
X176000000Y-32000000D02*
X176000000Y-31000000D01*
D44*
X179760618Y-29000000D02*
X180661024Y-29000000D01*
X179760618Y-29000000D02*
X178360618Y-30400000D01*
%TO.N,+1V1*%
X180536802Y-43644915D02*
X180835085Y-43644915D01*
D43*
X178496018Y-56472206D02*
X177835429Y-57132795D01*
X178200000Y-46562500D02*
X178200000Y-45245477D01*
X180200000Y-43981717D02*
X180536802Y-43644915D01*
X178838993Y-47838993D02*
X178200000Y-47200000D01*
X179400000Y-52329244D02*
X179399059Y-52328303D01*
X178200000Y-45245477D02*
X176455282Y-43500759D01*
X178889817Y-47838993D02*
X178838993Y-47838993D01*
X180200000Y-46562500D02*
X180200000Y-43981717D01*
X178200000Y-47200000D02*
X178200000Y-46562500D01*
X179400000Y-53437500D02*
X179400000Y-52329244D01*
D44*
X180835085Y-43644915D02*
X181500000Y-42980000D01*
D43*
%TO.N,CLK_IN*%
X183100000Y-62800000D02*
X185630000Y-62800000D01*
X185630000Y-62800000D02*
X186000000Y-62430000D01*
D44*
%TO.N,r0*%
X218000000Y-31650000D02*
X220344017Y-33994017D01*
X298000000Y-31300000D02*
X300694017Y-33994017D01*
X138000000Y-31650000D02*
X135655983Y-33994017D01*
X95655983Y-33994017D02*
X80344017Y-33994017D01*
X78000000Y-31650000D02*
X75655983Y-33994017D01*
X315255983Y-33994017D02*
X318000000Y-31250000D01*
X155655983Y-33994017D02*
X158000000Y-31650000D01*
X135655983Y-33994017D02*
X120344017Y-33994017D01*
X98000000Y-31650000D02*
X100344017Y-33994017D01*
X280694017Y-33994017D02*
X295305983Y-33994017D01*
X100344017Y-33994017D02*
X115655983Y-33994017D01*
X140344017Y-33994017D02*
X155655983Y-33994017D01*
X138000000Y-31650000D02*
X140344017Y-33994017D01*
X98000000Y-31650000D02*
X95655983Y-33994017D01*
X295305983Y-33994017D02*
X298000000Y-31300000D01*
X199994017Y-33994017D02*
X216005983Y-33994017D01*
X216005983Y-33994017D02*
X218000000Y-32000000D01*
X80344017Y-33994017D02*
X78000000Y-31650000D01*
X60344017Y-33994017D02*
X58000000Y-31650000D01*
X278000000Y-31300000D02*
X280694017Y-33994017D01*
X275305983Y-33994017D02*
X278000000Y-31300000D01*
X198000000Y-32000000D02*
X199994017Y-33994017D01*
X300694017Y-33994017D02*
X315255983Y-33994017D01*
X255655983Y-33994017D02*
X258000000Y-31650000D01*
X260344017Y-33994017D02*
X275305983Y-33994017D01*
X120344017Y-33994017D02*
X118000000Y-31650000D01*
X220344017Y-33994017D02*
X235655983Y-33994017D01*
X235655983Y-33994017D02*
X238000000Y-31650000D01*
X258000000Y-31650000D02*
X260344017Y-33994017D01*
X238000000Y-31650000D02*
X240344017Y-33994017D01*
X115655983Y-33994017D02*
X118000000Y-31650000D01*
X75655983Y-33994017D02*
X60344017Y-33994017D01*
X240344017Y-33994017D02*
X255655983Y-33994017D01*
%TO.N,Net-(D1-Pad2)*%
X58000000Y-28350000D02*
X58000000Y-28000000D01*
X58000000Y-28000000D02*
X55500000Y-25500000D01*
X55500000Y-25500000D02*
X52500000Y-25500000D01*
%TO.N,Net-(D2-Pad2)*%
X95350000Y-28350000D02*
X92500000Y-25500000D01*
X98000000Y-28350000D02*
X95350000Y-28350000D01*
%TO.N,Net-(D3-Pad2)*%
X78000000Y-28350000D02*
X75350000Y-28350000D01*
X75350000Y-28350000D02*
X72500000Y-25500000D01*
%TO.N,Net-(D4-Pad2)*%
X118000000Y-28350000D02*
X115350000Y-28350000D01*
X115350000Y-28350000D02*
X112500000Y-25500000D01*
%TO.N,Net-(D5-Pad2)*%
X132500000Y-25500000D02*
X135350000Y-28350000D01*
X135350000Y-28350000D02*
X138000000Y-28350000D01*
%TO.N,Net-(D6-Pad2)*%
X218000000Y-28350000D02*
X215350000Y-28350000D01*
X215350000Y-28350000D02*
X212500000Y-25500000D01*
%TO.N,Net-(D7-Pad2)*%
X255350000Y-28350000D02*
X252500000Y-25500000D01*
X258000000Y-28350000D02*
X255350000Y-28350000D01*
%TO.N,Net-(D8-Pad2)*%
X298000000Y-28000000D02*
X295000000Y-28000000D01*
X295000000Y-28000000D02*
X292500000Y-25500000D01*
%TO.N,Net-(D9-Pad2)*%
X152500000Y-25500000D02*
X155350000Y-28350000D01*
X155350000Y-28350000D02*
X158000000Y-28350000D01*
%TO.N,Net-(D10-Pad2)*%
X235350000Y-28350000D02*
X232500000Y-25500000D01*
X238000000Y-28350000D02*
X235350000Y-28350000D01*
%TO.N,Net-(D11-Pad2)*%
X278000000Y-28000000D02*
X275000000Y-28000000D01*
X275000000Y-28000000D02*
X272500000Y-25500000D01*
%TO.N,Net-(D12-Pad2)*%
X314950000Y-27950000D02*
X318000000Y-27950000D01*
X312500000Y-25500000D02*
X314950000Y-27950000D01*
%TO.N,r1*%
X198000000Y-52000000D02*
X199994017Y-53994017D01*
X78000000Y-52000000D02*
X76005983Y-53994017D01*
X140344017Y-53994017D02*
X156005983Y-53994017D01*
X235655983Y-53994017D02*
X238000000Y-51650000D01*
X95655983Y-53994017D02*
X79994017Y-53994017D01*
X278000000Y-51650000D02*
X280344017Y-53994017D01*
X98000000Y-51650000D02*
X95655983Y-53994017D01*
X315655983Y-53994017D02*
X318000000Y-51650000D01*
X115655983Y-53994017D02*
X100344017Y-53994017D01*
X135655983Y-53994017D02*
X120344017Y-53994017D01*
X60344017Y-53994017D02*
X58000000Y-51650000D01*
X240344017Y-53994017D02*
X255655983Y-53994017D01*
X76005983Y-53994017D02*
X60344017Y-53994017D01*
X276005983Y-53994017D02*
X278000000Y-52000000D01*
X300344017Y-53994017D02*
X315655983Y-53994017D01*
X260344017Y-53994017D02*
X276005983Y-53994017D01*
X79994017Y-53994017D02*
X78000000Y-52000000D01*
X138000000Y-51650000D02*
X135655983Y-53994017D01*
X158000000Y-52000000D02*
X161000000Y-52000000D01*
X218000000Y-51650000D02*
X220344017Y-53994017D01*
X298000000Y-51650000D02*
X300344017Y-53994017D01*
X296005983Y-53994017D02*
X298000000Y-52000000D01*
X199994017Y-53994017D02*
X215655983Y-53994017D01*
X138000000Y-51650000D02*
X140344017Y-53994017D01*
X120344017Y-53994017D02*
X118000000Y-51650000D01*
X255655983Y-53994017D02*
X258000000Y-51650000D01*
X220344017Y-53994017D02*
X235655983Y-53994017D01*
X258000000Y-51650000D02*
X260344017Y-53994017D01*
X215655983Y-53994017D02*
X218000000Y-51650000D01*
X100344017Y-53994017D02*
X98000000Y-51650000D01*
X118000000Y-51650000D02*
X115655983Y-53994017D01*
X156005983Y-53994017D02*
X158000000Y-52000000D01*
X238000000Y-51650000D02*
X240344017Y-53994017D01*
X280344017Y-53994017D02*
X296005983Y-53994017D01*
%TO.N,Net-(D13-Pad2)*%
X58000000Y-48350000D02*
X55350000Y-48350000D01*
X55350000Y-48350000D02*
X52500000Y-45500000D01*
%TO.N,Net-(D14-Pad2)*%
X95350000Y-48350000D02*
X98000000Y-48350000D01*
X92500000Y-45500000D02*
X95350000Y-48350000D01*
%TO.N,Net-(D15-Pad2)*%
X78000000Y-48700000D02*
X75700000Y-48700000D01*
X75700000Y-48700000D02*
X72500000Y-45500000D01*
%TO.N,Net-(D16-Pad2)*%
X112500000Y-45500000D02*
X115350000Y-48350000D01*
X115350000Y-48350000D02*
X118000000Y-48350000D01*
%TO.N,Net-(D17-Pad2)*%
X132500000Y-45500000D02*
X135350000Y-48350000D01*
X135350000Y-48350000D02*
X138000000Y-48350000D01*
%TO.N,Net-(D18-Pad2)*%
X215350000Y-48350000D02*
X212500000Y-45500000D01*
X218000000Y-48350000D02*
X215350000Y-48350000D01*
%TO.N,Net-(D19-Pad2)*%
X255350000Y-48350000D02*
X258000000Y-48350000D01*
X252500000Y-45500000D02*
X255350000Y-48350000D01*
%TO.N,Net-(D20-Pad2)*%
X295350000Y-48350000D02*
X292500000Y-45500000D01*
X298000000Y-48350000D02*
X295350000Y-48350000D01*
%TO.N,Net-(D21-Pad2)*%
X155700000Y-48700000D02*
X152500000Y-45500000D01*
X158000000Y-48700000D02*
X155700000Y-48700000D01*
%TO.N,Net-(D22-Pad2)*%
X238000000Y-48350000D02*
X235350000Y-48350000D01*
X235350000Y-48350000D02*
X232500000Y-45500000D01*
%TO.N,Net-(D23-Pad2)*%
X278000000Y-48350000D02*
X275350000Y-48350000D01*
X275350000Y-48350000D02*
X272500000Y-45500000D01*
%TO.N,Net-(D24-Pad2)*%
X318000000Y-48350000D02*
X315350000Y-48350000D01*
X315350000Y-48350000D02*
X312500000Y-45500000D01*
%TO.N,r2*%
X215655983Y-73994017D02*
X218000000Y-71650000D01*
X78000000Y-71650000D02*
X80344017Y-73994017D01*
X298000000Y-71650000D02*
X300344017Y-73994017D01*
X98000000Y-71650000D02*
X100344017Y-73994017D01*
X218000000Y-71650000D02*
X220344017Y-73994017D01*
X100344017Y-73994017D02*
X116005983Y-73994017D01*
X315655983Y-73994017D02*
X318000000Y-71650000D01*
X156005983Y-73994017D02*
X158000000Y-72000000D01*
X199994017Y-73994017D02*
X215655983Y-73994017D01*
X240344017Y-73994017D02*
X238000000Y-71650000D01*
X220344017Y-73994017D02*
X235655983Y-73994017D01*
X161650000Y-71650000D02*
X162000000Y-72000000D01*
X260344017Y-73994017D02*
X258000000Y-71650000D01*
X76005983Y-73994017D02*
X78000000Y-72000000D01*
X80344017Y-73994017D02*
X96005983Y-73994017D01*
X135655983Y-73994017D02*
X138000000Y-71650000D01*
X58000000Y-71650000D02*
X60344017Y-73994017D01*
X300344017Y-73994017D02*
X315655983Y-73994017D01*
X255655983Y-73994017D02*
X240344017Y-73994017D01*
X120344017Y-73994017D02*
X135655983Y-73994017D01*
X298000000Y-72000000D02*
X298000000Y-71650000D01*
X118000000Y-71650000D02*
X120344017Y-73994017D01*
X138000000Y-71650000D02*
X140344017Y-73994017D01*
X116005983Y-73994017D02*
X118000000Y-72000000D01*
X96005983Y-73994017D02*
X98000000Y-72000000D01*
X278000000Y-71650000D02*
X280344017Y-73994017D01*
X198000000Y-72000000D02*
X199994017Y-73994017D01*
X140344017Y-73994017D02*
X156005983Y-73994017D01*
X258000000Y-71650000D02*
X255655983Y-73994017D01*
X280344017Y-73994017D02*
X296005983Y-73994017D01*
X235655983Y-73994017D02*
X238000000Y-71650000D01*
X60344017Y-73994017D02*
X76005983Y-73994017D01*
X278000000Y-71650000D02*
X275655983Y-73994017D01*
X275655983Y-73994017D02*
X260344017Y-73994017D01*
X158000000Y-71650000D02*
X161650000Y-71650000D01*
X296005983Y-73994017D02*
X298000000Y-72000000D01*
%TO.N,Net-(D25-Pad2)*%
X55350000Y-68350000D02*
X52500000Y-65500000D01*
X58000000Y-68350000D02*
X55350000Y-68350000D01*
%TO.N,Net-(D26-Pad2)*%
X98000000Y-68350000D02*
X95350000Y-68350000D01*
X95350000Y-68350000D02*
X92500000Y-65500000D01*
%TO.N,Net-(D27-Pad2)*%
X78000000Y-68350000D02*
X75350000Y-68350000D01*
X75350000Y-68350000D02*
X72500000Y-65500000D01*
%TO.N,Net-(D28-Pad2)*%
X115350000Y-68350000D02*
X112500000Y-65500000D01*
X118000000Y-68350000D02*
X115350000Y-68350000D01*
%TO.N,Net-(D29-Pad2)*%
X135350000Y-68350000D02*
X132500000Y-65500000D01*
X138000000Y-68350000D02*
X135350000Y-68350000D01*
%TO.N,Net-(D30-Pad2)*%
X218000000Y-68350000D02*
X215350000Y-68350000D01*
X215350000Y-68350000D02*
X212500000Y-65500000D01*
%TO.N,Net-(D31-Pad2)*%
X252500000Y-65500000D02*
X255350000Y-68350000D01*
X255350000Y-68350000D02*
X258000000Y-68350000D01*
%TO.N,Net-(D32-Pad2)*%
X298000000Y-68350000D02*
X295350000Y-68350000D01*
X295350000Y-68350000D02*
X292500000Y-65500000D01*
%TO.N,Net-(D33-Pad2)*%
X158000000Y-68350000D02*
X155350000Y-68350000D01*
X155350000Y-68350000D02*
X152500000Y-65500000D01*
%TO.N,Net-(D34-Pad2)*%
X235350000Y-68350000D02*
X232500000Y-65500000D01*
X238000000Y-68350000D02*
X235350000Y-68350000D01*
%TO.N,Net-(D35-Pad2)*%
X275350000Y-68350000D02*
X278000000Y-68350000D01*
X272500000Y-65500000D02*
X275350000Y-68350000D01*
%TO.N,Net-(D36-Pad2)*%
X315350000Y-68350000D02*
X312500000Y-65500000D01*
X318000000Y-68350000D02*
X315350000Y-68350000D01*
%TO.N,r3*%
X274655983Y-93994017D02*
X278000000Y-90650000D01*
X121344017Y-93994017D02*
X134655983Y-93994017D01*
X95005983Y-93994017D02*
X98000000Y-91000000D01*
X74655983Y-93994017D02*
X61344017Y-93994017D01*
X318000000Y-90650000D02*
X314655983Y-93994017D01*
X238000000Y-90650000D02*
X241344017Y-93994017D01*
X118000000Y-90650000D02*
X114655983Y-93994017D01*
X158000000Y-90650000D02*
X160650000Y-90650000D01*
X278000000Y-90650000D02*
X281344017Y-93994017D01*
X81344017Y-93994017D02*
X95005983Y-93994017D01*
X101344017Y-93994017D02*
X98000000Y-90650000D01*
X261344017Y-93994017D02*
X274655983Y-93994017D01*
X118000000Y-90650000D02*
X121344017Y-93994017D01*
X114655983Y-93994017D02*
X101344017Y-93994017D01*
X241344017Y-93994017D02*
X254655983Y-93994017D01*
X78000000Y-90650000D02*
X81344017Y-93994017D01*
X258000000Y-90650000D02*
X261344017Y-93994017D01*
X221344017Y-93994017D02*
X218000000Y-90650000D01*
X78000000Y-90650000D02*
X74655983Y-93994017D01*
X61344017Y-93994017D02*
X58000000Y-90650000D01*
X254655983Y-93994017D02*
X258000000Y-90650000D01*
X238000000Y-90650000D02*
X234655983Y-93994017D01*
X199994017Y-93994017D02*
X198000000Y-92000000D01*
X314655983Y-93994017D02*
X301344017Y-93994017D01*
X154655983Y-93994017D02*
X141344017Y-93994017D01*
X234655983Y-93994017D02*
X221344017Y-93994017D01*
X218000000Y-90650000D02*
X214655983Y-93994017D01*
X214655983Y-93994017D02*
X199994017Y-93994017D01*
X301344017Y-93994017D02*
X298000000Y-90650000D01*
X158000000Y-90650000D02*
X154655983Y-93994017D01*
X141344017Y-93994017D02*
X138000000Y-90650000D01*
X294655983Y-93994017D02*
X298000000Y-90650000D01*
X281344017Y-93994017D02*
X294655983Y-93994017D01*
X160650000Y-90650000D02*
X162000000Y-92000000D01*
X134655983Y-93994017D02*
X138000000Y-90650000D01*
%TO.N,Net-(D37-Pad2)*%
X54350000Y-87350000D02*
X52500000Y-85500000D01*
X58000000Y-87350000D02*
X54350000Y-87350000D01*
%TO.N,Net-(D38-Pad2)*%
X94350000Y-87350000D02*
X92500000Y-85500000D01*
X98000000Y-87350000D02*
X94350000Y-87350000D01*
%TO.N,Net-(D39-Pad2)*%
X78000000Y-87350000D02*
X74350000Y-87350000D01*
X74350000Y-87350000D02*
X72500000Y-85500000D01*
%TO.N,Net-(D40-Pad2)*%
X112500000Y-85500000D02*
X114350000Y-87350000D01*
X114350000Y-87350000D02*
X118000000Y-87350000D01*
%TO.N,Net-(D41-Pad2)*%
X138000000Y-87350000D02*
X134350000Y-87350000D01*
X134350000Y-87350000D02*
X132500000Y-85500000D01*
%TO.N,Net-(D42-Pad2)*%
X218000000Y-87350000D02*
X214350000Y-87350000D01*
X214350000Y-87350000D02*
X212500000Y-85500000D01*
%TO.N,Net-(D43-Pad2)*%
X258000000Y-87350000D02*
X254350000Y-87350000D01*
X254350000Y-87350000D02*
X252500000Y-85500000D01*
%TO.N,Net-(D44-Pad2)*%
X298000000Y-87350000D02*
X294350000Y-87350000D01*
X294350000Y-87350000D02*
X292500000Y-85500000D01*
%TO.N,Net-(D45-Pad2)*%
X158000000Y-87350000D02*
X154350000Y-87350000D01*
X154350000Y-87350000D02*
X152500000Y-85500000D01*
%TO.N,Net-(D46-Pad2)*%
X238000000Y-87350000D02*
X234350000Y-87350000D01*
X234350000Y-87350000D02*
X232500000Y-85500000D01*
%TO.N,Net-(D47-Pad2)*%
X274350000Y-87350000D02*
X272500000Y-85500000D01*
X278000000Y-87350000D02*
X274350000Y-87350000D01*
%TO.N,Net-(D48-Pad2)*%
X312500000Y-85500000D02*
X314350000Y-87350000D01*
X314350000Y-87350000D02*
X318000000Y-87350000D01*
%TO.N,VBUS*%
X177550000Y-24045000D02*
X177550000Y-22939000D01*
X182374499Y-23969499D02*
X182450000Y-24045000D01*
D45*
X177550000Y-26050000D02*
X177550000Y-24045000D01*
D44*
X182000000Y-22000000D02*
X182374499Y-22374499D01*
X177550000Y-22939000D02*
X178489000Y-22000000D01*
X178489000Y-22000000D02*
X182000000Y-22000000D01*
D45*
X176000000Y-27600000D02*
X177550000Y-26050000D01*
D44*
X182374499Y-22374499D02*
X182374499Y-23969499D01*
D46*
%TO.N,Net-(J2-PadA5)*%
X178750000Y-26740000D02*
X178000000Y-27490000D01*
X178750000Y-24045000D02*
X178750000Y-26740000D01*
%TO.N,USB_DP*%
X180750000Y-25750000D02*
X180430000Y-25750000D01*
X180430000Y-25750000D02*
X179750000Y-25070000D01*
X181950000Y-26950000D02*
X181950000Y-27862500D01*
X179750000Y-25070000D02*
X179750000Y-24045000D01*
X180750000Y-24045000D02*
X180750000Y-25750000D01*
X180750000Y-25750000D02*
X181950000Y-26950000D01*
%TO.N,USB_DN*%
X179250000Y-27062500D02*
X180050000Y-27862500D01*
X179250000Y-24045000D02*
X179250000Y-27062500D01*
X179484500Y-22515500D02*
X179250000Y-22750000D01*
X179250000Y-22750000D02*
X179250000Y-24045000D01*
X180000000Y-22515500D02*
X179484500Y-22515500D01*
X180250000Y-22765500D02*
X180250000Y-24045000D01*
X180250000Y-22765500D02*
X180000000Y-22515500D01*
%TO.N,Net-(J2-PadB5)*%
X181750000Y-24045000D02*
X181750000Y-25240000D01*
X181750000Y-25240000D02*
X184000000Y-27490000D01*
D43*
%TO.N,Net-(R2-Pad1)*%
X177590090Y-43485323D02*
X177590090Y-40053937D01*
X180472022Y-34312805D02*
X181324156Y-33460671D01*
X179000000Y-46562500D02*
X179000000Y-44895233D01*
X177590090Y-40053937D02*
X180472022Y-37172005D01*
X180472022Y-37172005D02*
X180472022Y-34312805D01*
X179000000Y-44895233D02*
X177590090Y-43485323D01*
D44*
%TO.N,DP*%
X181950000Y-31814827D02*
X181324156Y-32440671D01*
X181950000Y-30137500D02*
X181950000Y-31814827D01*
D43*
%TO.N,Net-(R3-Pad1)*%
X178600000Y-46562500D02*
X178600000Y-45079791D01*
X177000000Y-42153223D02*
X177000000Y-40000000D01*
X177190090Y-42343313D02*
X177000000Y-42153223D01*
X178600000Y-45079791D02*
X177190090Y-43669881D01*
X177000000Y-40000000D02*
X180072022Y-36927978D01*
X177190090Y-43669881D02*
X177190090Y-42343313D01*
X180072022Y-36927978D02*
X180072022Y-33470344D01*
D44*
%TO.N,DN*%
X180050000Y-30137500D02*
X180050000Y-32428322D01*
X180050000Y-32428322D02*
X180072022Y-32450344D01*
%TO.N,/~{BOOTSEL}*%
X186034799Y-27394231D02*
X187065769Y-27394231D01*
X187065769Y-27394231D02*
X189460000Y-25000000D01*
%TO.N,QSPI_SS*%
X185313551Y-28115479D02*
X185313551Y-29618551D01*
X185313551Y-29618551D02*
X186095000Y-30400000D01*
D43*
%TO.N,QSPI_SD3*%
X180894831Y-44135415D02*
X181474925Y-44135415D01*
X187365000Y-38635000D02*
X187365000Y-37600000D01*
X180600000Y-44430246D02*
X180894831Y-44135415D01*
X186975340Y-38635000D02*
X187365000Y-38635000D01*
X180600000Y-46562500D02*
X180600000Y-44430246D01*
X181474925Y-44135415D02*
X186975340Y-38635000D01*
%TO.N,QSPI_SCLK*%
X181000000Y-44595932D02*
X181035599Y-44560333D01*
X187141026Y-39035000D02*
X182088013Y-44088013D01*
X188635000Y-37930685D02*
X187530685Y-39035000D01*
X188635000Y-37600000D02*
X188635000Y-37930685D01*
X188635000Y-37930686D02*
X188635000Y-37600000D01*
X181000000Y-45000000D02*
X181000000Y-44595932D01*
X181000000Y-45565686D02*
X181000000Y-45000000D01*
X187530685Y-39035000D02*
X187141026Y-39035000D01*
X181615693Y-44560333D02*
X182088013Y-44088013D01*
X181000000Y-46562500D02*
X181000000Y-45565686D01*
X181035599Y-44560333D02*
X181615693Y-44560333D01*
%TO.N,QSPI_SD0*%
X186370856Y-40370856D02*
X186741712Y-40000000D01*
X187000000Y-40000000D02*
X188000000Y-40000000D01*
X188000000Y-40000000D02*
X189000000Y-39000000D01*
X186741712Y-40000000D02*
X187000000Y-40000000D01*
X181400000Y-46562500D02*
X181400000Y-45180653D01*
X183370856Y-43370856D02*
X186370856Y-40370856D01*
X181636071Y-45105641D02*
X183370856Y-43370856D01*
X189000000Y-39000000D02*
X189905000Y-38095000D01*
X181400000Y-45180653D02*
X181475012Y-45105641D01*
X189905000Y-38095000D02*
X189905000Y-37600000D01*
X181475012Y-45105641D02*
X181636071Y-45105641D01*
%TO.N,QSPI_SD2*%
X186307398Y-41000000D02*
X186906390Y-40401008D01*
X187989671Y-40400000D02*
X189600000Y-40400000D01*
X181800000Y-46562500D02*
X181800000Y-45507398D01*
X188635000Y-31635000D02*
X188635000Y-30400000D01*
X181800000Y-45507398D02*
X186307398Y-41000000D01*
X186907398Y-40400000D02*
X187989671Y-40400000D01*
X189600000Y-40400000D02*
X191000000Y-39000000D01*
X192000000Y-38000000D02*
X192000000Y-37000000D01*
X191000000Y-39000000D02*
X192000000Y-38000000D01*
X192000000Y-37000000D02*
X192000000Y-35000000D01*
X186906390Y-40401008D02*
X186907398Y-40400000D01*
X192000000Y-35000000D02*
X188635000Y-31635000D01*
%TO.N,QSPI_SD1*%
X187000000Y-41000000D02*
X182200000Y-45800000D01*
X187365000Y-30400000D02*
X187365000Y-28635000D01*
X190000000Y-41000000D02*
X187000000Y-41000000D01*
X182200000Y-45800000D02*
X182200000Y-46562500D01*
X192000000Y-34434314D02*
X192400000Y-34834315D01*
X192000000Y-29000000D02*
X192000000Y-34434314D01*
X192400000Y-38600000D02*
X190000000Y-41000000D01*
X191635000Y-28635000D02*
X192000000Y-29000000D01*
X192400000Y-34834315D02*
X192400000Y-38600000D01*
X187365000Y-28635000D02*
X191635000Y-28635000D01*
D46*
%TO.N,Net-(C16-Pad2)*%
X178000000Y-62470000D02*
X179370000Y-61100000D01*
D43*
X181000000Y-59460000D02*
X181000000Y-61000000D01*
D46*
X179370000Y-61100000D02*
X180900000Y-61100000D01*
D43*
X181000000Y-61000000D02*
X180900000Y-61100000D01*
%TD*%
%TA.AperFunction,Conductor*%
%TO.N,+1V1*%
G36*
X179494078Y-52128502D02*
G01*
X179540571Y-52182158D01*
X179550675Y-52252432D01*
X179521181Y-52317012D01*
X179515052Y-52323595D01*
X179403766Y-52434881D01*
X179391375Y-52445748D01*
X179366013Y-52465209D01*
X179364335Y-52463023D01*
X179313893Y-52490567D01*
X179302247Y-52492533D01*
X179216345Y-52502928D01*
X179184670Y-52500892D01*
X179184473Y-52502522D01*
X179104373Y-52492829D01*
X179039149Y-52464789D01*
X178999438Y-52405936D01*
X178993529Y-52365537D01*
X178995861Y-52232295D01*
X179017052Y-52164535D01*
X179071513Y-52118988D01*
X179121842Y-52108500D01*
X179425957Y-52108500D01*
X179494078Y-52128502D01*
G37*
%TD.AperFunction*%
%TA.AperFunction,Conductor*%
G36*
X179398204Y-47559516D02*
G01*
X179419395Y-47576558D01*
X179519242Y-47676405D01*
X179553268Y-47738717D01*
X179548203Y-47809532D01*
X179505656Y-47866368D01*
X179439136Y-47891179D01*
X179430147Y-47891500D01*
X178478104Y-47891500D01*
X178475656Y-47891693D01*
X178475647Y-47891693D01*
X178463247Y-47892669D01*
X178441115Y-47894411D01*
X178434944Y-47896204D01*
X178434938Y-47896205D01*
X178290414Y-47938194D01*
X178290413Y-47938195D01*
X178282801Y-47940406D01*
X178194144Y-47992838D01*
X178188278Y-47996307D01*
X178119462Y-48013767D01*
X178052130Y-47991251D01*
X178007661Y-47935906D01*
X177998141Y-47888728D01*
X177997100Y-47738717D01*
X177996616Y-47668993D01*
X178016145Y-47600737D01*
X178069477Y-47553872D01*
X178122355Y-47542120D01*
X179330043Y-47539653D01*
X179398204Y-47559516D01*
G37*
%TD.AperFunction*%
%TD*%
%TA.AperFunction,Conductor*%
%TO.N,GND*%
G36*
X172694882Y-51228502D02*
G01*
X172741375Y-51282158D01*
X172751479Y-51352432D01*
X172721985Y-51417012D01*
X172715856Y-51423595D01*
X171541523Y-52597928D01*
X171541520Y-52597932D01*
X171383471Y-52755981D01*
X171321159Y-52790007D01*
X171294376Y-52792886D01*
X171236273Y-52792886D01*
X171077571Y-52833634D01*
X170933990Y-52912569D01*
X170905943Y-52936523D01*
X170615345Y-53227121D01*
X170591391Y-53255168D01*
X170588290Y-53260808D01*
X170588289Y-53260810D01*
X170576553Y-53282158D01*
X170512456Y-53398749D01*
X170507615Y-53417604D01*
X170471303Y-53478609D01*
X170416908Y-53508311D01*
X170406611Y-53510955D01*
X170391986Y-53516745D01*
X170282129Y-53577138D01*
X170272186Y-53587138D01*
X170274996Y-53594607D01*
X170471522Y-53791133D01*
X170504469Y-53848893D01*
X170512456Y-53880002D01*
X170516272Y-53886943D01*
X170516273Y-53886946D01*
X170588289Y-54017942D01*
X170591391Y-54023584D01*
X170615345Y-54051630D01*
X170872368Y-54308653D01*
X170906394Y-54370965D01*
X170901329Y-54441780D01*
X170872368Y-54486844D01*
X170660589Y-54698622D01*
X170296838Y-55062374D01*
X170289447Y-55075909D01*
X170295519Y-55084587D01*
X170303535Y-55090127D01*
X170434413Y-55162077D01*
X170449043Y-55167869D01*
X170592263Y-55204643D01*
X170607865Y-55206614D01*
X170755739Y-55206614D01*
X170771341Y-55204643D01*
X170914562Y-55167869D01*
X170929192Y-55162077D01*
X171027137Y-55108232D01*
X171096468Y-55092943D01*
X171163058Y-55117564D01*
X171207395Y-55178874D01*
X171261418Y-55341273D01*
X171265065Y-55347295D01*
X171265066Y-55347297D01*
X171284941Y-55380114D01*
X171355380Y-55496424D01*
X171481382Y-55626902D01*
X171633159Y-55726222D01*
X171639763Y-55728678D01*
X171639765Y-55728679D01*
X171796558Y-55786990D01*
X171796560Y-55786990D01*
X171803168Y-55789448D01*
X171886995Y-55800633D01*
X171975980Y-55812507D01*
X171975984Y-55812507D01*
X171982961Y-55813438D01*
X171989972Y-55812800D01*
X171989976Y-55812800D01*
X172132459Y-55799832D01*
X172163600Y-55796998D01*
X172170302Y-55794820D01*
X172170304Y-55794820D01*
X172329409Y-55743124D01*
X172329412Y-55743123D01*
X172336108Y-55740947D01*
X172491912Y-55648069D01*
X172623266Y-55522982D01*
X172723643Y-55371902D01*
X172788055Y-55202338D01*
X172789035Y-55195366D01*
X172812748Y-55026639D01*
X172812748Y-55026636D01*
X172813299Y-55022717D01*
X172813616Y-55000000D01*
X172793397Y-54819745D01*
X172789546Y-54808685D01*
X172736063Y-54655105D01*
X172733745Y-54648448D01*
X172718145Y-54623482D01*
X172699000Y-54556714D01*
X172699000Y-54349777D01*
X172699292Y-54341207D01*
X172702654Y-54291901D01*
X172702654Y-54291897D01*
X172703170Y-54284326D01*
X172701865Y-54276850D01*
X172701865Y-54276846D01*
X172692337Y-54222254D01*
X172691374Y-54215729D01*
X172684722Y-54160760D01*
X172684721Y-54160758D01*
X172683809Y-54153218D01*
X172681125Y-54146116D01*
X172680281Y-54142678D01*
X172676417Y-54128555D01*
X172675387Y-54125143D01*
X172674081Y-54117661D01*
X172671029Y-54110708D01*
X172671027Y-54110702D01*
X172648763Y-54059984D01*
X172646270Y-54053876D01*
X172646084Y-54053382D01*
X172624006Y-53994956D01*
X172619701Y-53988692D01*
X172618045Y-53985525D01*
X172610940Y-53972760D01*
X172609132Y-53969703D01*
X172606078Y-53962745D01*
X172567740Y-53912782D01*
X172563862Y-53907445D01*
X172532481Y-53861785D01*
X172532479Y-53861783D01*
X172528179Y-53855526D01*
X172520736Y-53848894D01*
X172482312Y-53814660D01*
X172477036Y-53809679D01*
X172353048Y-53685691D01*
X172319022Y-53623379D01*
X172324087Y-53552564D01*
X172353048Y-53507501D01*
X174215144Y-51645405D01*
X174277456Y-51611379D01*
X174304239Y-51608500D01*
X175490500Y-51608500D01*
X175558621Y-51628502D01*
X175605114Y-51682158D01*
X175616500Y-51734500D01*
X175616500Y-51893392D01*
X175616956Y-51897157D01*
X175627522Y-51984473D01*
X175624661Y-51984819D01*
X175624661Y-52015181D01*
X175627522Y-52015527D01*
X175616500Y-52106608D01*
X175616500Y-52293392D01*
X175616956Y-52297157D01*
X175627522Y-52384473D01*
X175624661Y-52384819D01*
X175624661Y-52415181D01*
X175627522Y-52415527D01*
X175616500Y-52506608D01*
X175616500Y-52693392D01*
X175627522Y-52784473D01*
X175683852Y-52926747D01*
X175776368Y-53048632D01*
X175898253Y-53141148D01*
X176040527Y-53197478D01*
X176048565Y-53198451D01*
X176048566Y-53198451D01*
X176073338Y-53201449D01*
X176131608Y-53208500D01*
X176665500Y-53208500D01*
X176733621Y-53228502D01*
X176780114Y-53282158D01*
X176791500Y-53334500D01*
X176791500Y-53868392D01*
X176802522Y-53959473D01*
X176858852Y-54101747D01*
X176925324Y-54189320D01*
X176950577Y-54255674D01*
X176935949Y-54325147D01*
X176886082Y-54375682D01*
X176824961Y-54391500D01*
X175538136Y-54391500D01*
X175521690Y-54390422D01*
X175498188Y-54387328D01*
X175490000Y-54386250D01*
X175481812Y-54387328D01*
X175450129Y-54391499D01*
X175450120Y-54391500D01*
X175450115Y-54391500D01*
X175331150Y-54407162D01*
X175264658Y-54434704D01*
X175183124Y-54468476D01*
X175176573Y-54473503D01*
X175176571Y-54473504D01*
X175158274Y-54487544D01*
X175087928Y-54541523D01*
X175087925Y-54541526D01*
X175056013Y-54566013D01*
X175050983Y-54572568D01*
X175036548Y-54591379D01*
X175025681Y-54603770D01*
X173603766Y-56025685D01*
X173591375Y-56036552D01*
X173566013Y-56056013D01*
X173541526Y-56087925D01*
X173541523Y-56087928D01*
X173468476Y-56183124D01*
X173407162Y-56331149D01*
X173407162Y-56331150D01*
X173405414Y-56344426D01*
X173395612Y-56418879D01*
X173391500Y-56450115D01*
X173391500Y-56450120D01*
X173386250Y-56490000D01*
X173387328Y-56498188D01*
X173390422Y-56521690D01*
X173391500Y-56538136D01*
X173391500Y-57695761D01*
X173371498Y-57763882D01*
X173354595Y-57784856D01*
X172603766Y-58535685D01*
X172591375Y-58546552D01*
X172566013Y-58566013D01*
X172541526Y-58597925D01*
X172541523Y-58597928D01*
X172523562Y-58621335D01*
X172476518Y-58682644D01*
X172468476Y-58693124D01*
X172416028Y-58819745D01*
X172407162Y-58841150D01*
X172391500Y-58960115D01*
X172391500Y-58960120D01*
X172386250Y-59000000D01*
X172387328Y-59008188D01*
X172390422Y-59031690D01*
X172391500Y-59048136D01*
X172391500Y-62695761D01*
X172371498Y-62763882D01*
X172354595Y-62784856D01*
X171093766Y-64045685D01*
X171081375Y-64056552D01*
X171056013Y-64076013D01*
X171031526Y-64107925D01*
X171031523Y-64107928D01*
X170958476Y-64203124D01*
X170955316Y-64210754D01*
X170900689Y-64342634D01*
X170898523Y-64347863D01*
X170871207Y-64388746D01*
X170842494Y-64417459D01*
X170759731Y-64557404D01*
X170714371Y-64713534D01*
X170711500Y-64750011D01*
X170711501Y-65249988D01*
X170714371Y-65286466D01*
X170716168Y-65292650D01*
X170750355Y-65410322D01*
X170759731Y-65442596D01*
X170773168Y-65465316D01*
X170773454Y-65465800D01*
X170791000Y-65529938D01*
X170791000Y-67211350D01*
X170769088Y-67282354D01*
X170704743Y-67376680D01*
X170610688Y-67579305D01*
X170550989Y-67794570D01*
X170527251Y-68016695D01*
X170540110Y-68239715D01*
X170541247Y-68244761D01*
X170541248Y-68244767D01*
X170562275Y-68338069D01*
X170589222Y-68457639D01*
X170673266Y-68664616D01*
X170710685Y-68725678D01*
X170787291Y-68850688D01*
X170789987Y-68855088D01*
X170936250Y-69023938D01*
X171108126Y-69166632D01*
X171301000Y-69279338D01*
X171509692Y-69359030D01*
X171514760Y-69360061D01*
X171514763Y-69360062D01*
X171609862Y-69379410D01*
X171728597Y-69403567D01*
X171733772Y-69403757D01*
X171733774Y-69403757D01*
X171946673Y-69411564D01*
X171946677Y-69411564D01*
X171951837Y-69411753D01*
X171956957Y-69411097D01*
X171956959Y-69411097D01*
X172168288Y-69384025D01*
X172168289Y-69384025D01*
X172173416Y-69383368D01*
X172178366Y-69381883D01*
X172382429Y-69320661D01*
X172382434Y-69320659D01*
X172387384Y-69319174D01*
X172587994Y-69220896D01*
X172769860Y-69091173D01*
X172928096Y-68933489D01*
X172987594Y-68850689D01*
X173058453Y-68752077D01*
X173059776Y-68753028D01*
X173106645Y-68709857D01*
X173176580Y-68697625D01*
X173242026Y-68725144D01*
X173269875Y-68756994D01*
X173329987Y-68855088D01*
X173476250Y-69023938D01*
X173648126Y-69166632D01*
X173841000Y-69279338D01*
X174049692Y-69359030D01*
X174054760Y-69360061D01*
X174054763Y-69360062D01*
X174149862Y-69379410D01*
X174268597Y-69403567D01*
X174273772Y-69403757D01*
X174273774Y-69403757D01*
X174486673Y-69411564D01*
X174486677Y-69411564D01*
X174491837Y-69411753D01*
X174496957Y-69411097D01*
X174496959Y-69411097D01*
X174708288Y-69384025D01*
X174708289Y-69384025D01*
X174713416Y-69383368D01*
X174718366Y-69381883D01*
X174922429Y-69320661D01*
X174922434Y-69320659D01*
X174927384Y-69319174D01*
X175127994Y-69220896D01*
X175309860Y-69091173D01*
X175468096Y-68933489D01*
X175527594Y-68850689D01*
X175598453Y-68752077D01*
X175599640Y-68752930D01*
X175646960Y-68709362D01*
X175716897Y-68697145D01*
X175782338Y-68724678D01*
X175810166Y-68756511D01*
X175867694Y-68850388D01*
X175873777Y-68858699D01*
X176013213Y-69019667D01*
X176020580Y-69026883D01*
X176184434Y-69162916D01*
X176192881Y-69168831D01*
X176376756Y-69276279D01*
X176386042Y-69280729D01*
X176585001Y-69356703D01*
X176594899Y-69359579D01*
X176698250Y-69380606D01*
X176712299Y-69379410D01*
X176716000Y-69369065D01*
X176716000Y-67922000D01*
X176736002Y-67853879D01*
X176789658Y-67807386D01*
X176842000Y-67796000D01*
X177098000Y-67796000D01*
X177166121Y-67816002D01*
X177212614Y-67869658D01*
X177224000Y-67922000D01*
X177224000Y-69368517D01*
X177228064Y-69382359D01*
X177241478Y-69384393D01*
X177248184Y-69383534D01*
X177258262Y-69381392D01*
X177462255Y-69320191D01*
X177471842Y-69316433D01*
X177663095Y-69222739D01*
X177671945Y-69217464D01*
X177845328Y-69093792D01*
X177853200Y-69087139D01*
X178004052Y-68936812D01*
X178010730Y-68928965D01*
X178138022Y-68751819D01*
X178139279Y-68752722D01*
X178186373Y-68709362D01*
X178256311Y-68697145D01*
X178321751Y-68724678D01*
X178349579Y-68756511D01*
X178409987Y-68855088D01*
X178556250Y-69023938D01*
X178728126Y-69166632D01*
X178921000Y-69279338D01*
X179129692Y-69359030D01*
X179134760Y-69360061D01*
X179134763Y-69360062D01*
X179229862Y-69379410D01*
X179348597Y-69403567D01*
X179353772Y-69403757D01*
X179353774Y-69403757D01*
X179566673Y-69411564D01*
X179566677Y-69411564D01*
X179571837Y-69411753D01*
X179576957Y-69411097D01*
X179576959Y-69411097D01*
X179788288Y-69384025D01*
X179788289Y-69384025D01*
X179793416Y-69383368D01*
X179798366Y-69381883D01*
X180002429Y-69320661D01*
X180002434Y-69320659D01*
X180007384Y-69319174D01*
X180207994Y-69220896D01*
X180389860Y-69091173D01*
X180498091Y-68983319D01*
X180560462Y-68949404D01*
X180631268Y-68954592D01*
X180688030Y-68997238D01*
X180705012Y-69028341D01*
X180749385Y-69146705D01*
X180836739Y-69263261D01*
X180953295Y-69350615D01*
X181089684Y-69401745D01*
X181151866Y-69408500D01*
X182948134Y-69408500D01*
X183010316Y-69401745D01*
X183146705Y-69350615D01*
X183263261Y-69263261D01*
X183350615Y-69146705D01*
X183401745Y-69010316D01*
X183408500Y-68948134D01*
X183408500Y-67151866D01*
X183401745Y-67089684D01*
X183350615Y-66953295D01*
X183263261Y-66836739D01*
X183146705Y-66749385D01*
X183010316Y-66698255D01*
X182948134Y-66691500D01*
X182784500Y-66691500D01*
X182716379Y-66671498D01*
X182669886Y-66617842D01*
X182658500Y-66565500D01*
X182658500Y-66098144D01*
X182659578Y-66081698D01*
X182662673Y-66058188D01*
X182663751Y-66050000D01*
X182642838Y-65891149D01*
X182581524Y-65743124D01*
X182508478Y-65647929D01*
X182508474Y-65647925D01*
X182483987Y-65616013D01*
X182468855Y-65604402D01*
X182445598Y-65581145D01*
X182433987Y-65566013D01*
X182402075Y-65541526D01*
X182402072Y-65541523D01*
X182329995Y-65486216D01*
X182313429Y-65473504D01*
X182313427Y-65473503D01*
X182306876Y-65468476D01*
X182158851Y-65407162D01*
X182150664Y-65406084D01*
X182150663Y-65406084D01*
X182139458Y-65404609D01*
X182108262Y-65400502D01*
X182039885Y-65391500D01*
X182039882Y-65391500D01*
X182039874Y-65391499D01*
X182008189Y-65387328D01*
X182000000Y-65386250D01*
X181968307Y-65390422D01*
X181951864Y-65391500D01*
X178159925Y-65391500D01*
X178091804Y-65371498D01*
X178070830Y-65354595D01*
X176412106Y-63695871D01*
X177191776Y-63695871D01*
X177228357Y-63821784D01*
X177234604Y-63836220D01*
X177309876Y-63963499D01*
X177319516Y-63975926D01*
X177424074Y-64080484D01*
X177436501Y-64090124D01*
X177563780Y-64165396D01*
X177578216Y-64171643D01*
X177721641Y-64213312D01*
X177729609Y-64214768D01*
X177743031Y-64211948D01*
X177746000Y-64200487D01*
X177746000Y-64198424D01*
X178254000Y-64198424D01*
X178258344Y-64213219D01*
X178268775Y-64215063D01*
X178278359Y-64213312D01*
X178421784Y-64171643D01*
X178436220Y-64165396D01*
X178563499Y-64090124D01*
X178575926Y-64080484D01*
X178680484Y-63975926D01*
X178690124Y-63963499D01*
X178765396Y-63836220D01*
X178771643Y-63821784D01*
X178806619Y-63701395D01*
X178806579Y-63687295D01*
X178799309Y-63684000D01*
X178272115Y-63684000D01*
X178256876Y-63688475D01*
X178255671Y-63689865D01*
X178254000Y-63697548D01*
X178254000Y-64198424D01*
X177746000Y-64198424D01*
X177746000Y-63702115D01*
X177741525Y-63686876D01*
X177740135Y-63685671D01*
X177732452Y-63684000D01*
X177206442Y-63684000D01*
X177192911Y-63687973D01*
X177191776Y-63695871D01*
X176412106Y-63695871D01*
X176160904Y-63444669D01*
X179692001Y-63444669D01*
X179692371Y-63451490D01*
X179697895Y-63502352D01*
X179701521Y-63517604D01*
X179746676Y-63638054D01*
X179755214Y-63653649D01*
X179831715Y-63755724D01*
X179844276Y-63768285D01*
X179946351Y-63844786D01*
X179961946Y-63853324D01*
X180082394Y-63898478D01*
X180097649Y-63902105D01*
X180148514Y-63907631D01*
X180155328Y-63908000D01*
X180627885Y-63908000D01*
X180643124Y-63903525D01*
X180644329Y-63902135D01*
X180646000Y-63894452D01*
X180646000Y-63072115D01*
X180641525Y-63056876D01*
X180640135Y-63055671D01*
X180632452Y-63054000D01*
X179710116Y-63054000D01*
X179694877Y-63058475D01*
X179693672Y-63059865D01*
X179692001Y-63067548D01*
X179692001Y-63444669D01*
X176160904Y-63444669D01*
X176073248Y-63357013D01*
X176039222Y-63294701D01*
X176036343Y-63267918D01*
X176036343Y-59153418D01*
X178723626Y-59153418D01*
X178731740Y-59160231D01*
X178740906Y-59163505D01*
X178885957Y-59199132D01*
X178901583Y-59200940D01*
X179049440Y-59199392D01*
X179065028Y-59197257D01*
X179207866Y-59158983D01*
X179222412Y-59153047D01*
X179351249Y-59080450D01*
X179363873Y-59071074D01*
X179454357Y-58984305D01*
X179461374Y-58972070D01*
X179456727Y-58965584D01*
X179000162Y-58701986D01*
X178984727Y-58698241D01*
X178982987Y-58698844D01*
X178977700Y-58704660D01*
X178727261Y-59138432D01*
X178723626Y-59153418D01*
X176036343Y-59153418D01*
X176036343Y-58548114D01*
X176785464Y-58548114D01*
X176791536Y-58556793D01*
X176799553Y-58562333D01*
X176930431Y-58634283D01*
X176945061Y-58640075D01*
X177088281Y-58676849D01*
X177103883Y-58678820D01*
X177251757Y-58678820D01*
X177267359Y-58676849D01*
X177410580Y-58640075D01*
X177425210Y-58634283D01*
X177535067Y-58573890D01*
X177545010Y-58563890D01*
X177542200Y-58556421D01*
X177169418Y-58183638D01*
X177155475Y-58176025D01*
X177153641Y-58176156D01*
X177147028Y-58180407D01*
X176792853Y-58534582D01*
X176785464Y-58548114D01*
X176036343Y-58548114D01*
X176036343Y-57864341D01*
X176289404Y-57864341D01*
X176291375Y-57879943D01*
X176328149Y-58023163D01*
X176333941Y-58037793D01*
X176405891Y-58168671D01*
X176410497Y-58175336D01*
X176421981Y-58182833D01*
X176432187Y-58176826D01*
X176784586Y-57824428D01*
X176792199Y-57810485D01*
X176792068Y-57808651D01*
X176787817Y-57802037D01*
X176415869Y-57430090D01*
X176403494Y-57423333D01*
X176397106Y-57428115D01*
X176333941Y-57543014D01*
X176328149Y-57557644D01*
X176291375Y-57700865D01*
X176289404Y-57716467D01*
X176289404Y-57864341D01*
X176036343Y-57864341D01*
X176036343Y-56534500D01*
X176056345Y-56466379D01*
X176110001Y-56419886D01*
X176162343Y-56408500D01*
X177098000Y-56408500D01*
X177166121Y-56428502D01*
X177212614Y-56482158D01*
X177222718Y-56552432D01*
X177193224Y-56617012D01*
X177187095Y-56623595D01*
X177111363Y-56699327D01*
X177087409Y-56727374D01*
X177084308Y-56733014D01*
X177084307Y-56733016D01*
X177041163Y-56811495D01*
X177008474Y-56870955D01*
X177003633Y-56889810D01*
X176967321Y-56950815D01*
X176912926Y-56980517D01*
X176902629Y-56983161D01*
X176888004Y-56988951D01*
X176778147Y-57049344D01*
X176768204Y-57059344D01*
X176771014Y-57066813D01*
X176967540Y-57263339D01*
X177000487Y-57321099D01*
X177008474Y-57352208D01*
X177012290Y-57359149D01*
X177012291Y-57359152D01*
X177043168Y-57415316D01*
X177087409Y-57495790D01*
X177111363Y-57523836D01*
X177444388Y-57856861D01*
X177472434Y-57880815D01*
X177478074Y-57883916D01*
X177478076Y-57883917D01*
X177609072Y-57955933D01*
X177609075Y-57955934D01*
X177616016Y-57959750D01*
X177647125Y-57967737D01*
X177704885Y-58000684D01*
X177897341Y-58193140D01*
X177929413Y-58210653D01*
X177960053Y-58217318D01*
X178010256Y-58267520D01*
X178025662Y-58326588D01*
X178027089Y-58462921D01*
X178029222Y-58478496D01*
X178067495Y-58621335D01*
X178073435Y-58635892D01*
X178146029Y-58764722D01*
X178155405Y-58777347D01*
X178258782Y-58885148D01*
X178264954Y-58890392D01*
X178277987Y-58894660D01*
X178286291Y-58886216D01*
X178547386Y-58433988D01*
X178694283Y-58179554D01*
X178745666Y-58130561D01*
X178815379Y-58117125D01*
X178866402Y-58133435D01*
X179181188Y-58315177D01*
X179183412Y-58316238D01*
X179183420Y-58316242D01*
X179197820Y-58323110D01*
X179214479Y-58331056D01*
X179220728Y-58332591D01*
X179220731Y-58332592D01*
X179365901Y-58368250D01*
X179365906Y-58368251D01*
X179373598Y-58370140D01*
X179381525Y-58370057D01*
X179405713Y-58369804D01*
X179470031Y-58386678D01*
X179705744Y-58522767D01*
X179719449Y-58526092D01*
X179724382Y-58519819D01*
X179755657Y-58392486D01*
X179757465Y-58376857D01*
X179757354Y-58366228D01*
X179776643Y-58297902D01*
X179821502Y-58255133D01*
X179823309Y-58254115D01*
X179892477Y-58238106D01*
X179959320Y-58262033D01*
X179974249Y-58274798D01*
X180134596Y-58435145D01*
X180168622Y-58497457D01*
X180171501Y-58524240D01*
X180171501Y-58639988D01*
X180174371Y-58676466D01*
X180219731Y-58832596D01*
X180223767Y-58839421D01*
X180223769Y-58839425D01*
X180251231Y-58885861D01*
X180268691Y-58954677D01*
X180251231Y-59014139D01*
X180223769Y-59060575D01*
X180223767Y-59060579D01*
X180219731Y-59067404D01*
X180174371Y-59223534D01*
X180173867Y-59229941D01*
X180173866Y-59229945D01*
X180171693Y-59257556D01*
X180171500Y-59260011D01*
X180171501Y-59659988D01*
X180174371Y-59696466D01*
X180201880Y-59791150D01*
X180214882Y-59835904D01*
X180214679Y-59906900D01*
X180176125Y-59966516D01*
X180107495Y-59996320D01*
X180106069Y-59996475D01*
X180089684Y-59998255D01*
X179953295Y-60049385D01*
X179836739Y-60136739D01*
X179749385Y-60253295D01*
X179746233Y-60261703D01*
X179700112Y-60384730D01*
X179657470Y-60441494D01*
X179590909Y-60466194D01*
X179582130Y-60466500D01*
X179448768Y-60466500D01*
X179437585Y-60465973D01*
X179430092Y-60464298D01*
X179422166Y-60464547D01*
X179422165Y-60464547D01*
X179362002Y-60466438D01*
X179358044Y-60466500D01*
X179330144Y-60466500D01*
X179326154Y-60467004D01*
X179314320Y-60467936D01*
X179270111Y-60469326D01*
X179262495Y-60471539D01*
X179262493Y-60471539D01*
X179250652Y-60474979D01*
X179231293Y-60478988D01*
X179229983Y-60479154D01*
X179211203Y-60481526D01*
X179203837Y-60484442D01*
X179203831Y-60484444D01*
X179170098Y-60497800D01*
X179158868Y-60501645D01*
X179124017Y-60511770D01*
X179116407Y-60513981D01*
X179109584Y-60518016D01*
X179098966Y-60524295D01*
X179081213Y-60532992D01*
X179073568Y-60536019D01*
X179062383Y-60540448D01*
X179055968Y-60545109D01*
X179026612Y-60566437D01*
X179016695Y-60572951D01*
X178978638Y-60595458D01*
X178964317Y-60609779D01*
X178949284Y-60622619D01*
X178932893Y-60634528D01*
X178927842Y-60640634D01*
X178904702Y-60668605D01*
X178896722Y-60677374D01*
X177929498Y-61644597D01*
X177867188Y-61678621D01*
X177840405Y-61681500D01*
X177764516Y-61681500D01*
X177762068Y-61681693D01*
X177762060Y-61681693D01*
X177734156Y-61683889D01*
X177734151Y-61683890D01*
X177727746Y-61684394D01*
X177628995Y-61713084D01*
X177578016Y-61727894D01*
X177578014Y-61727895D01*
X177570403Y-61730106D01*
X177563581Y-61734141D01*
X177563580Y-61734141D01*
X177459344Y-61795786D01*
X177429371Y-61813512D01*
X177313512Y-61929371D01*
X177309478Y-61936192D01*
X177243611Y-62047568D01*
X177230106Y-62070403D01*
X177184394Y-62227746D01*
X177181500Y-62264516D01*
X177181500Y-62675484D01*
X177181693Y-62677932D01*
X177181693Y-62677940D01*
X177183096Y-62695761D01*
X177184394Y-62712254D01*
X177230106Y-62869597D01*
X177234143Y-62876423D01*
X177240015Y-62886353D01*
X177257474Y-62955170D01*
X177240016Y-63014628D01*
X177234605Y-63023778D01*
X177228357Y-63038216D01*
X177193381Y-63158605D01*
X177193421Y-63172705D01*
X177200691Y-63176000D01*
X177478621Y-63176000D01*
X177542760Y-63193546D01*
X177570403Y-63209894D01*
X177578014Y-63212105D01*
X177578016Y-63212106D01*
X177600025Y-63218500D01*
X177727746Y-63255606D01*
X177734151Y-63256110D01*
X177734156Y-63256111D01*
X177762060Y-63258307D01*
X177762068Y-63258307D01*
X177764516Y-63258500D01*
X178235484Y-63258500D01*
X178237932Y-63258307D01*
X178237940Y-63258307D01*
X178265844Y-63256111D01*
X178265849Y-63256110D01*
X178272254Y-63255606D01*
X178399975Y-63218500D01*
X178421984Y-63212106D01*
X178421986Y-63212105D01*
X178429597Y-63209894D01*
X178457240Y-63193546D01*
X178521379Y-63176000D01*
X178793558Y-63176000D01*
X178807089Y-63172027D01*
X178808224Y-63164129D01*
X178771643Y-63038216D01*
X178765395Y-63023778D01*
X178759984Y-63014628D01*
X178742526Y-62945812D01*
X178759985Y-62886353D01*
X178765857Y-62876423D01*
X178769894Y-62869597D01*
X178815606Y-62712254D01*
X178816905Y-62695761D01*
X178818307Y-62677940D01*
X178818307Y-62677932D01*
X178818500Y-62675484D01*
X178818500Y-62599594D01*
X178838502Y-62531473D01*
X178855405Y-62510499D01*
X179520974Y-61844930D01*
X179583286Y-61810904D01*
X179654101Y-61815969D01*
X179710937Y-61858516D01*
X179728051Y-61889796D01*
X179734308Y-61906487D01*
X179739488Y-61977294D01*
X179734306Y-61994941D01*
X179701522Y-62082391D01*
X179697895Y-62097649D01*
X179692369Y-62148514D01*
X179692000Y-62155328D01*
X179692000Y-62527885D01*
X179696475Y-62543124D01*
X179697865Y-62544329D01*
X179705548Y-62546000D01*
X181028000Y-62546000D01*
X181096121Y-62566002D01*
X181142614Y-62619658D01*
X181154000Y-62672000D01*
X181154000Y-63889884D01*
X181158475Y-63905123D01*
X181159865Y-63906328D01*
X181167548Y-63907999D01*
X181644669Y-63907999D01*
X181651490Y-63907629D01*
X181702352Y-63902105D01*
X181717604Y-63898479D01*
X181838054Y-63853324D01*
X181853648Y-63844786D01*
X181924018Y-63792047D01*
X181990524Y-63767199D01*
X182059907Y-63782252D01*
X182075148Y-63792047D01*
X182153295Y-63850615D01*
X182289684Y-63901745D01*
X182351866Y-63908500D01*
X183848134Y-63908500D01*
X183910316Y-63901745D01*
X184046705Y-63850615D01*
X184163261Y-63763261D01*
X184250615Y-63646705D01*
X184301745Y-63510316D01*
X184302372Y-63504547D01*
X184337126Y-63443709D01*
X184400081Y-63410887D01*
X184424493Y-63408500D01*
X185581864Y-63408500D01*
X185598307Y-63409578D01*
X185630000Y-63413750D01*
X185638189Y-63412672D01*
X185669874Y-63408501D01*
X185669884Y-63408500D01*
X185669885Y-63408500D01*
X185773271Y-63394889D01*
X185780664Y-63393916D01*
X185780666Y-63393916D01*
X185788851Y-63392838D01*
X185936876Y-63331524D01*
X185984865Y-63294701D01*
X186032068Y-63258480D01*
X186032072Y-63258477D01*
X186032075Y-63258474D01*
X186050238Y-63244537D01*
X186116458Y-63218937D01*
X186126941Y-63218500D01*
X186235484Y-63218500D01*
X186237932Y-63218307D01*
X186237940Y-63218307D01*
X186265844Y-63216111D01*
X186265849Y-63216110D01*
X186272254Y-63215606D01*
X186408580Y-63176000D01*
X186421984Y-63172106D01*
X186421986Y-63172105D01*
X186429597Y-63169894D01*
X186448272Y-63158850D01*
X186563808Y-63090522D01*
X186570629Y-63086488D01*
X186686488Y-62970629D01*
X186746238Y-62869597D01*
X186765859Y-62836420D01*
X186765859Y-62836419D01*
X186769894Y-62829597D01*
X186815606Y-62672254D01*
X186818500Y-62635484D01*
X186818500Y-62224516D01*
X186818268Y-62221569D01*
X186816111Y-62194156D01*
X186816110Y-62194151D01*
X186815606Y-62187746D01*
X186774881Y-62047568D01*
X186772106Y-62038016D01*
X186772105Y-62038014D01*
X186769894Y-62030403D01*
X186759985Y-62013647D01*
X186742526Y-61944830D01*
X186759984Y-61885372D01*
X186765395Y-61876222D01*
X186771643Y-61861784D01*
X186806619Y-61741395D01*
X186806579Y-61727295D01*
X186799309Y-61724000D01*
X186521379Y-61724000D01*
X186457240Y-61706454D01*
X186436420Y-61694141D01*
X186436419Y-61694141D01*
X186429597Y-61690106D01*
X186421986Y-61687895D01*
X186421984Y-61687894D01*
X186371005Y-61673084D01*
X186272254Y-61644394D01*
X186265849Y-61643890D01*
X186265844Y-61643889D01*
X186237940Y-61641693D01*
X186237932Y-61641693D01*
X186235484Y-61641500D01*
X185872000Y-61641500D01*
X185803879Y-61621498D01*
X185757386Y-61567842D01*
X185746000Y-61515500D01*
X185746000Y-61197885D01*
X186254000Y-61197885D01*
X186258475Y-61213124D01*
X186259865Y-61214329D01*
X186267548Y-61216000D01*
X186793558Y-61216000D01*
X186807089Y-61212027D01*
X186808224Y-61204129D01*
X186771643Y-61078216D01*
X186765396Y-61063780D01*
X186690124Y-60936501D01*
X186680484Y-60924074D01*
X186575926Y-60819516D01*
X186563499Y-60809876D01*
X186436220Y-60734604D01*
X186421784Y-60728357D01*
X186278359Y-60686688D01*
X186270391Y-60685232D01*
X186256969Y-60688052D01*
X186254000Y-60699513D01*
X186254000Y-61197885D01*
X185746000Y-61197885D01*
X185746000Y-60701576D01*
X185741656Y-60686781D01*
X185714187Y-60681926D01*
X185714985Y-60677412D01*
X185674888Y-60668982D01*
X185624337Y-60619132D01*
X185608500Y-60557976D01*
X185608500Y-59998136D01*
X185609578Y-59981690D01*
X185612672Y-59958188D01*
X185613750Y-59950000D01*
X185608500Y-59910120D01*
X185608500Y-59910115D01*
X185608077Y-59906900D01*
X185593916Y-59799336D01*
X185593915Y-59799334D01*
X185592838Y-59791150D01*
X185592133Y-59789448D01*
X185531524Y-59643124D01*
X185458477Y-59547928D01*
X185458474Y-59547925D01*
X185433987Y-59516013D01*
X185427432Y-59510983D01*
X185408621Y-59496548D01*
X185396230Y-59485681D01*
X183464315Y-57553766D01*
X183453448Y-57541375D01*
X183439013Y-57522563D01*
X183433987Y-57516013D01*
X183402075Y-57491526D01*
X183402072Y-57491523D01*
X183400280Y-57490148D01*
X183313429Y-57423504D01*
X183313427Y-57423503D01*
X183306876Y-57418476D01*
X183158851Y-57357162D01*
X183150664Y-57356084D01*
X183150663Y-57356084D01*
X183139458Y-57354609D01*
X183108262Y-57350502D01*
X183039885Y-57341500D01*
X183039882Y-57341500D01*
X183039874Y-57341499D01*
X183008189Y-57337328D01*
X183000000Y-57336250D01*
X182968307Y-57340422D01*
X182951864Y-57341500D01*
X182304239Y-57341500D01*
X182236118Y-57321498D01*
X182215144Y-57304595D01*
X181245405Y-56334856D01*
X181211379Y-56272544D01*
X181208500Y-56245761D01*
X181208500Y-54509500D01*
X181228502Y-54441379D01*
X181282158Y-54394886D01*
X181334500Y-54383500D01*
X181493392Y-54383500D01*
X181584473Y-54372478D01*
X181584819Y-54375339D01*
X181615181Y-54375339D01*
X181615527Y-54372478D01*
X181706608Y-54383500D01*
X181893392Y-54383500D01*
X181984473Y-54372478D01*
X181984819Y-54375339D01*
X182015181Y-54375339D01*
X182015527Y-54372478D01*
X182106608Y-54383500D01*
X182293392Y-54383500D01*
X182384473Y-54372478D01*
X182384819Y-54375339D01*
X182415181Y-54375339D01*
X182415527Y-54372478D01*
X182506608Y-54383500D01*
X182693392Y-54383500D01*
X182760831Y-54375339D01*
X182776434Y-54373451D01*
X182776435Y-54373451D01*
X182784473Y-54372478D01*
X182926747Y-54316148D01*
X183048632Y-54223632D01*
X183141148Y-54101747D01*
X183197478Y-53959473D01*
X183208500Y-53868392D01*
X183208500Y-53334500D01*
X183228502Y-53266379D01*
X183282158Y-53219886D01*
X183334500Y-53208500D01*
X186295761Y-53208500D01*
X186363882Y-53228502D01*
X186384856Y-53245405D01*
X189935685Y-56796234D01*
X189946552Y-56808625D01*
X189966013Y-56833987D01*
X189972563Y-56839013D01*
X189997921Y-56858471D01*
X189997937Y-56858485D01*
X190014189Y-56870955D01*
X190093124Y-56931524D01*
X190241149Y-56992838D01*
X190400000Y-57013751D01*
X190431699Y-57009578D01*
X190448144Y-57008500D01*
X194874000Y-57008500D01*
X194942121Y-57028502D01*
X194988614Y-57082158D01*
X195000000Y-57134500D01*
X195000000Y-70874000D01*
X194979998Y-70942121D01*
X194926342Y-70988614D01*
X194874000Y-71000000D01*
X165126000Y-71000000D01*
X165057879Y-70979998D01*
X165011386Y-70926342D01*
X165000000Y-70874000D01*
X165000000Y-54912739D01*
X165020002Y-54844618D01*
X165036905Y-54823644D01*
X165468414Y-54392135D01*
X169793386Y-54392135D01*
X169795357Y-54407737D01*
X169832131Y-54550957D01*
X169837923Y-54565587D01*
X169909873Y-54696465D01*
X169914479Y-54703130D01*
X169925963Y-54710627D01*
X169936169Y-54704620D01*
X170288568Y-54352222D01*
X170296181Y-54338279D01*
X170296050Y-54336445D01*
X170291799Y-54329831D01*
X169919851Y-53957884D01*
X169907476Y-53951127D01*
X169901088Y-53955909D01*
X169837923Y-54070808D01*
X169832131Y-54085438D01*
X169795357Y-54228659D01*
X169793386Y-54244261D01*
X169793386Y-54392135D01*
X165468414Y-54392135D01*
X168615144Y-51245405D01*
X168677456Y-51211379D01*
X168704239Y-51208500D01*
X172626761Y-51208500D01*
X172694882Y-51228502D01*
G37*
%TD.AperFunction*%
%TA.AperFunction,Conductor*%
G36*
X175337512Y-65198515D02*
G01*
X175344095Y-65204644D01*
X176667135Y-66527684D01*
X176701161Y-66589996D01*
X176696096Y-66660811D01*
X176653549Y-66717647D01*
X176617185Y-66736544D01*
X176446868Y-66792212D01*
X176437359Y-66796209D01*
X176248463Y-66894542D01*
X176239738Y-66900036D01*
X176069433Y-67027905D01*
X176061726Y-67034748D01*
X175914590Y-67188717D01*
X175908109Y-67196722D01*
X175803498Y-67350074D01*
X175748587Y-67395076D01*
X175678062Y-67403247D01*
X175614315Y-67371993D01*
X175593618Y-67347509D01*
X175512822Y-67222617D01*
X175512820Y-67222614D01*
X175510014Y-67218277D01*
X175359670Y-67053051D01*
X175355619Y-67049852D01*
X175355615Y-67049848D01*
X175188419Y-66917804D01*
X175188413Y-66917800D01*
X175184359Y-66914598D01*
X175184318Y-66914575D01*
X175139604Y-66861361D01*
X175129000Y-66810766D01*
X175129000Y-65293739D01*
X175149002Y-65225618D01*
X175202658Y-65179125D01*
X175272932Y-65169021D01*
X175337512Y-65198515D01*
G37*
%TD.AperFunction*%
%TA.AperFunction,Conductor*%
G36*
X182763882Y-58578502D02*
G01*
X182784856Y-58595405D01*
X183969080Y-59779629D01*
X184003106Y-59841941D01*
X183998041Y-59912756D01*
X183955494Y-59969592D01*
X183888974Y-59994403D01*
X183866375Y-59993987D01*
X183851481Y-59992369D01*
X183844672Y-59992000D01*
X183372115Y-59992000D01*
X183356876Y-59996475D01*
X183355671Y-59997865D01*
X183354000Y-60005548D01*
X183354000Y-61228000D01*
X183333998Y-61296121D01*
X183280342Y-61342614D01*
X183228000Y-61354000D01*
X182972000Y-61354000D01*
X182903879Y-61333998D01*
X182857386Y-61280342D01*
X182846000Y-61228000D01*
X182846000Y-60010116D01*
X182841525Y-59994877D01*
X182840135Y-59993672D01*
X182832452Y-59992001D01*
X182355331Y-59992001D01*
X182348510Y-59992371D01*
X182297648Y-59997895D01*
X182282396Y-60001521D01*
X182161946Y-60046676D01*
X182146352Y-60055214D01*
X182075982Y-60107953D01*
X182009476Y-60132801D01*
X181940093Y-60117748D01*
X181924852Y-60107953D01*
X181922955Y-60106531D01*
X181846705Y-60049385D01*
X181838297Y-60046233D01*
X181838292Y-60046230D01*
X181837790Y-60046042D01*
X181837365Y-60045723D01*
X181830425Y-60041923D01*
X181830974Y-60040921D01*
X181781027Y-60003398D01*
X181756330Y-59936836D01*
X181773571Y-59863921D01*
X181776235Y-59859417D01*
X181780269Y-59852596D01*
X181785119Y-59835904D01*
X181823834Y-59702644D01*
X181825629Y-59696466D01*
X181826135Y-59690047D01*
X181828307Y-59662444D01*
X181828307Y-59662438D01*
X181828500Y-59659989D01*
X181828499Y-59260012D01*
X181825629Y-59223534D01*
X181780269Y-59067404D01*
X181776233Y-59060579D01*
X181776231Y-59060575D01*
X181748769Y-59014139D01*
X181731309Y-58945323D01*
X181748769Y-58885861D01*
X181776231Y-58839425D01*
X181776233Y-58839421D01*
X181780269Y-58832596D01*
X181825629Y-58676466D01*
X181826134Y-58670055D01*
X181827292Y-58663713D01*
X181829737Y-58664160D01*
X181851077Y-58608196D01*
X181908221Y-58566065D01*
X181967837Y-58559516D01*
X181991811Y-58562672D01*
X182000000Y-58563750D01*
X182031693Y-58559578D01*
X182048136Y-58558500D01*
X182695761Y-58558500D01*
X182763882Y-58578502D01*
G37*
%TD.AperFunction*%
%TA.AperFunction,Conductor*%
G36*
X194918032Y-46046683D02*
G01*
X194974868Y-46089230D01*
X194999679Y-46155750D01*
X195000000Y-46164739D01*
X195000000Y-55265500D01*
X194979998Y-55333621D01*
X194926342Y-55380114D01*
X194874000Y-55391500D01*
X191304239Y-55391500D01*
X191236118Y-55371498D01*
X191215144Y-55354595D01*
X188237512Y-52376963D01*
X188217625Y-52340543D01*
X188703819Y-52340543D01*
X188703950Y-52342377D01*
X188708201Y-52348990D01*
X189062376Y-52703165D01*
X189075908Y-52710554D01*
X189084587Y-52704482D01*
X189090127Y-52696465D01*
X189162077Y-52565587D01*
X189167869Y-52550957D01*
X189204643Y-52407737D01*
X189206614Y-52392135D01*
X189206614Y-52244261D01*
X189204643Y-52228659D01*
X189167869Y-52085438D01*
X189162077Y-52070808D01*
X189101684Y-51960951D01*
X189091684Y-51951008D01*
X189084215Y-51953818D01*
X188711432Y-52326600D01*
X188703819Y-52340543D01*
X188217625Y-52340543D01*
X188203486Y-52314651D01*
X188208551Y-52243836D01*
X188237512Y-52198773D01*
X188384655Y-52051630D01*
X188408609Y-52023584D01*
X188411711Y-52017942D01*
X188483727Y-51886946D01*
X188483728Y-51886943D01*
X188487544Y-51880002D01*
X188495531Y-51848893D01*
X188528478Y-51791133D01*
X188720934Y-51598677D01*
X188727694Y-51586297D01*
X188722912Y-51579909D01*
X188608014Y-51516745D01*
X188593389Y-51510955D01*
X188583092Y-51508311D01*
X188522086Y-51471997D01*
X188492385Y-51417604D01*
X188487544Y-51398749D01*
X188408609Y-51255168D01*
X188384655Y-51227121D01*
X188094057Y-50936523D01*
X188066010Y-50912569D01*
X187922429Y-50833634D01*
X187763727Y-50792886D01*
X187705625Y-50792886D01*
X187637504Y-50772884D01*
X187616530Y-50755981D01*
X187484144Y-50623595D01*
X187450118Y-50561283D01*
X187455183Y-50490468D01*
X187497730Y-50433632D01*
X187564250Y-50408821D01*
X187573239Y-50408500D01*
X190151864Y-50408500D01*
X190168307Y-50409578D01*
X190200000Y-50413750D01*
X190208189Y-50412672D01*
X190239874Y-50408501D01*
X190239884Y-50408500D01*
X190239885Y-50408500D01*
X190339457Y-50395391D01*
X190350664Y-50393916D01*
X190350666Y-50393915D01*
X190358851Y-50392838D01*
X190506876Y-50331524D01*
X190602072Y-50258477D01*
X190602075Y-50258474D01*
X190633987Y-50233987D01*
X190653458Y-50208613D01*
X190664316Y-50196233D01*
X194784905Y-46075644D01*
X194847217Y-46041618D01*
X194918032Y-46046683D01*
G37*
%TD.AperFunction*%
%TA.AperFunction,Conductor*%
G36*
X193217012Y-29480619D02*
G01*
X193231583Y-29495525D01*
X193289663Y-29565731D01*
X193399186Y-29698121D01*
X193417767Y-29720582D01*
X193647860Y-29936654D01*
X193651062Y-29938981D01*
X193651064Y-29938982D01*
X193682611Y-29961902D01*
X193903221Y-30122184D01*
X193906690Y-30124091D01*
X193906693Y-30124093D01*
X194175734Y-30272000D01*
X194179821Y-30274247D01*
X194183490Y-30275700D01*
X194183495Y-30275702D01*
X194469628Y-30388990D01*
X194473298Y-30390443D01*
X194779025Y-30468940D01*
X194864946Y-30479794D01*
X194889792Y-30482933D01*
X194954869Y-30511315D01*
X194994270Y-30570374D01*
X195000000Y-30607939D01*
X195000000Y-39087261D01*
X194979998Y-39155382D01*
X194963095Y-39176356D01*
X186984856Y-47154595D01*
X186922544Y-47188621D01*
X186895761Y-47191500D01*
X186806337Y-47191500D01*
X186738216Y-47171498D01*
X186691723Y-47117842D01*
X186681619Y-47047568D01*
X186697883Y-47001361D01*
X186765859Y-46886420D01*
X186765859Y-46886419D01*
X186769894Y-46879597D01*
X186815606Y-46722254D01*
X186816780Y-46707346D01*
X186818307Y-46687940D01*
X186818307Y-46687932D01*
X186818500Y-46685484D01*
X186818500Y-46274516D01*
X186815606Y-46237746D01*
X186774177Y-46095144D01*
X186772106Y-46088016D01*
X186772105Y-46088014D01*
X186769894Y-46080403D01*
X186759985Y-46063647D01*
X186742526Y-45994830D01*
X186759984Y-45935372D01*
X186765395Y-45926222D01*
X186771643Y-45911784D01*
X186806619Y-45791395D01*
X186806579Y-45777295D01*
X186799309Y-45774000D01*
X186521379Y-45774000D01*
X186457240Y-45756454D01*
X186436420Y-45744141D01*
X186436419Y-45744141D01*
X186429597Y-45740106D01*
X186421986Y-45737895D01*
X186421984Y-45737894D01*
X186371005Y-45723084D01*
X186272254Y-45694394D01*
X186265849Y-45693890D01*
X186265844Y-45693889D01*
X186237940Y-45691693D01*
X186237932Y-45691693D01*
X186235484Y-45691500D01*
X185764516Y-45691500D01*
X185762068Y-45691693D01*
X185762060Y-45691693D01*
X185734156Y-45693889D01*
X185734151Y-45693890D01*
X185727746Y-45694394D01*
X185628995Y-45723084D01*
X185578016Y-45737894D01*
X185578014Y-45737895D01*
X185570403Y-45740106D01*
X185563581Y-45744141D01*
X185563580Y-45744141D01*
X185542760Y-45756454D01*
X185478621Y-45774000D01*
X185206442Y-45774000D01*
X185191203Y-45778475D01*
X185184710Y-45785968D01*
X185165509Y-45828013D01*
X185105783Y-45866396D01*
X185070285Y-45871500D01*
X185048136Y-45871500D01*
X185031690Y-45870422D01*
X185019939Y-45868875D01*
X185000000Y-45866250D01*
X184981617Y-45868670D01*
X184960129Y-45871499D01*
X184960120Y-45871500D01*
X184960115Y-45871500D01*
X184841150Y-45887162D01*
X184693125Y-45948476D01*
X184679604Y-45958851D01*
X184597928Y-46021523D01*
X184597925Y-46021526D01*
X184566013Y-46046013D01*
X184560983Y-46052568D01*
X184546548Y-46071379D01*
X184535681Y-46083770D01*
X183864856Y-46754595D01*
X183802544Y-46788621D01*
X183775761Y-46791500D01*
X183334500Y-46791500D01*
X183266379Y-46771498D01*
X183219886Y-46717842D01*
X183208500Y-46665500D01*
X183208500Y-46269925D01*
X183228502Y-46201804D01*
X183245405Y-46180830D01*
X184177630Y-45248605D01*
X185193381Y-45248605D01*
X185193421Y-45262705D01*
X185200691Y-45266000D01*
X185727885Y-45266000D01*
X185743124Y-45261525D01*
X185744329Y-45260135D01*
X185746000Y-45252452D01*
X185746000Y-45247885D01*
X186254000Y-45247885D01*
X186258475Y-45263124D01*
X186259865Y-45264329D01*
X186267548Y-45266000D01*
X186793558Y-45266000D01*
X186807089Y-45262027D01*
X186808224Y-45254129D01*
X186771643Y-45128216D01*
X186765396Y-45113780D01*
X186690124Y-44986501D01*
X186680484Y-44974074D01*
X186575926Y-44869516D01*
X186563499Y-44859876D01*
X186436220Y-44784604D01*
X186421784Y-44778357D01*
X186278359Y-44736688D01*
X186270391Y-44735232D01*
X186256969Y-44738052D01*
X186254000Y-44749513D01*
X186254000Y-45247885D01*
X185746000Y-45247885D01*
X185746000Y-44751576D01*
X185741656Y-44736781D01*
X185731225Y-44734937D01*
X185721641Y-44736688D01*
X185578216Y-44778357D01*
X185563780Y-44784604D01*
X185436501Y-44859876D01*
X185424074Y-44869516D01*
X185319516Y-44974074D01*
X185309876Y-44986501D01*
X185234604Y-45113780D01*
X185228357Y-45128216D01*
X185193381Y-45248605D01*
X184177630Y-45248605D01*
X187380830Y-42045405D01*
X187443142Y-42011379D01*
X187469925Y-42008500D01*
X190117550Y-42008500D01*
X190133993Y-42009578D01*
X190165686Y-42013750D01*
X190173875Y-42012672D01*
X190205560Y-42008501D01*
X190205570Y-42008500D01*
X190205571Y-42008500D01*
X190312884Y-41994372D01*
X190316350Y-41993916D01*
X190316352Y-41993915D01*
X190324537Y-41992838D01*
X190472562Y-41931524D01*
X190498288Y-41911784D01*
X190567758Y-41858477D01*
X190567761Y-41858474D01*
X190593123Y-41839013D01*
X190599673Y-41833987D01*
X190619144Y-41808613D01*
X190630002Y-41796233D01*
X193613208Y-38813026D01*
X193625599Y-38802159D01*
X193644411Y-38787724D01*
X193650961Y-38782698D01*
X193675439Y-38750798D01*
X193675457Y-38750776D01*
X193725950Y-38684971D01*
X193748498Y-38655586D01*
X193809812Y-38507561D01*
X193813330Y-38480843D01*
X193829647Y-38356899D01*
X193830725Y-38348711D01*
X193826552Y-38317012D01*
X193825474Y-38300567D01*
X193825474Y-34953677D01*
X193826552Y-34937231D01*
X193829647Y-34913721D01*
X193830725Y-34905533D01*
X193809812Y-34746682D01*
X193748498Y-34598657D01*
X193675452Y-34503462D01*
X193675448Y-34503458D01*
X193675445Y-34503454D01*
X193655990Y-34478099D01*
X193655987Y-34478096D01*
X193650961Y-34471546D01*
X193644406Y-34466516D01*
X193625595Y-34452081D01*
X193613204Y-34441214D01*
X193045405Y-33873415D01*
X193011379Y-33811103D01*
X193008500Y-33784320D01*
X193008500Y-29575843D01*
X193028502Y-29507722D01*
X193082158Y-29461229D01*
X193152432Y-29451125D01*
X193217012Y-29480619D01*
G37*
%TD.AperFunction*%
%TA.AperFunction,Conductor*%
G36*
X194942121Y-21020002D02*
G01*
X194988614Y-21073658D01*
X195000000Y-21126000D01*
X195000000Y-25392061D01*
X194979998Y-25460182D01*
X194926342Y-25506675D01*
X194889792Y-25517067D01*
X194864946Y-25520206D01*
X194779025Y-25531060D01*
X194473298Y-25609557D01*
X194469629Y-25611010D01*
X194469628Y-25611010D01*
X194183495Y-25724298D01*
X194183490Y-25724300D01*
X194179821Y-25725753D01*
X194176353Y-25727659D01*
X194176352Y-25727660D01*
X194132055Y-25752013D01*
X193903221Y-25877816D01*
X193759433Y-25982284D01*
X193667222Y-26049279D01*
X193647860Y-26063346D01*
X193644974Y-26066056D01*
X193644973Y-26066057D01*
X193524358Y-26179322D01*
X193461008Y-26211373D01*
X193390386Y-26204086D01*
X193334915Y-26159775D01*
X193312206Y-26092509D01*
X193320123Y-26043242D01*
X193348478Y-25967605D01*
X193352105Y-25952351D01*
X193357631Y-25901486D01*
X193358000Y-25894672D01*
X193358000Y-25272115D01*
X193353525Y-25256876D01*
X193352135Y-25255671D01*
X193344452Y-25254000D01*
X192272115Y-25254000D01*
X192256876Y-25258475D01*
X192255671Y-25259865D01*
X192254000Y-25267548D01*
X192254000Y-26339884D01*
X192258475Y-26355123D01*
X192259865Y-26356328D01*
X192267548Y-26357999D01*
X192894669Y-26357999D01*
X192901490Y-26357629D01*
X192952352Y-26352105D01*
X192967603Y-26348479D01*
X193094685Y-26300838D01*
X193165492Y-26295655D01*
X193227861Y-26329576D01*
X193261991Y-26391831D01*
X193257044Y-26462655D01*
X193235999Y-26499136D01*
X193219100Y-26519563D01*
X193219093Y-26519573D01*
X193216568Y-26522625D01*
X193047438Y-26789131D01*
X193045754Y-26792710D01*
X193045750Y-26792717D01*
X192970867Y-26951853D01*
X192913044Y-27074734D01*
X192815505Y-27374928D01*
X192756359Y-27684980D01*
X192740841Y-27931648D01*
X192740548Y-27936299D01*
X192716309Y-28003030D01*
X192659840Y-28046062D01*
X192589070Y-28051734D01*
X192526468Y-28018244D01*
X192514835Y-28005093D01*
X192513252Y-28003030D01*
X192458478Y-27931647D01*
X192458474Y-27931643D01*
X192458471Y-27931639D01*
X192439016Y-27906284D01*
X192439013Y-27906281D01*
X192433987Y-27899731D01*
X192411657Y-27882596D01*
X192408621Y-27880266D01*
X192396230Y-27869399D01*
X192130597Y-27603766D01*
X192119730Y-27591375D01*
X192105295Y-27572563D01*
X192100269Y-27566013D01*
X192068357Y-27541526D01*
X192068354Y-27541523D01*
X191979711Y-27473504D01*
X191979709Y-27473503D01*
X191973158Y-27468476D01*
X191825133Y-27407162D01*
X191816946Y-27406084D01*
X191816945Y-27406084D01*
X191805740Y-27404609D01*
X191774544Y-27400502D01*
X191706167Y-27391500D01*
X191706164Y-27391500D01*
X191706156Y-27391499D01*
X191674471Y-27387328D01*
X191666282Y-27386250D01*
X191634589Y-27390422D01*
X191618146Y-27391500D01*
X188361225Y-27391500D01*
X188293104Y-27371498D01*
X188246611Y-27317842D01*
X188236507Y-27247568D01*
X188266001Y-27182988D01*
X188272130Y-27176405D01*
X189081520Y-26367015D01*
X189143832Y-26332989D01*
X189195736Y-26332640D01*
X189293526Y-26352536D01*
X189293534Y-26352537D01*
X189298597Y-26353567D01*
X189424362Y-26358179D01*
X189516673Y-26361564D01*
X189516677Y-26361564D01*
X189521837Y-26361753D01*
X189526957Y-26361097D01*
X189526959Y-26361097D01*
X189738288Y-26334025D01*
X189738289Y-26334025D01*
X189743416Y-26333368D01*
X189748366Y-26331883D01*
X189952429Y-26270661D01*
X189952434Y-26270659D01*
X189957384Y-26269174D01*
X190157994Y-26170896D01*
X190339860Y-26041173D01*
X190448479Y-25932933D01*
X190510851Y-25899017D01*
X190581658Y-25904205D01*
X190638419Y-25946851D01*
X190655401Y-25977954D01*
X190696676Y-26088054D01*
X190705214Y-26103649D01*
X190781715Y-26205724D01*
X190794276Y-26218285D01*
X190896351Y-26294786D01*
X190911946Y-26303324D01*
X191032394Y-26348478D01*
X191047649Y-26352105D01*
X191098514Y-26357631D01*
X191105328Y-26358000D01*
X191727885Y-26358000D01*
X191743124Y-26353525D01*
X191744329Y-26352135D01*
X191746000Y-26344452D01*
X191746000Y-24727885D01*
X192254000Y-24727885D01*
X192258475Y-24743124D01*
X192259865Y-24744329D01*
X192267548Y-24746000D01*
X193339884Y-24746000D01*
X193355123Y-24741525D01*
X193356328Y-24740135D01*
X193357999Y-24732452D01*
X193357999Y-24105331D01*
X193357629Y-24098510D01*
X193352105Y-24047648D01*
X193348479Y-24032396D01*
X193303324Y-23911946D01*
X193294786Y-23896351D01*
X193218285Y-23794276D01*
X193205724Y-23781715D01*
X193103649Y-23705214D01*
X193088054Y-23696676D01*
X192967606Y-23651522D01*
X192952351Y-23647895D01*
X192901486Y-23642369D01*
X192894672Y-23642000D01*
X192272115Y-23642000D01*
X192256876Y-23646475D01*
X192255671Y-23647865D01*
X192254000Y-23655548D01*
X192254000Y-24727885D01*
X191746000Y-24727885D01*
X191746000Y-23660116D01*
X191741525Y-23644877D01*
X191740135Y-23643672D01*
X191732452Y-23642001D01*
X191105331Y-23642001D01*
X191098510Y-23642371D01*
X191047648Y-23647895D01*
X191032396Y-23651521D01*
X190911946Y-23696676D01*
X190896351Y-23705214D01*
X190794276Y-23781715D01*
X190781715Y-23794276D01*
X190705214Y-23896351D01*
X190696676Y-23911946D01*
X190655297Y-24022322D01*
X190612655Y-24079087D01*
X190546093Y-24103786D01*
X190476744Y-24088578D01*
X190444121Y-24062891D01*
X190393151Y-24006876D01*
X190393148Y-24006873D01*
X190389670Y-24003051D01*
X190385619Y-23999852D01*
X190385615Y-23999848D01*
X190218414Y-23867800D01*
X190218410Y-23867798D01*
X190214359Y-23864598D01*
X190018789Y-23756638D01*
X190013920Y-23754914D01*
X190013916Y-23754912D01*
X189813087Y-23683795D01*
X189813083Y-23683794D01*
X189808212Y-23682069D01*
X189803119Y-23681162D01*
X189803116Y-23681161D01*
X189593373Y-23643800D01*
X189593367Y-23643799D01*
X189588284Y-23642894D01*
X189514452Y-23641992D01*
X189370081Y-23640228D01*
X189370079Y-23640228D01*
X189364911Y-23640165D01*
X189144091Y-23673955D01*
X188931756Y-23743357D01*
X188733607Y-23846507D01*
X188729474Y-23849610D01*
X188729471Y-23849612D01*
X188667073Y-23896462D01*
X188554965Y-23980635D01*
X188400629Y-24142138D01*
X188274743Y-24326680D01*
X188180688Y-24529305D01*
X188120989Y-24744570D01*
X188097251Y-24966695D01*
X188097548Y-24971848D01*
X188097548Y-24971851D01*
X188100535Y-25023649D01*
X188110110Y-25189715D01*
X188111247Y-25194761D01*
X188111248Y-25194767D01*
X188117684Y-25223324D01*
X188125246Y-25256876D01*
X188126417Y-25262074D01*
X188121881Y-25332926D01*
X188092595Y-25378870D01*
X186813139Y-26658326D01*
X186750827Y-26692352D01*
X186724044Y-26695231D01*
X186488073Y-26695231D01*
X186419952Y-26675229D01*
X186406240Y-26665040D01*
X186398380Y-26658326D01*
X186380689Y-26643216D01*
X186238215Y-26564890D01*
X186080736Y-26524456D01*
X185918151Y-26524456D01*
X185760673Y-26564890D01*
X185618198Y-26643216D01*
X185590375Y-26666979D01*
X185307549Y-26949807D01*
X185283784Y-26977630D01*
X185205458Y-27120105D01*
X185203486Y-27127784D01*
X185203486Y-27127785D01*
X185190068Y-27180043D01*
X185153753Y-27241049D01*
X185099363Y-27270748D01*
X185049707Y-27283498D01*
X185039425Y-27286138D01*
X185032479Y-27289957D01*
X185032473Y-27289959D01*
X185001061Y-27307228D01*
X184931731Y-27322518D01*
X184865140Y-27297898D01*
X184822431Y-27241184D01*
X184819363Y-27231967D01*
X184782481Y-27105017D01*
X184782480Y-27105015D01*
X184780269Y-27097404D01*
X184697506Y-26957459D01*
X184582541Y-26842494D01*
X184575720Y-26838460D01*
X184449419Y-26763766D01*
X184449418Y-26763766D01*
X184442596Y-26759731D01*
X184434985Y-26757520D01*
X184434983Y-26757519D01*
X184292644Y-26716166D01*
X184292645Y-26716166D01*
X184286466Y-26714371D01*
X184280059Y-26713867D01*
X184280055Y-26713866D01*
X184252444Y-26711693D01*
X184252438Y-26711693D01*
X184249989Y-26711500D01*
X184169594Y-26711500D01*
X184101473Y-26691498D01*
X184080499Y-26674595D01*
X182899000Y-25493095D01*
X182864974Y-25430783D01*
X182870039Y-25359967D01*
X182912586Y-25303132D01*
X182961073Y-25285047D01*
X182960502Y-25283104D01*
X182993124Y-25273525D01*
X182994329Y-25272135D01*
X182997275Y-25258590D01*
X183031299Y-25196278D01*
X183044818Y-25184556D01*
X183113261Y-25133261D01*
X183200615Y-25016705D01*
X183251745Y-24880316D01*
X183252598Y-24872464D01*
X183252599Y-24872460D01*
X183252737Y-24871185D01*
X183253122Y-24870259D01*
X183254425Y-24864778D01*
X183255312Y-24864989D01*
X183279979Y-24805623D01*
X183338341Y-24765196D01*
X183409296Y-24762740D01*
X183470314Y-24799035D01*
X183502023Y-24862557D01*
X183504000Y-24884792D01*
X183504000Y-25259884D01*
X183508475Y-25275123D01*
X183509865Y-25276328D01*
X183517548Y-25277999D01*
X183594669Y-25277999D01*
X183601490Y-25277629D01*
X183652352Y-25272105D01*
X183667604Y-25268479D01*
X183788054Y-25223324D01*
X183803649Y-25214786D01*
X183905724Y-25138285D01*
X183918285Y-25125724D01*
X183994786Y-25023649D01*
X184003324Y-25008054D01*
X184048478Y-24887606D01*
X184052105Y-24872351D01*
X184057631Y-24821486D01*
X184058000Y-24814672D01*
X184058000Y-24689934D01*
X184065665Y-24655892D01*
X184066000Y-24651648D01*
X184066000Y-24637924D01*
X184574000Y-24637924D01*
X184577973Y-24651455D01*
X184585768Y-24652575D01*
X184693521Y-24620862D01*
X184704889Y-24616269D01*
X184869154Y-24530393D01*
X184879415Y-24523679D01*
X185023873Y-24407532D01*
X185032632Y-24398954D01*
X185151778Y-24256961D01*
X185158708Y-24246841D01*
X185248002Y-24084415D01*
X185252834Y-24073142D01*
X185308880Y-23896462D01*
X185311430Y-23884468D01*
X185327607Y-23740239D01*
X185328000Y-23733215D01*
X185328000Y-23402115D01*
X185323525Y-23386876D01*
X185322135Y-23385671D01*
X185314452Y-23384000D01*
X184592115Y-23384000D01*
X184576876Y-23388475D01*
X184575671Y-23389865D01*
X184574000Y-23397548D01*
X184574000Y-24637924D01*
X184066000Y-24637924D01*
X184066000Y-24317115D01*
X184061525Y-24301876D01*
X184060135Y-24300671D01*
X184052452Y-24299000D01*
X183522115Y-24299000D01*
X183506876Y-24303475D01*
X183497710Y-24314053D01*
X183473596Y-24358214D01*
X183411284Y-24392239D01*
X183340468Y-24387175D01*
X183283632Y-24344628D01*
X183258821Y-24278108D01*
X183258500Y-24269119D01*
X183258500Y-23813137D01*
X183278502Y-23745016D01*
X183332158Y-23698523D01*
X183402432Y-23688419D01*
X183467012Y-23717913D01*
X183505396Y-23777639D01*
X183508475Y-23788124D01*
X183509865Y-23789329D01*
X183517548Y-23791000D01*
X184047885Y-23791000D01*
X184063124Y-23786525D01*
X184064329Y-23785135D01*
X184066000Y-23777452D01*
X184066000Y-23402115D01*
X184061525Y-23386876D01*
X184060135Y-23385671D01*
X184052452Y-23384000D01*
X183590674Y-23384000D01*
X183522553Y-23363998D01*
X183476060Y-23310342D01*
X183465956Y-23240068D01*
X183495450Y-23175488D01*
X183504101Y-23166452D01*
X183523527Y-23148082D01*
X183523529Y-23148080D01*
X183528485Y-23143393D01*
X183532317Y-23137755D01*
X183532320Y-23137751D01*
X183626442Y-22999255D01*
X183630277Y-22993612D01*
X183645638Y-22955206D01*
X183689505Y-22899387D01*
X183762626Y-22876000D01*
X184047885Y-22876000D01*
X184063124Y-22871525D01*
X184064329Y-22870135D01*
X184066000Y-22862452D01*
X184066000Y-22857885D01*
X184574000Y-22857885D01*
X184578475Y-22873124D01*
X184579865Y-22874329D01*
X184587548Y-22876000D01*
X185309885Y-22876000D01*
X185325124Y-22871525D01*
X185326329Y-22870135D01*
X185328000Y-22862452D01*
X185328000Y-22533343D01*
X185327699Y-22527195D01*
X185314188Y-22389397D01*
X185311805Y-22377362D01*
X185258233Y-22199924D01*
X185253559Y-22188584D01*
X185166540Y-22024923D01*
X185159751Y-22014706D01*
X185042603Y-21871067D01*
X185033959Y-21862363D01*
X184891144Y-21744216D01*
X184880973Y-21737356D01*
X184717924Y-21649196D01*
X184706619Y-21644444D01*
X184591308Y-21608750D01*
X184577205Y-21608544D01*
X184574000Y-21615299D01*
X184574000Y-22857885D01*
X184066000Y-22857885D01*
X184066000Y-21622076D01*
X184062027Y-21608545D01*
X184054232Y-21607425D01*
X183946479Y-21639138D01*
X183935111Y-21643731D01*
X183770846Y-21729607D01*
X183760585Y-21736321D01*
X183616127Y-21852468D01*
X183607368Y-21861046D01*
X183563000Y-21913921D01*
X183503890Y-21953248D01*
X183432902Y-21954374D01*
X183389952Y-21933028D01*
X183324322Y-21882850D01*
X183219186Y-21833825D01*
X183166369Y-21809195D01*
X183166366Y-21809194D01*
X183160192Y-21806315D01*
X183153544Y-21804829D01*
X183153541Y-21804828D01*
X182988494Y-21767936D01*
X182988495Y-21767936D01*
X182983457Y-21766810D01*
X182977912Y-21766500D01*
X182844756Y-21766500D01*
X182841360Y-21766869D01*
X182841359Y-21766869D01*
X182823842Y-21768772D01*
X182753959Y-21756244D01*
X182721139Y-21732604D01*
X182514497Y-21525962D01*
X182508643Y-21519696D01*
X182476152Y-21482451D01*
X182471158Y-21476726D01*
X182419622Y-21440506D01*
X182414326Y-21436573D01*
X182370737Y-21402394D01*
X182370734Y-21402392D01*
X182364760Y-21397708D01*
X182357836Y-21394582D01*
X182354801Y-21392744D01*
X182342102Y-21385500D01*
X182338954Y-21383812D01*
X182332739Y-21379444D01*
X182274050Y-21356562D01*
X182268005Y-21354022D01*
X182210565Y-21328087D01*
X182203092Y-21326702D01*
X182199674Y-21325631D01*
X182185685Y-21321646D01*
X182182193Y-21320749D01*
X182175111Y-21317988D01*
X182167578Y-21316996D01*
X182167577Y-21316996D01*
X182112670Y-21309767D01*
X182106157Y-21308735D01*
X182051682Y-21298639D01*
X182051680Y-21298639D01*
X182044213Y-21297255D01*
X182036633Y-21297692D01*
X182036632Y-21297692D01*
X181982888Y-21300791D01*
X181975635Y-21301000D01*
X178517600Y-21301000D01*
X178509029Y-21300708D01*
X178452149Y-21296830D01*
X178390065Y-21307666D01*
X178383586Y-21308622D01*
X178321040Y-21316191D01*
X178313938Y-21318875D01*
X178310456Y-21319730D01*
X178296421Y-21323570D01*
X178292973Y-21324611D01*
X178285483Y-21325918D01*
X178278522Y-21328974D01*
X178278521Y-21328974D01*
X178227805Y-21351237D01*
X178221697Y-21353730D01*
X178169886Y-21373308D01*
X178162778Y-21375994D01*
X178156512Y-21380300D01*
X178153357Y-21381950D01*
X178140565Y-21389069D01*
X178137521Y-21390869D01*
X178130567Y-21393922D01*
X178124539Y-21398547D01*
X178124538Y-21398548D01*
X178080604Y-21432260D01*
X178075267Y-21436138D01*
X178068912Y-21440506D01*
X178023348Y-21471821D01*
X178018296Y-21477491D01*
X178018295Y-21477492D01*
X177982482Y-21517688D01*
X177977501Y-21522964D01*
X177656692Y-21843773D01*
X177594380Y-21877799D01*
X177523565Y-21872734D01*
X177514359Y-21868878D01*
X177438168Y-21833350D01*
X177386369Y-21809195D01*
X177386366Y-21809194D01*
X177380192Y-21806315D01*
X177373544Y-21804829D01*
X177373541Y-21804828D01*
X177208494Y-21767936D01*
X177208495Y-21767936D01*
X177203457Y-21766810D01*
X177197912Y-21766500D01*
X177064756Y-21766500D01*
X177061359Y-21766869D01*
X177028761Y-21770410D01*
X176929963Y-21781143D01*
X176846609Y-21809195D01*
X176764796Y-21836728D01*
X176764794Y-21836729D01*
X176758325Y-21838906D01*
X176606349Y-21930222D01*
X176606346Y-21930223D01*
X176603095Y-21932177D01*
X176602745Y-21931594D01*
X176541083Y-21955065D01*
X176471609Y-21940439D01*
X176433609Y-21909085D01*
X176402603Y-21871067D01*
X176393959Y-21862363D01*
X176251144Y-21744216D01*
X176240973Y-21737356D01*
X176077924Y-21649196D01*
X176066619Y-21644444D01*
X175951308Y-21608750D01*
X175937205Y-21608544D01*
X175934000Y-21615299D01*
X175934000Y-22857885D01*
X175938475Y-22873124D01*
X175939865Y-22874329D01*
X175947548Y-22876000D01*
X176237243Y-22876000D01*
X176305364Y-22896002D01*
X176348700Y-22943235D01*
X176414922Y-23068836D01*
X176419327Y-23074049D01*
X176419330Y-23074053D01*
X176506051Y-23176672D01*
X176534743Y-23241613D01*
X176523770Y-23311756D01*
X176476617Y-23364833D01*
X176409813Y-23384000D01*
X175952115Y-23384000D01*
X175936876Y-23388475D01*
X175935671Y-23389865D01*
X175934000Y-23397548D01*
X175934000Y-23772885D01*
X175938475Y-23788124D01*
X175939865Y-23789329D01*
X175947548Y-23791000D01*
X176477885Y-23791000D01*
X176493124Y-23786525D01*
X176502290Y-23775947D01*
X176526404Y-23731786D01*
X176588716Y-23697761D01*
X176659532Y-23702825D01*
X176716368Y-23745372D01*
X176741179Y-23811892D01*
X176741500Y-23820881D01*
X176741500Y-24173000D01*
X176721498Y-24241121D01*
X176667842Y-24287614D01*
X176615500Y-24299000D01*
X175952115Y-24299000D01*
X175936876Y-24303475D01*
X175935671Y-24304865D01*
X175934000Y-24312548D01*
X175934000Y-24637924D01*
X175936897Y-24647790D01*
X175942001Y-24683288D01*
X175942001Y-24814669D01*
X175942371Y-24821490D01*
X175947895Y-24872352D01*
X175951521Y-24887604D01*
X175996676Y-25008054D01*
X176005214Y-25023649D01*
X176081715Y-25125724D01*
X176094276Y-25138285D01*
X176196351Y-25214786D01*
X176211946Y-25223324D01*
X176332394Y-25268478D01*
X176347649Y-25272105D01*
X176398514Y-25277631D01*
X176405328Y-25278000D01*
X176615500Y-25278000D01*
X176683621Y-25298002D01*
X176730114Y-25351658D01*
X176741500Y-25404000D01*
X176741500Y-25662918D01*
X176721498Y-25731039D01*
X176704595Y-25752013D01*
X176027013Y-26429595D01*
X175964701Y-26463621D01*
X175937918Y-26466500D01*
X175324600Y-26466500D01*
X175321354Y-26466837D01*
X175321350Y-26466837D01*
X175225692Y-26476762D01*
X175225688Y-26476763D01*
X175218834Y-26477474D01*
X175212298Y-26479655D01*
X175212296Y-26479655D01*
X175153905Y-26499136D01*
X175051054Y-26533450D01*
X174900652Y-26626522D01*
X174775695Y-26751697D01*
X174771855Y-26757927D01*
X174771854Y-26757928D01*
X174719727Y-26842494D01*
X174682885Y-26902262D01*
X174627203Y-27070139D01*
X174626503Y-27076975D01*
X174626502Y-27076978D01*
X174624409Y-27097404D01*
X174616500Y-27174600D01*
X174616500Y-28025400D01*
X174616837Y-28028646D01*
X174616837Y-28028650D01*
X174625359Y-28110780D01*
X174627474Y-28131166D01*
X174629655Y-28137702D01*
X174629655Y-28137704D01*
X174667797Y-28252027D01*
X174683450Y-28298946D01*
X174776522Y-28449348D01*
X174901697Y-28574305D01*
X174907927Y-28578145D01*
X174907928Y-28578146D01*
X175017078Y-28645427D01*
X175052262Y-28667115D01*
X175132005Y-28693564D01*
X175213611Y-28720632D01*
X175213613Y-28720632D01*
X175220139Y-28722797D01*
X175226975Y-28723497D01*
X175226978Y-28723498D01*
X175270031Y-28727909D01*
X175324600Y-28733500D01*
X176675400Y-28733500D01*
X176678646Y-28733163D01*
X176678650Y-28733163D01*
X176774308Y-28723238D01*
X176774312Y-28723237D01*
X176781166Y-28722526D01*
X176787702Y-28720345D01*
X176787704Y-28720345D01*
X176919806Y-28676272D01*
X176948946Y-28666550D01*
X176982681Y-28645674D01*
X177051133Y-28626836D01*
X177118902Y-28647997D01*
X177164474Y-28702438D01*
X177172313Y-28733797D01*
X177173206Y-28733634D01*
X177176665Y-28752572D01*
X177217981Y-28894783D01*
X177224230Y-28909222D01*
X177298854Y-29035405D01*
X177308501Y-29047841D01*
X177412159Y-29151499D01*
X177424595Y-29161146D01*
X177550778Y-29235770D01*
X177565217Y-29242019D01*
X177707436Y-29283338D01*
X177720023Y-29285637D01*
X177727943Y-29286260D01*
X177743030Y-29283090D01*
X177746000Y-29271626D01*
X177746000Y-28394500D01*
X177766002Y-28326379D01*
X177819658Y-28279886D01*
X177872000Y-28268500D01*
X178240058Y-28268499D01*
X178249988Y-28268499D01*
X178286466Y-28265629D01*
X178292648Y-28263833D01*
X178292653Y-28263832D01*
X178302390Y-28261003D01*
X178337542Y-28256000D01*
X178801900Y-28256000D01*
X178815431Y-28252027D01*
X178816566Y-28244129D01*
X178782019Y-28125217D01*
X178775771Y-28110780D01*
X178748478Y-28064630D01*
X178731018Y-27995813D01*
X178748477Y-27936354D01*
X178780269Y-27882596D01*
X178809510Y-27781949D01*
X178847723Y-27722113D01*
X178912220Y-27692436D01*
X178982522Y-27702340D01*
X179019602Y-27728006D01*
X179160994Y-27869399D01*
X179204596Y-27913001D01*
X179238621Y-27975313D01*
X179241500Y-28002096D01*
X179241500Y-28441502D01*
X179241693Y-28443950D01*
X179241693Y-28443958D01*
X179243442Y-28466177D01*
X179228846Y-28535657D01*
X179206925Y-28565158D01*
X179000421Y-28771662D01*
X178938109Y-28805688D01*
X178867294Y-28800623D01*
X178834823Y-28776316D01*
X178807651Y-28764000D01*
X178272115Y-28764000D01*
X178256876Y-28768475D01*
X178255671Y-28769865D01*
X178254000Y-28777548D01*
X178254000Y-29269566D01*
X178258475Y-29284805D01*
X178278781Y-29302401D01*
X178317164Y-29362127D01*
X178317164Y-29433124D01*
X178285363Y-29486720D01*
X178107988Y-29664095D01*
X178045676Y-29698121D01*
X178018893Y-29701000D01*
X177386719Y-29701000D01*
X177318598Y-29680998D01*
X177279575Y-29641303D01*
X177227332Y-29556880D01*
X177223478Y-29550652D01*
X177098303Y-29425695D01*
X177092072Y-29421854D01*
X176953968Y-29336725D01*
X176953966Y-29336724D01*
X176947738Y-29332885D01*
X176807653Y-29286421D01*
X176786389Y-29279368D01*
X176786387Y-29279368D01*
X176779861Y-29277203D01*
X176773025Y-29276503D01*
X176773022Y-29276502D01*
X176729969Y-29272091D01*
X176675400Y-29266500D01*
X175324600Y-29266500D01*
X175321354Y-29266837D01*
X175321350Y-29266837D01*
X175225692Y-29276762D01*
X175225688Y-29276763D01*
X175218834Y-29277474D01*
X175212298Y-29279655D01*
X175212296Y-29279655D01*
X175144119Y-29302401D01*
X175051054Y-29333450D01*
X174900652Y-29426522D01*
X174775695Y-29551697D01*
X174771855Y-29557927D01*
X174771854Y-29557928D01*
X174692899Y-29686017D01*
X174682885Y-29702262D01*
X174627203Y-29870139D01*
X174616500Y-29974600D01*
X174616500Y-30825400D01*
X174616837Y-30828646D01*
X174616837Y-30828650D01*
X174626576Y-30922508D01*
X174627474Y-30931166D01*
X174629654Y-30937699D01*
X174629656Y-30937710D01*
X174655651Y-31015623D01*
X174658237Y-31086573D01*
X174622053Y-31147657D01*
X174558589Y-31179482D01*
X174536128Y-31181500D01*
X174274516Y-31181500D01*
X174272068Y-31181693D01*
X174272060Y-31181693D01*
X174244156Y-31183889D01*
X174244151Y-31183890D01*
X174237746Y-31184394D01*
X174161856Y-31206442D01*
X174088016Y-31227894D01*
X174088014Y-31227895D01*
X174080403Y-31230106D01*
X174073576Y-31234143D01*
X174073577Y-31234143D01*
X174063647Y-31240015D01*
X173994830Y-31257474D01*
X173935372Y-31240016D01*
X173926222Y-31234605D01*
X173911784Y-31228357D01*
X173791395Y-31193381D01*
X173777295Y-31193421D01*
X173774000Y-31200691D01*
X173774000Y-31478621D01*
X173756454Y-31542760D01*
X173740106Y-31570403D01*
X173694394Y-31727746D01*
X173693890Y-31734151D01*
X173693889Y-31734156D01*
X173693191Y-31743031D01*
X173691500Y-31764516D01*
X173691500Y-31787639D01*
X173688688Y-31811944D01*
X173687881Y-31814210D01*
X173666404Y-31994320D01*
X173667140Y-32001323D01*
X173667140Y-32001324D01*
X173676826Y-32093475D01*
X173685364Y-32174712D01*
X173687634Y-32181380D01*
X173688560Y-32185592D01*
X173691500Y-32212651D01*
X173691500Y-32235484D01*
X173691693Y-32237932D01*
X173691693Y-32237940D01*
X173693184Y-32256876D01*
X173694394Y-32272254D01*
X173740106Y-32429597D01*
X173744141Y-32436419D01*
X173744141Y-32436420D01*
X173756454Y-32457240D01*
X173774000Y-32521379D01*
X173774000Y-32793558D01*
X173777973Y-32807089D01*
X173785871Y-32808224D01*
X173911784Y-32771643D01*
X173926222Y-32765395D01*
X173935372Y-32759984D01*
X174004188Y-32742526D01*
X174063647Y-32759985D01*
X174071531Y-32764647D01*
X174080403Y-32769894D01*
X174088014Y-32772105D01*
X174088016Y-32772106D01*
X174138995Y-32786916D01*
X174237746Y-32815606D01*
X174244151Y-32816110D01*
X174244156Y-32816111D01*
X174272061Y-32818307D01*
X174272067Y-32818307D01*
X174274516Y-32818500D01*
X174276221Y-32818500D01*
X174343405Y-32841123D01*
X174387758Y-32896560D01*
X174395100Y-32967176D01*
X174360276Y-33033464D01*
X174325547Y-33068193D01*
X174321511Y-33075017D01*
X174321509Y-33075020D01*
X174297613Y-33115426D01*
X174240855Y-33211399D01*
X174238644Y-33219010D01*
X174238643Y-33219012D01*
X174234324Y-33233878D01*
X174194438Y-33371169D01*
X174191500Y-33408498D01*
X174191500Y-34048072D01*
X174191143Y-34150370D01*
X174191411Y-34151570D01*
X174191500Y-34153207D01*
X174191500Y-34565500D01*
X174171498Y-34633621D01*
X174117842Y-34680114D01*
X174065500Y-34691500D01*
X173833498Y-34691500D01*
X173831050Y-34691693D01*
X173831042Y-34691693D01*
X173802579Y-34693933D01*
X173802574Y-34693934D01*
X173796169Y-34694438D01*
X173711770Y-34718958D01*
X173644012Y-34738643D01*
X173644010Y-34738644D01*
X173636399Y-34740855D01*
X173629572Y-34744892D01*
X173629573Y-34744892D01*
X173500020Y-34821509D01*
X173500017Y-34821511D01*
X173493193Y-34825547D01*
X173375547Y-34943193D01*
X173371511Y-34950017D01*
X173371509Y-34950020D01*
X173341951Y-35000000D01*
X173290855Y-35086399D01*
X173288644Y-35094010D01*
X173288643Y-35094012D01*
X173273472Y-35146231D01*
X173244438Y-35246169D01*
X173243934Y-35252574D01*
X173243933Y-35252579D01*
X173241693Y-35281042D01*
X173241500Y-35283498D01*
X173241500Y-35562918D01*
X173221498Y-35631039D01*
X173204595Y-35652013D01*
X171954842Y-36901766D01*
X171953905Y-36902694D01*
X171889493Y-36965771D01*
X171866002Y-37002221D01*
X171858583Y-37012546D01*
X171831524Y-37046443D01*
X171828459Y-37052784D01*
X171828458Y-37052785D01*
X171816928Y-37076637D01*
X171809399Y-37090054D01*
X171791235Y-37118238D01*
X171788827Y-37124855D01*
X171788824Y-37124860D01*
X171776408Y-37158973D01*
X171771447Y-37170716D01*
X171755646Y-37203403D01*
X171755644Y-37203408D01*
X171752579Y-37209749D01*
X171750996Y-37216607D01*
X171750995Y-37216609D01*
X171745035Y-37242426D01*
X171740668Y-37257169D01*
X171729197Y-37288685D01*
X171728314Y-37295675D01*
X171728312Y-37295683D01*
X171723762Y-37331701D01*
X171721526Y-37344253D01*
X171711776Y-37386485D01*
X171711751Y-37393531D01*
X171711751Y-37393534D01*
X171711634Y-37427056D01*
X171711605Y-37427938D01*
X171711500Y-37428769D01*
X171711500Y-37465572D01*
X171711143Y-37567870D01*
X171711411Y-37569070D01*
X171711500Y-37570707D01*
X171711500Y-41990786D01*
X171711493Y-41992106D01*
X171710549Y-42082221D01*
X171719711Y-42124597D01*
X171721769Y-42137163D01*
X171726603Y-42180255D01*
X171728919Y-42186906D01*
X171728920Y-42186910D01*
X171737633Y-42211930D01*
X171741796Y-42226742D01*
X171744686Y-42240106D01*
X171748881Y-42259510D01*
X171767208Y-42298813D01*
X171771990Y-42310589D01*
X171786255Y-42351552D01*
X171789989Y-42357527D01*
X171789990Y-42357530D01*
X171804027Y-42379995D01*
X171811366Y-42393512D01*
X171822559Y-42417514D01*
X171825538Y-42423902D01*
X171829855Y-42429467D01*
X171829856Y-42429469D01*
X171852106Y-42458153D01*
X171859402Y-42468612D01*
X171875656Y-42494624D01*
X171882374Y-42505376D01*
X171887334Y-42510371D01*
X171887335Y-42510372D01*
X171910976Y-42534179D01*
X171911561Y-42534804D01*
X171912078Y-42535470D01*
X171938068Y-42561460D01*
X172010185Y-42634082D01*
X172011222Y-42634740D01*
X172012451Y-42635843D01*
X172330350Y-42953742D01*
X172364376Y-43016054D01*
X172359311Y-43086869D01*
X172316764Y-43143705D01*
X172309677Y-43148641D01*
X172297339Y-43156620D01*
X172293309Y-43165511D01*
X172293309Y-43443441D01*
X172275763Y-43507580D01*
X172259415Y-43535223D01*
X172213703Y-43692566D01*
X172213199Y-43698971D01*
X172213198Y-43698976D01*
X172212500Y-43707851D01*
X172210809Y-43729336D01*
X172210809Y-44200304D01*
X172211002Y-44202752D01*
X172211002Y-44202760D01*
X172212493Y-44221696D01*
X172213703Y-44237074D01*
X172259415Y-44394417D01*
X172263450Y-44401239D01*
X172263450Y-44401240D01*
X172275763Y-44422060D01*
X172293309Y-44486199D01*
X172293309Y-44758378D01*
X172295205Y-44764835D01*
X172300309Y-44800333D01*
X172300309Y-45122849D01*
X172293547Y-45154158D01*
X172293309Y-45157551D01*
X172293309Y-45443441D01*
X172275763Y-45507580D01*
X172259415Y-45535223D01*
X172213703Y-45692566D01*
X172213199Y-45698971D01*
X172213198Y-45698976D01*
X172212500Y-45707851D01*
X172210809Y-45729336D01*
X172210809Y-46200304D01*
X172211002Y-46202752D01*
X172211002Y-46202760D01*
X172212493Y-46221696D01*
X172213703Y-46237074D01*
X172259415Y-46394417D01*
X172263450Y-46401239D01*
X172263450Y-46401240D01*
X172275763Y-46422060D01*
X172293309Y-46486199D01*
X172293309Y-46758378D01*
X172297282Y-46771909D01*
X172305180Y-46773044D01*
X172431093Y-46736463D01*
X172445531Y-46730215D01*
X172454681Y-46724804D01*
X172523497Y-46707346D01*
X172582956Y-46724805D01*
X172589088Y-46728431D01*
X172599712Y-46734714D01*
X172607323Y-46736925D01*
X172607325Y-46736926D01*
X172645274Y-46747951D01*
X172757055Y-46780426D01*
X172763460Y-46780930D01*
X172763465Y-46780931D01*
X172791369Y-46783127D01*
X172791377Y-46783127D01*
X172793825Y-46783320D01*
X172905070Y-46783320D01*
X172973191Y-46803322D01*
X172994165Y-46820225D01*
X173150345Y-46976405D01*
X173184371Y-47038717D01*
X173179306Y-47109532D01*
X173136759Y-47166368D01*
X173070239Y-47191179D01*
X173061250Y-47191500D01*
X171104239Y-47191500D01*
X171036118Y-47171498D01*
X171015144Y-47154595D01*
X170645405Y-46784856D01*
X170611379Y-46722544D01*
X170608500Y-46695761D01*
X170608500Y-46233595D01*
X171254246Y-46233595D01*
X171255997Y-46243179D01*
X171297666Y-46386604D01*
X171303913Y-46401040D01*
X171379185Y-46528319D01*
X171388825Y-46540746D01*
X171493383Y-46645304D01*
X171505810Y-46654944D01*
X171633089Y-46730216D01*
X171647525Y-46736463D01*
X171767914Y-46771439D01*
X171782014Y-46771399D01*
X171785309Y-46764129D01*
X171785309Y-46236935D01*
X171780834Y-46221696D01*
X171779444Y-46220491D01*
X171771761Y-46218820D01*
X171270885Y-46218820D01*
X171256090Y-46223164D01*
X171254246Y-46233595D01*
X170608500Y-46233595D01*
X170608500Y-46048144D01*
X170609578Y-46031698D01*
X170612673Y-46008188D01*
X170613751Y-46000000D01*
X170592838Y-45841149D01*
X170532065Y-45694429D01*
X171254541Y-45694429D01*
X171257361Y-45707851D01*
X171268822Y-45710820D01*
X171767194Y-45710820D01*
X171782433Y-45706345D01*
X171783638Y-45704955D01*
X171785309Y-45697272D01*
X171785309Y-45171262D01*
X171781336Y-45157731D01*
X171773438Y-45156596D01*
X171647525Y-45193177D01*
X171633089Y-45199424D01*
X171505810Y-45274696D01*
X171493383Y-45284336D01*
X171388825Y-45388894D01*
X171379185Y-45401321D01*
X171303913Y-45528600D01*
X171297666Y-45543036D01*
X171255997Y-45686461D01*
X171254541Y-45694429D01*
X170532065Y-45694429D01*
X170531524Y-45693124D01*
X170458478Y-45597929D01*
X170458474Y-45597925D01*
X170458471Y-45597921D01*
X170439016Y-45572566D01*
X170439013Y-45572563D01*
X170433987Y-45566013D01*
X170427432Y-45560983D01*
X170408621Y-45546548D01*
X170396230Y-45535681D01*
X169094144Y-44233595D01*
X171254246Y-44233595D01*
X171255997Y-44243179D01*
X171297666Y-44386604D01*
X171303913Y-44401040D01*
X171379185Y-44528319D01*
X171388825Y-44540746D01*
X171493383Y-44645304D01*
X171505810Y-44654944D01*
X171633089Y-44730216D01*
X171647525Y-44736463D01*
X171767914Y-44771439D01*
X171782014Y-44771399D01*
X171785309Y-44764129D01*
X171785309Y-44236935D01*
X171780834Y-44221696D01*
X171779444Y-44220491D01*
X171771761Y-44218820D01*
X171270885Y-44218820D01*
X171256090Y-44223164D01*
X171254246Y-44233595D01*
X169094144Y-44233595D01*
X168554978Y-43694429D01*
X171254541Y-43694429D01*
X171257361Y-43707851D01*
X171268822Y-43710820D01*
X171767194Y-43710820D01*
X171782433Y-43706345D01*
X171783638Y-43704955D01*
X171785309Y-43697272D01*
X171785309Y-43171262D01*
X171781336Y-43157731D01*
X171773438Y-43156596D01*
X171647525Y-43193177D01*
X171633089Y-43199424D01*
X171505810Y-43274696D01*
X171493383Y-43284336D01*
X171388825Y-43388894D01*
X171379185Y-43401321D01*
X171303913Y-43528600D01*
X171297666Y-43543036D01*
X171255997Y-43686461D01*
X171254541Y-43694429D01*
X168554978Y-43694429D01*
X167645405Y-42784856D01*
X167611379Y-42722544D01*
X167608500Y-42695761D01*
X167608500Y-36583248D01*
X167629552Y-36513521D01*
X167719742Y-36377773D01*
X167723643Y-36371902D01*
X167788055Y-36202338D01*
X167813299Y-36022717D01*
X167813616Y-36000000D01*
X167793397Y-35819745D01*
X167749303Y-35693124D01*
X167736064Y-35655106D01*
X167736062Y-35655103D01*
X167733745Y-35648448D01*
X167637626Y-35494624D01*
X167632664Y-35489627D01*
X167514778Y-35370915D01*
X167514774Y-35370912D01*
X167509815Y-35365918D01*
X167356666Y-35268727D01*
X167276185Y-35240069D01*
X167192425Y-35210243D01*
X167192420Y-35210242D01*
X167185790Y-35207881D01*
X167178802Y-35207048D01*
X167178799Y-35207047D01*
X167055698Y-35192368D01*
X167005680Y-35186404D01*
X166998677Y-35187140D01*
X166998676Y-35187140D01*
X166832288Y-35204628D01*
X166832286Y-35204629D01*
X166825288Y-35205364D01*
X166735094Y-35236068D01*
X166660249Y-35261547D01*
X166660246Y-35261548D01*
X166653579Y-35263818D01*
X166647580Y-35267508D01*
X166647577Y-35267510D01*
X166639457Y-35272506D01*
X166625521Y-35281080D01*
X166623510Y-35282317D01*
X166557487Y-35301000D01*
X166341725Y-35301000D01*
X166273604Y-35280998D01*
X166252630Y-35264095D01*
X165036905Y-34048370D01*
X165002879Y-33986058D01*
X165000000Y-33959275D01*
X165000000Y-32268775D01*
X172734937Y-32268775D01*
X172736688Y-32278359D01*
X172778357Y-32421784D01*
X172784604Y-32436220D01*
X172859876Y-32563499D01*
X172869516Y-32575926D01*
X172974074Y-32680484D01*
X172986501Y-32690124D01*
X173113780Y-32765396D01*
X173128216Y-32771643D01*
X173248605Y-32806619D01*
X173262705Y-32806579D01*
X173266000Y-32799309D01*
X173266000Y-32272115D01*
X173261525Y-32256876D01*
X173260135Y-32255671D01*
X173252452Y-32254000D01*
X172751576Y-32254000D01*
X172736781Y-32258344D01*
X172734937Y-32268775D01*
X165000000Y-32268775D01*
X165000000Y-31729609D01*
X172735232Y-31729609D01*
X172738052Y-31743031D01*
X172749513Y-31746000D01*
X173247885Y-31746000D01*
X173263124Y-31741525D01*
X173264329Y-31740135D01*
X173266000Y-31732452D01*
X173266000Y-31206442D01*
X173262027Y-31192911D01*
X173254129Y-31191776D01*
X173128216Y-31228357D01*
X173113780Y-31234604D01*
X172986501Y-31309876D01*
X172974074Y-31319516D01*
X172869516Y-31424074D01*
X172859876Y-31436501D01*
X172784604Y-31563780D01*
X172778357Y-31578216D01*
X172736688Y-31721641D01*
X172735232Y-31729609D01*
X165000000Y-31729609D01*
X165000000Y-30076516D01*
X165020002Y-30008395D01*
X165073658Y-29961902D01*
X165143932Y-29951798D01*
X165200061Y-29974580D01*
X165403221Y-30122184D01*
X165406690Y-30124091D01*
X165406693Y-30124093D01*
X165675734Y-30272000D01*
X165679821Y-30274247D01*
X165683490Y-30275700D01*
X165683495Y-30275702D01*
X165969628Y-30388990D01*
X165973298Y-30390443D01*
X166279025Y-30468940D01*
X166592179Y-30508500D01*
X166907821Y-30508500D01*
X167220975Y-30468940D01*
X167526702Y-30390443D01*
X167530372Y-30388990D01*
X167816505Y-30275702D01*
X167816510Y-30275700D01*
X167820179Y-30274247D01*
X167824266Y-30272000D01*
X168093307Y-30124093D01*
X168093310Y-30124091D01*
X168096779Y-30122184D01*
X168317389Y-29961902D01*
X168348936Y-29938982D01*
X168348938Y-29938981D01*
X168352140Y-29936654D01*
X168582233Y-29720582D01*
X168584804Y-29717475D01*
X168716321Y-29558498D01*
X168783432Y-29477375D01*
X168939337Y-29231709D01*
X168950438Y-29214216D01*
X168950438Y-29214215D01*
X168952562Y-29210869D01*
X168954246Y-29207290D01*
X168954250Y-29207283D01*
X169085267Y-28928856D01*
X169085269Y-28928852D01*
X169086956Y-28925266D01*
X169095023Y-28900440D01*
X169137449Y-28769865D01*
X169184495Y-28625072D01*
X169243641Y-28315020D01*
X169263460Y-28000000D01*
X169243641Y-27684980D01*
X169184495Y-27374928D01*
X169086956Y-27074734D01*
X169029133Y-26951853D01*
X168954250Y-26792717D01*
X168954246Y-26792710D01*
X168952562Y-26789131D01*
X168783432Y-26522625D01*
X168654700Y-26367015D01*
X168584758Y-26282470D01*
X168584757Y-26282469D01*
X168582233Y-26279418D01*
X168568898Y-26266895D01*
X168517133Y-26218285D01*
X168352140Y-26063346D01*
X168332779Y-26049279D01*
X168240567Y-25982284D01*
X168096779Y-25877816D01*
X167867946Y-25752013D01*
X167823648Y-25727660D01*
X167823647Y-25727659D01*
X167820179Y-25725753D01*
X167816510Y-25724300D01*
X167816505Y-25724298D01*
X167530372Y-25611010D01*
X167530371Y-25611010D01*
X167526702Y-25609557D01*
X167220975Y-25531060D01*
X166907821Y-25491500D01*
X166592179Y-25491500D01*
X166279025Y-25531060D01*
X165973298Y-25609557D01*
X165969629Y-25611010D01*
X165969628Y-25611010D01*
X165683495Y-25724298D01*
X165683490Y-25724300D01*
X165679821Y-25725753D01*
X165676353Y-25727659D01*
X165676352Y-25727660D01*
X165632055Y-25752013D01*
X165403221Y-25877816D01*
X165259433Y-25982284D01*
X165200061Y-26025420D01*
X165133193Y-26049279D01*
X165064042Y-26033198D01*
X165014561Y-25982284D01*
X165000000Y-25923484D01*
X165000000Y-23726657D01*
X174672000Y-23726657D01*
X174672301Y-23732805D01*
X174685812Y-23870603D01*
X174688195Y-23882638D01*
X174741767Y-24060076D01*
X174746441Y-24071416D01*
X174833460Y-24235077D01*
X174840249Y-24245294D01*
X174957397Y-24388933D01*
X174966041Y-24397637D01*
X175108856Y-24515784D01*
X175119027Y-24522644D01*
X175282076Y-24610804D01*
X175293381Y-24615556D01*
X175408692Y-24651250D01*
X175422795Y-24651456D01*
X175426000Y-24644701D01*
X175426000Y-23402115D01*
X175421525Y-23386876D01*
X175420135Y-23385671D01*
X175412452Y-23384000D01*
X174690115Y-23384000D01*
X174674876Y-23388475D01*
X174673671Y-23389865D01*
X174672000Y-23397548D01*
X174672000Y-23726657D01*
X165000000Y-23726657D01*
X165000000Y-22857885D01*
X174672000Y-22857885D01*
X174676475Y-22873124D01*
X174677865Y-22874329D01*
X174685548Y-22876000D01*
X175407885Y-22876000D01*
X175423124Y-22871525D01*
X175424329Y-22870135D01*
X175426000Y-22862452D01*
X175426000Y-21622076D01*
X175422027Y-21608545D01*
X175414232Y-21607425D01*
X175306479Y-21639138D01*
X175295111Y-21643731D01*
X175130846Y-21729607D01*
X175120585Y-21736321D01*
X174976127Y-21852468D01*
X174967368Y-21861046D01*
X174848222Y-22003039D01*
X174841292Y-22013159D01*
X174751998Y-22175585D01*
X174747166Y-22186858D01*
X174691120Y-22363538D01*
X174688570Y-22375532D01*
X174672393Y-22519761D01*
X174672000Y-22526785D01*
X174672000Y-22857885D01*
X165000000Y-22857885D01*
X165000000Y-21126000D01*
X165020002Y-21057879D01*
X165073658Y-21011386D01*
X165126000Y-21000000D01*
X194874000Y-21000000D01*
X194942121Y-21020002D01*
G37*
%TD.AperFunction*%
%TA.AperFunction,Conductor*%
G36*
X179170831Y-30682488D02*
G01*
X179227667Y-30725035D01*
X179247796Y-30765391D01*
X179281765Y-30882312D01*
X179290855Y-30913601D01*
X179294893Y-30920428D01*
X179294893Y-30920429D01*
X179333453Y-30985631D01*
X179351000Y-31049770D01*
X179351000Y-31923098D01*
X179333455Y-31987234D01*
X179291753Y-32057748D01*
X179289542Y-32065359D01*
X179289541Y-32065361D01*
X179282706Y-32088888D01*
X179246393Y-32213878D01*
X179245889Y-32220285D01*
X179245888Y-32220289D01*
X179244774Y-32234449D01*
X179243522Y-32250355D01*
X179243523Y-32650332D01*
X179246393Y-32686810D01*
X179248190Y-32692994D01*
X179284653Y-32818500D01*
X179291753Y-32842940D01*
X179295789Y-32849765D01*
X179295791Y-32849769D01*
X179323253Y-32896205D01*
X179340713Y-32965021D01*
X179323253Y-33024483D01*
X179295791Y-33070919D01*
X179295789Y-33070923D01*
X179291753Y-33077748D01*
X179289542Y-33085359D01*
X179289541Y-33085361D01*
X179271062Y-33148967D01*
X179246393Y-33233878D01*
X179245889Y-33240285D01*
X179245888Y-33240289D01*
X179243715Y-33267900D01*
X179243522Y-33270355D01*
X179243523Y-33670332D01*
X179246393Y-33706810D01*
X179291753Y-33862940D01*
X179295788Y-33869762D01*
X179295788Y-33869763D01*
X179368795Y-33993212D01*
X179374516Y-34002885D01*
X179426617Y-34054986D01*
X179460643Y-34117298D01*
X179463522Y-34144081D01*
X179463522Y-36623739D01*
X179443520Y-36691860D01*
X179426617Y-36712834D01*
X176603766Y-39535685D01*
X176591375Y-39546552D01*
X176566013Y-39566013D01*
X176541526Y-39597925D01*
X176541523Y-39597928D01*
X176541517Y-39597936D01*
X176474378Y-39685433D01*
X176468476Y-39693124D01*
X176416028Y-39819745D01*
X176407162Y-39841150D01*
X176391500Y-39960115D01*
X176391500Y-39960120D01*
X176386250Y-40000000D01*
X176387328Y-40008188D01*
X176390422Y-40031690D01*
X176391500Y-40048136D01*
X176391500Y-41626759D01*
X176371498Y-41694880D01*
X176317842Y-41741373D01*
X176265500Y-41752759D01*
X176222313Y-41752759D01*
X176217384Y-41752952D01*
X176189526Y-41755145D01*
X176176923Y-41757447D01*
X176033498Y-41799116D01*
X176019062Y-41805363D01*
X175891783Y-41880635D01*
X175879361Y-41890271D01*
X175827117Y-41942516D01*
X175764805Y-41976541D01*
X175693990Y-41971477D01*
X175648926Y-41942516D01*
X175575926Y-41869516D01*
X175563499Y-41859876D01*
X175436220Y-41784604D01*
X175421784Y-41778357D01*
X175278359Y-41736688D01*
X175270391Y-41735232D01*
X175256969Y-41738052D01*
X175254000Y-41749513D01*
X175254000Y-42247885D01*
X175258475Y-42263124D01*
X175259865Y-42264329D01*
X175267548Y-42266000D01*
X175794841Y-42266000D01*
X175848365Y-42281716D01*
X175871548Y-42286759D01*
X176312486Y-42286759D01*
X176380607Y-42306761D01*
X176428894Y-42364540D01*
X176468476Y-42460099D01*
X176494968Y-42494624D01*
X176506425Y-42509555D01*
X176532026Y-42575775D01*
X176517761Y-42645324D01*
X176468160Y-42696120D01*
X176406463Y-42712259D01*
X176219798Y-42712259D01*
X176217350Y-42712452D01*
X176217342Y-42712452D01*
X176189438Y-42714648D01*
X176189433Y-42714649D01*
X176183028Y-42715153D01*
X176097139Y-42740106D01*
X176033298Y-42758653D01*
X176033296Y-42758654D01*
X176025685Y-42760865D01*
X176018863Y-42764900D01*
X176018862Y-42764900D01*
X175998042Y-42777213D01*
X175933903Y-42794759D01*
X175660441Y-42794759D01*
X175606917Y-42779043D01*
X175583734Y-42774000D01*
X175521379Y-42774000D01*
X175457240Y-42756454D01*
X175436420Y-42744141D01*
X175436419Y-42744141D01*
X175429597Y-42740106D01*
X175421986Y-42737895D01*
X175421984Y-42737894D01*
X175349886Y-42716948D01*
X175272254Y-42694394D01*
X175265849Y-42693890D01*
X175265844Y-42693889D01*
X175237940Y-42691693D01*
X175237932Y-42691693D01*
X175235484Y-42691500D01*
X175212518Y-42691500D01*
X175191343Y-42688975D01*
X175191315Y-42689197D01*
X175051231Y-42671500D01*
X174872000Y-42671500D01*
X174803879Y-42651498D01*
X174757386Y-42597842D01*
X174746000Y-42545500D01*
X174746000Y-41751576D01*
X174741656Y-41736781D01*
X174731225Y-41734937D01*
X174721641Y-41736688D01*
X174578216Y-41778357D01*
X174563780Y-41784604D01*
X174436501Y-41859876D01*
X174424074Y-41869516D01*
X174319516Y-41974074D01*
X174309876Y-41986501D01*
X174234604Y-42113780D01*
X174228357Y-42128216D01*
X174189475Y-42262049D01*
X174151262Y-42321884D01*
X174086766Y-42351562D01*
X174016463Y-42341659D01*
X173979383Y-42315991D01*
X173365405Y-41702013D01*
X173331379Y-41639701D01*
X173328500Y-41612918D01*
X173328500Y-40793558D01*
X173734000Y-40793558D01*
X173737973Y-40807089D01*
X173745871Y-40808224D01*
X173871784Y-40771643D01*
X173886220Y-40765396D01*
X174013499Y-40690124D01*
X174025926Y-40680484D01*
X174130484Y-40575926D01*
X174140124Y-40563499D01*
X174215396Y-40436220D01*
X174221643Y-40421784D01*
X174263312Y-40278359D01*
X174264768Y-40270391D01*
X174261948Y-40256969D01*
X174250487Y-40254000D01*
X173752115Y-40254000D01*
X173736876Y-40258475D01*
X173735671Y-40259865D01*
X173734000Y-40267548D01*
X173734000Y-40793558D01*
X173328500Y-40793558D01*
X173328500Y-39727885D01*
X173734000Y-39727885D01*
X173738475Y-39743124D01*
X173739865Y-39744329D01*
X173747548Y-39746000D01*
X174248424Y-39746000D01*
X174263219Y-39741656D01*
X174265063Y-39731225D01*
X174263312Y-39721641D01*
X174221643Y-39578216D01*
X174215395Y-39563779D01*
X174211172Y-39556638D01*
X174193713Y-39487821D01*
X174211172Y-39428362D01*
X174215395Y-39421221D01*
X174221643Y-39406784D01*
X174263312Y-39263359D01*
X174264768Y-39255391D01*
X174261948Y-39241969D01*
X174250487Y-39239000D01*
X173752115Y-39239000D01*
X173736876Y-39243475D01*
X173735671Y-39244865D01*
X173734000Y-39252548D01*
X173734000Y-39727885D01*
X173328500Y-39727885D01*
X173328500Y-38712885D01*
X173734000Y-38712885D01*
X173738475Y-38728124D01*
X173739865Y-38729329D01*
X173747548Y-38731000D01*
X174248424Y-38731000D01*
X174263219Y-38726656D01*
X174265063Y-38716225D01*
X174263312Y-38706641D01*
X174221643Y-38563216D01*
X174215396Y-38548780D01*
X174140124Y-38421501D01*
X174130484Y-38409074D01*
X174025926Y-38304516D01*
X174013499Y-38294876D01*
X173886220Y-38219604D01*
X173871784Y-38213357D01*
X173751395Y-38178381D01*
X173737295Y-38178421D01*
X173734000Y-38185691D01*
X173734000Y-38712885D01*
X173328500Y-38712885D01*
X173328500Y-37867082D01*
X173348502Y-37798961D01*
X173365405Y-37777987D01*
X173922987Y-37220405D01*
X173985299Y-37186379D01*
X174012082Y-37183500D01*
X174266502Y-37183500D01*
X174268950Y-37183307D01*
X174268958Y-37183307D01*
X174297421Y-37181067D01*
X174297426Y-37181066D01*
X174303831Y-37180562D01*
X174442364Y-37140315D01*
X174455988Y-37136357D01*
X174455990Y-37136356D01*
X174463601Y-37134145D01*
X174549110Y-37083575D01*
X174599980Y-37053491D01*
X174599983Y-37053489D01*
X174606807Y-37049453D01*
X174724453Y-36931807D01*
X174728489Y-36924983D01*
X174728491Y-36924980D01*
X174805108Y-36795427D01*
X174809145Y-36788601D01*
X174811415Y-36780790D01*
X174834490Y-36701361D01*
X174855562Y-36628831D01*
X174856074Y-36622336D01*
X174858307Y-36593958D01*
X174858307Y-36593950D01*
X174858500Y-36591502D01*
X174858500Y-36588984D01*
X175142001Y-36588984D01*
X175142195Y-36593920D01*
X175144430Y-36622336D01*
X175146730Y-36634931D01*
X175189107Y-36780790D01*
X175195352Y-36795221D01*
X175271911Y-36924678D01*
X175281551Y-36937104D01*
X175387896Y-37043449D01*
X175400322Y-37053089D01*
X175529779Y-37129648D01*
X175544210Y-37135893D01*
X175678605Y-37174939D01*
X175692706Y-37174899D01*
X175696000Y-37167630D01*
X175696000Y-37161878D01*
X176204000Y-37161878D01*
X176207973Y-37175409D01*
X176215871Y-37176544D01*
X176355790Y-37135893D01*
X176370221Y-37129648D01*
X176499678Y-37053089D01*
X176512104Y-37043449D01*
X176618449Y-36937104D01*
X176628089Y-36924678D01*
X176704648Y-36795221D01*
X176710893Y-36780790D01*
X176753269Y-36634935D01*
X176755570Y-36622333D01*
X176757807Y-36593916D01*
X176758000Y-36588986D01*
X176758000Y-36209615D01*
X176753525Y-36194376D01*
X176752135Y-36193171D01*
X176744452Y-36191500D01*
X176222115Y-36191500D01*
X176206876Y-36195975D01*
X176205671Y-36197365D01*
X176204000Y-36205048D01*
X176204000Y-37161878D01*
X175696000Y-37161878D01*
X175696000Y-36209615D01*
X175691525Y-36194376D01*
X175690135Y-36193171D01*
X175682452Y-36191500D01*
X175160116Y-36191500D01*
X175144877Y-36195975D01*
X175143672Y-36197365D01*
X175142001Y-36205048D01*
X175142001Y-36588984D01*
X174858500Y-36588984D01*
X174858500Y-35434500D01*
X174878502Y-35366379D01*
X174932158Y-35319886D01*
X174984500Y-35308500D01*
X175016000Y-35308500D01*
X175084121Y-35328502D01*
X175130614Y-35382158D01*
X175142000Y-35434500D01*
X175142000Y-35665385D01*
X175146475Y-35680624D01*
X175147865Y-35681829D01*
X175155548Y-35683500D01*
X175677885Y-35683500D01*
X175693124Y-35679025D01*
X175694329Y-35677635D01*
X175696000Y-35669952D01*
X175696000Y-35665385D01*
X176204000Y-35665385D01*
X176208475Y-35680624D01*
X176209865Y-35681829D01*
X176217548Y-35683500D01*
X176739884Y-35683500D01*
X176755123Y-35679025D01*
X176756328Y-35677635D01*
X176757999Y-35669952D01*
X176757999Y-35286017D01*
X176757805Y-35281080D01*
X176755570Y-35252664D01*
X176753270Y-35240069D01*
X176710893Y-35094210D01*
X176704648Y-35079779D01*
X176628089Y-34950322D01*
X176618449Y-34937896D01*
X176512104Y-34831551D01*
X176499678Y-34821911D01*
X176370221Y-34745352D01*
X176355790Y-34739107D01*
X176221395Y-34700061D01*
X176207294Y-34700101D01*
X176204000Y-34707370D01*
X176204000Y-35665385D01*
X175696000Y-35665385D01*
X175696000Y-35054842D01*
X175713547Y-34990703D01*
X175755108Y-34920427D01*
X175759145Y-34913601D01*
X175805562Y-34753831D01*
X175806230Y-34745352D01*
X175808307Y-34718958D01*
X175808307Y-34718950D01*
X175808500Y-34716502D01*
X175808500Y-34449583D01*
X175828502Y-34381462D01*
X175845404Y-34360488D01*
X176565111Y-33640780D01*
X176566049Y-33639851D01*
X176625475Y-33581657D01*
X176625476Y-33581656D01*
X176630507Y-33576729D01*
X176634322Y-33570810D01*
X176634328Y-33570802D01*
X176653994Y-33540286D01*
X176661427Y-33529941D01*
X176688476Y-33496057D01*
X176703073Y-33465862D01*
X176710602Y-33452445D01*
X176724948Y-33430184D01*
X176728765Y-33424262D01*
X176731173Y-33417645D01*
X176731176Y-33417640D01*
X176743592Y-33383527D01*
X176748553Y-33371784D01*
X176764353Y-33339100D01*
X176764356Y-33339091D01*
X176767421Y-33332751D01*
X176774966Y-33300072D01*
X176779334Y-33285325D01*
X176783884Y-33272824D01*
X176790803Y-33253815D01*
X176791685Y-33246830D01*
X176791687Y-33246823D01*
X176796237Y-33210808D01*
X176798472Y-33198257D01*
X176806640Y-33162878D01*
X176808225Y-33156015D01*
X176808367Y-33115426D01*
X176808396Y-33114557D01*
X176808500Y-33113731D01*
X176808500Y-33077214D01*
X176808522Y-33070919D01*
X176808846Y-32978164D01*
X176808846Y-32978158D01*
X176808858Y-32974630D01*
X176808589Y-32973427D01*
X176808500Y-32971783D01*
X176808500Y-32055905D01*
X176809386Y-32040986D01*
X176812762Y-32012673D01*
X176813596Y-32005680D01*
X176811942Y-31989938D01*
X176809190Y-31963760D01*
X176808500Y-31950589D01*
X176808500Y-31604197D01*
X176828502Y-31536076D01*
X176882158Y-31489583D01*
X176894623Y-31484674D01*
X176942002Y-31468867D01*
X176942004Y-31468866D01*
X176948946Y-31466550D01*
X176955627Y-31462416D01*
X177093120Y-31377332D01*
X177099348Y-31373478D01*
X177224305Y-31248303D01*
X177232749Y-31234604D01*
X177279424Y-31158884D01*
X177332197Y-31111391D01*
X177386684Y-31099000D01*
X178332019Y-31099000D01*
X178340589Y-31099292D01*
X178389895Y-31102654D01*
X178389899Y-31102654D01*
X178397470Y-31103170D01*
X178404946Y-31101865D01*
X178404950Y-31101865D01*
X178459542Y-31092337D01*
X178466067Y-31091374D01*
X178521036Y-31084722D01*
X178521038Y-31084721D01*
X178528578Y-31083809D01*
X178535680Y-31081125D01*
X178539118Y-31080281D01*
X178553241Y-31076417D01*
X178556652Y-31075387D01*
X178564135Y-31074081D01*
X178621815Y-31048761D01*
X178627922Y-31046270D01*
X178679735Y-31026691D01*
X178679736Y-31026690D01*
X178686840Y-31024006D01*
X178693095Y-31019707D01*
X178696236Y-31018065D01*
X178708990Y-31010967D01*
X178712096Y-31009130D01*
X178719051Y-31006077D01*
X178725078Y-31001452D01*
X178725082Y-31001450D01*
X178769020Y-30967735D01*
X178774338Y-30963871D01*
X178826270Y-30928179D01*
X178846042Y-30905988D01*
X178867136Y-30882312D01*
X178872117Y-30877036D01*
X179037704Y-30711449D01*
X179100016Y-30677423D01*
X179170831Y-30682488D01*
G37*
%TD.AperFunction*%
%TA.AperFunction,Conductor*%
G36*
X182967012Y-27353370D02*
G01*
X182973595Y-27359499D01*
X183134596Y-27520500D01*
X183168622Y-27582812D01*
X183171501Y-27609595D01*
X183171501Y-27689988D01*
X183174371Y-27726466D01*
X183219731Y-27882596D01*
X183251523Y-27936353D01*
X183268982Y-28005166D01*
X183251522Y-28064630D01*
X183224229Y-28110780D01*
X183217981Y-28125217D01*
X183185039Y-28238605D01*
X183185079Y-28252705D01*
X183192349Y-28256000D01*
X183662458Y-28256000D01*
X183697610Y-28261003D01*
X183707353Y-28263834D01*
X183707360Y-28263835D01*
X183713534Y-28265629D01*
X183719941Y-28266133D01*
X183719945Y-28266134D01*
X183747556Y-28268307D01*
X183747562Y-28268307D01*
X183750011Y-28268500D01*
X183759930Y-28268500D01*
X184128001Y-28268499D01*
X184196120Y-28288501D01*
X184242613Y-28342156D01*
X184254000Y-28394499D01*
X184254000Y-29269566D01*
X184258344Y-29284361D01*
X184270003Y-29286421D01*
X184279977Y-29285637D01*
X184292564Y-29283338D01*
X184434783Y-29242019D01*
X184438510Y-29240406D01*
X184441682Y-29240015D01*
X184442396Y-29239807D01*
X184442429Y-29239922D01*
X184508972Y-29231709D01*
X184572950Y-29262487D01*
X184610133Y-29322968D01*
X184614551Y-29356043D01*
X184614551Y-29589952D01*
X184614259Y-29598522D01*
X184610924Y-29647441D01*
X184610381Y-29655403D01*
X184611686Y-29662879D01*
X184611686Y-29662883D01*
X184621214Y-29717475D01*
X184622177Y-29724000D01*
X184629742Y-29786511D01*
X184632426Y-29793613D01*
X184633270Y-29797051D01*
X184637134Y-29811174D01*
X184638164Y-29814585D01*
X184639470Y-29822068D01*
X184642523Y-29829023D01*
X184664790Y-29879749D01*
X184667281Y-29885855D01*
X184685453Y-29933943D01*
X184689545Y-29944773D01*
X184693844Y-29951028D01*
X184695486Y-29954169D01*
X184702584Y-29966923D01*
X184704421Y-29970029D01*
X184707474Y-29976984D01*
X184712099Y-29983011D01*
X184712101Y-29983015D01*
X184745816Y-30026953D01*
X184749680Y-30032271D01*
X184785372Y-30084203D01*
X184831248Y-30125077D01*
X184836506Y-30130041D01*
X185249596Y-30543132D01*
X185283621Y-30605444D01*
X185286500Y-30632227D01*
X185286500Y-31116502D01*
X185286693Y-31118950D01*
X185286693Y-31118958D01*
X185288927Y-31147333D01*
X185289438Y-31153831D01*
X185312905Y-31234605D01*
X185333586Y-31305790D01*
X185335855Y-31313601D01*
X185339892Y-31320427D01*
X185416509Y-31449980D01*
X185416511Y-31449983D01*
X185420547Y-31456807D01*
X185538193Y-31574453D01*
X185545017Y-31578489D01*
X185545020Y-31578491D01*
X185625166Y-31625889D01*
X185681399Y-31659145D01*
X185689010Y-31661356D01*
X185689012Y-31661357D01*
X185707882Y-31666839D01*
X185841169Y-31705562D01*
X185847574Y-31706066D01*
X185847579Y-31706067D01*
X185876042Y-31708307D01*
X185876050Y-31708307D01*
X185878498Y-31708500D01*
X186311502Y-31708500D01*
X186313950Y-31708307D01*
X186313958Y-31708307D01*
X186342421Y-31706067D01*
X186342426Y-31706066D01*
X186348831Y-31705562D01*
X186482118Y-31666839D01*
X186500988Y-31661357D01*
X186500990Y-31661356D01*
X186508601Y-31659145D01*
X186651807Y-31574453D01*
X186654489Y-31571771D01*
X186718861Y-31546498D01*
X186788484Y-31560400D01*
X186804312Y-31570572D01*
X186808193Y-31574453D01*
X186951399Y-31659145D01*
X186959010Y-31661356D01*
X186959012Y-31661357D01*
X186977882Y-31666839D01*
X187111169Y-31705562D01*
X187117574Y-31706066D01*
X187117579Y-31706067D01*
X187146042Y-31708307D01*
X187146050Y-31708307D01*
X187148498Y-31708500D01*
X187581502Y-31708500D01*
X187583950Y-31708307D01*
X187583958Y-31708307D01*
X187612421Y-31706067D01*
X187612426Y-31706066D01*
X187618831Y-31705562D01*
X187752118Y-31666839D01*
X187770988Y-31661357D01*
X187770990Y-31661356D01*
X187778601Y-31659145D01*
X187842506Y-31621351D01*
X187911320Y-31603893D01*
X187978652Y-31626410D01*
X188023121Y-31681754D01*
X188031565Y-31713358D01*
X188034456Y-31735315D01*
X188034456Y-31735317D01*
X188037128Y-31755612D01*
X188042162Y-31793851D01*
X188103476Y-31941876D01*
X188108503Y-31948427D01*
X188108504Y-31948429D01*
X188176520Y-32037069D01*
X188176526Y-32037075D01*
X188201013Y-32068987D01*
X188207568Y-32074017D01*
X188226379Y-32088452D01*
X188238770Y-32099319D01*
X191354595Y-35215144D01*
X191388621Y-35277456D01*
X191391500Y-35304239D01*
X191391500Y-37695761D01*
X191371498Y-37763882D01*
X191354595Y-37784856D01*
X190928595Y-38210856D01*
X190866283Y-38244882D01*
X190795468Y-38239817D01*
X190738632Y-38197270D01*
X190713821Y-38130750D01*
X190713500Y-38121761D01*
X190713500Y-36883498D01*
X190710562Y-36846169D01*
X190664145Y-36686399D01*
X190626838Y-36623316D01*
X190583491Y-36550020D01*
X190583489Y-36550017D01*
X190579453Y-36543193D01*
X190461807Y-36425547D01*
X190454983Y-36421511D01*
X190454980Y-36421509D01*
X190325427Y-36344892D01*
X190325428Y-36344892D01*
X190318601Y-36340855D01*
X190310990Y-36338644D01*
X190310988Y-36338643D01*
X190258769Y-36323472D01*
X190158831Y-36294438D01*
X190152426Y-36293934D01*
X190152421Y-36293933D01*
X190123958Y-36291693D01*
X190123950Y-36291693D01*
X190121502Y-36291500D01*
X189688498Y-36291500D01*
X189686050Y-36291693D01*
X189686042Y-36291693D01*
X189657579Y-36293933D01*
X189657574Y-36293934D01*
X189651169Y-36294438D01*
X189551231Y-36323472D01*
X189499012Y-36338643D01*
X189499010Y-36338644D01*
X189491399Y-36340855D01*
X189348193Y-36425547D01*
X189345511Y-36428229D01*
X189281139Y-36453502D01*
X189211516Y-36439600D01*
X189195688Y-36429428D01*
X189191807Y-36425547D01*
X189048601Y-36340855D01*
X189040990Y-36338644D01*
X189040988Y-36338643D01*
X188988769Y-36323472D01*
X188888831Y-36294438D01*
X188882426Y-36293934D01*
X188882421Y-36293933D01*
X188853958Y-36291693D01*
X188853950Y-36291693D01*
X188851502Y-36291500D01*
X188418498Y-36291500D01*
X188416050Y-36291693D01*
X188416042Y-36291693D01*
X188387579Y-36293933D01*
X188387574Y-36293934D01*
X188381169Y-36294438D01*
X188281231Y-36323472D01*
X188229012Y-36338643D01*
X188229010Y-36338644D01*
X188221399Y-36340855D01*
X188078193Y-36425547D01*
X188075511Y-36428229D01*
X188011139Y-36453502D01*
X187941516Y-36439600D01*
X187925688Y-36429428D01*
X187921807Y-36425547D01*
X187778601Y-36340855D01*
X187770990Y-36338644D01*
X187770988Y-36338643D01*
X187718769Y-36323472D01*
X187618831Y-36294438D01*
X187612426Y-36293934D01*
X187612421Y-36293933D01*
X187583958Y-36291693D01*
X187583950Y-36291693D01*
X187581502Y-36291500D01*
X187148498Y-36291500D01*
X187146050Y-36291693D01*
X187146042Y-36291693D01*
X187117579Y-36293933D01*
X187117574Y-36293934D01*
X187111169Y-36294438D01*
X187011231Y-36323472D01*
X186959012Y-36338643D01*
X186959010Y-36338644D01*
X186951399Y-36340855D01*
X186808193Y-36425547D01*
X186805511Y-36428229D01*
X186741139Y-36453502D01*
X186671516Y-36439600D01*
X186655688Y-36429428D01*
X186651807Y-36425547D01*
X186508601Y-36340855D01*
X186500990Y-36338644D01*
X186500988Y-36338643D01*
X186448769Y-36323472D01*
X186348831Y-36294438D01*
X186342426Y-36293934D01*
X186342421Y-36293933D01*
X186313958Y-36291693D01*
X186313950Y-36291693D01*
X186311502Y-36291500D01*
X185878498Y-36291500D01*
X185876050Y-36291693D01*
X185876042Y-36291693D01*
X185847579Y-36293933D01*
X185847574Y-36293934D01*
X185841169Y-36294438D01*
X185741231Y-36323472D01*
X185689012Y-36338643D01*
X185689010Y-36338644D01*
X185681399Y-36340855D01*
X185674572Y-36344892D01*
X185674573Y-36344892D01*
X185545020Y-36421509D01*
X185545017Y-36421511D01*
X185538193Y-36425547D01*
X185420547Y-36543193D01*
X185416511Y-36550017D01*
X185416509Y-36550020D01*
X185373162Y-36623316D01*
X185335855Y-36686399D01*
X185289438Y-36846169D01*
X185286500Y-36883498D01*
X185286500Y-37517918D01*
X185266498Y-37586039D01*
X185249595Y-37607013D01*
X184434842Y-38421766D01*
X184433905Y-38422694D01*
X184369493Y-38485771D01*
X184346002Y-38522221D01*
X184338583Y-38532546D01*
X184311524Y-38566443D01*
X184308459Y-38572784D01*
X184308458Y-38572785D01*
X184296928Y-38596637D01*
X184289399Y-38610054D01*
X184271235Y-38638238D01*
X184268827Y-38644855D01*
X184268824Y-38644860D01*
X184256408Y-38678973D01*
X184251447Y-38690716D01*
X184235646Y-38723403D01*
X184235644Y-38723408D01*
X184232579Y-38729749D01*
X184230996Y-38736607D01*
X184230995Y-38736609D01*
X184225035Y-38762426D01*
X184220668Y-38777169D01*
X184209197Y-38808685D01*
X184208314Y-38815675D01*
X184208312Y-38815683D01*
X184203762Y-38851701D01*
X184201526Y-38864253D01*
X184191776Y-38906485D01*
X184191751Y-38913530D01*
X184191751Y-38913533D01*
X184191659Y-38940018D01*
X184190666Y-38955369D01*
X184186463Y-38988640D01*
X184187150Y-38995648D01*
X184187150Y-38995660D01*
X184190694Y-39031793D01*
X184191295Y-39044525D01*
X184191143Y-39087870D01*
X184192679Y-39094741D01*
X184198457Y-39120592D01*
X184200890Y-39135780D01*
X184204163Y-39169160D01*
X184217849Y-39210301D01*
X184221254Y-39222578D01*
X184229175Y-39258018D01*
X184229177Y-39258023D01*
X184230711Y-39264887D01*
X184245099Y-39295189D01*
X184250833Y-39309454D01*
X184261418Y-39341273D01*
X184265065Y-39347295D01*
X184283877Y-39378358D01*
X184289920Y-39389581D01*
X184308514Y-39428739D01*
X184312869Y-39434274D01*
X184312872Y-39434278D01*
X184329248Y-39455089D01*
X184338004Y-39467735D01*
X184351728Y-39490396D01*
X184351734Y-39490404D01*
X184355380Y-39496424D01*
X184385502Y-39527617D01*
X184393872Y-39537212D01*
X184416324Y-39565743D01*
X184420684Y-39571283D01*
X184426157Y-39575715D01*
X184426162Y-39575720D01*
X184446745Y-39592387D01*
X184458088Y-39602780D01*
X184481382Y-39626902D01*
X184487278Y-39630760D01*
X184517659Y-39650641D01*
X184527960Y-39658153D01*
X184561648Y-39685433D01*
X184591742Y-39700242D01*
X184605097Y-39707859D01*
X184633159Y-39726222D01*
X184639759Y-39728677D01*
X184639768Y-39728681D01*
X184673794Y-39741335D01*
X184685502Y-39746377D01*
X184724397Y-39765516D01*
X184729774Y-39766797D01*
X184786606Y-39808336D01*
X184812176Y-39874568D01*
X184797879Y-39944110D01*
X184775703Y-39974088D01*
X182482422Y-42267369D01*
X182420110Y-42301395D01*
X182349295Y-42296330D01*
X182341313Y-42293037D01*
X182299310Y-42274000D01*
X182021379Y-42274000D01*
X181957240Y-42256454D01*
X181936420Y-42244141D01*
X181936419Y-42244141D01*
X181929597Y-42240106D01*
X181921986Y-42237895D01*
X181921984Y-42237894D01*
X181857648Y-42219203D01*
X181772254Y-42194394D01*
X181765849Y-42193890D01*
X181765844Y-42193889D01*
X181737940Y-42191693D01*
X181737932Y-42191693D01*
X181735484Y-42191500D01*
X181264516Y-42191500D01*
X181262068Y-42191693D01*
X181262060Y-42191693D01*
X181234156Y-42193889D01*
X181234151Y-42193890D01*
X181227746Y-42194394D01*
X181142352Y-42219203D01*
X181078016Y-42237894D01*
X181078014Y-42237895D01*
X181070403Y-42240106D01*
X181063581Y-42244141D01*
X181063580Y-42244141D01*
X181042760Y-42256454D01*
X180978621Y-42274000D01*
X180706442Y-42274000D01*
X180691203Y-42278475D01*
X180690508Y-42279277D01*
X180664249Y-42336776D01*
X180604523Y-42375159D01*
X180533526Y-42375159D01*
X180501511Y-42360648D01*
X180463894Y-42336776D01*
X180356666Y-42268727D01*
X180322199Y-42256454D01*
X180192425Y-42210243D01*
X180192420Y-42210242D01*
X180185790Y-42207881D01*
X180178802Y-42207048D01*
X180178799Y-42207047D01*
X180055698Y-42192368D01*
X180005680Y-42186404D01*
X179998677Y-42187140D01*
X179998676Y-42187140D01*
X179973018Y-42189837D01*
X179911538Y-42196299D01*
X179841701Y-42183527D01*
X179789854Y-42135025D01*
X179777373Y-42106145D01*
X179769894Y-42080403D01*
X179759985Y-42063647D01*
X179742526Y-41994830D01*
X179759984Y-41935372D01*
X179765395Y-41926222D01*
X179771643Y-41911784D01*
X179806619Y-41791395D01*
X179806579Y-41777295D01*
X179799309Y-41774000D01*
X179521379Y-41774000D01*
X179457240Y-41756454D01*
X179443968Y-41748605D01*
X180693381Y-41748605D01*
X180693421Y-41762705D01*
X180700691Y-41766000D01*
X181227885Y-41766000D01*
X181243124Y-41761525D01*
X181244329Y-41760135D01*
X181246000Y-41752452D01*
X181246000Y-41747885D01*
X181754000Y-41747885D01*
X181758475Y-41763124D01*
X181759865Y-41764329D01*
X181767548Y-41766000D01*
X182293558Y-41766000D01*
X182307089Y-41762027D01*
X182308224Y-41754129D01*
X182271643Y-41628216D01*
X182265396Y-41613780D01*
X182190124Y-41486501D01*
X182180484Y-41474074D01*
X182075926Y-41369516D01*
X182063499Y-41359876D01*
X181936220Y-41284604D01*
X181921784Y-41278357D01*
X181778359Y-41236688D01*
X181770391Y-41235232D01*
X181756969Y-41238052D01*
X181754000Y-41249513D01*
X181754000Y-41747885D01*
X181246000Y-41747885D01*
X181246000Y-41251576D01*
X181241656Y-41236781D01*
X181231225Y-41234937D01*
X181221641Y-41236688D01*
X181078216Y-41278357D01*
X181063780Y-41284604D01*
X180936501Y-41359876D01*
X180924074Y-41369516D01*
X180819516Y-41474074D01*
X180809876Y-41486501D01*
X180734604Y-41613780D01*
X180728357Y-41628216D01*
X180693381Y-41748605D01*
X179443968Y-41748605D01*
X179436420Y-41744141D01*
X179436419Y-41744141D01*
X179429597Y-41740106D01*
X179421986Y-41737895D01*
X179421984Y-41737894D01*
X179371005Y-41723084D01*
X179272254Y-41694394D01*
X179265849Y-41693890D01*
X179265844Y-41693889D01*
X179237940Y-41691693D01*
X179237932Y-41691693D01*
X179235484Y-41691500D01*
X178872000Y-41691500D01*
X178803879Y-41671498D01*
X178757386Y-41617842D01*
X178746000Y-41565500D01*
X178746000Y-41247885D01*
X179254000Y-41247885D01*
X179258475Y-41263124D01*
X179259865Y-41264329D01*
X179267548Y-41266000D01*
X179793558Y-41266000D01*
X179807089Y-41262027D01*
X179808224Y-41254129D01*
X179771643Y-41128216D01*
X179765396Y-41113780D01*
X179690124Y-40986501D01*
X179680484Y-40974074D01*
X179575926Y-40869516D01*
X179563499Y-40859876D01*
X179436220Y-40784604D01*
X179421784Y-40778357D01*
X179278359Y-40736688D01*
X179270391Y-40735232D01*
X179256969Y-40738052D01*
X179254000Y-40749513D01*
X179254000Y-41247885D01*
X178746000Y-41247885D01*
X178746000Y-40751576D01*
X178741656Y-40736781D01*
X178731225Y-40734937D01*
X178721641Y-40736688D01*
X178578216Y-40778357D01*
X178563780Y-40784604D01*
X178436501Y-40859876D01*
X178424074Y-40869516D01*
X178413685Y-40879905D01*
X178351373Y-40913931D01*
X178280558Y-40908866D01*
X178223722Y-40866319D01*
X178198911Y-40799799D01*
X178198590Y-40790810D01*
X178198590Y-40358176D01*
X178218592Y-40290055D01*
X178235495Y-40269081D01*
X180868256Y-37636320D01*
X180880647Y-37625453D01*
X180899459Y-37611018D01*
X180906009Y-37605992D01*
X180930496Y-37574080D01*
X180930499Y-37574077D01*
X181003545Y-37478881D01*
X181003546Y-37478880D01*
X181008940Y-37465859D01*
X181061700Y-37338484D01*
X181064860Y-37330855D01*
X181080522Y-37211890D01*
X181080522Y-37211883D01*
X181085772Y-37172005D01*
X181081600Y-37140312D01*
X181080522Y-37123869D01*
X181080522Y-34617044D01*
X181100524Y-34548923D01*
X181117427Y-34527949D01*
X181369301Y-34276075D01*
X181431613Y-34242049D01*
X181458396Y-34239170D01*
X181574144Y-34239170D01*
X181610622Y-34236300D01*
X181707426Y-34208176D01*
X181759139Y-34193152D01*
X181759141Y-34193151D01*
X181766752Y-34190940D01*
X181845987Y-34144081D01*
X181899876Y-34112211D01*
X181906697Y-34108177D01*
X182021662Y-33993212D01*
X182094669Y-33869763D01*
X182100390Y-33860090D01*
X182100390Y-33860089D01*
X182104425Y-33853267D01*
X182109294Y-33836510D01*
X182147990Y-33703315D01*
X182149785Y-33697137D01*
X182152090Y-33667860D01*
X182152463Y-33663115D01*
X182152463Y-33663109D01*
X182152656Y-33660660D01*
X182152655Y-33260683D01*
X182149785Y-33224205D01*
X182104425Y-33068075D01*
X182100389Y-33061250D01*
X182100387Y-33061246D01*
X182072925Y-33014810D01*
X182055465Y-32945994D01*
X182072925Y-32886532D01*
X182100387Y-32840096D01*
X182100389Y-32840092D01*
X182104425Y-32833267D01*
X182110078Y-32813811D01*
X182147990Y-32683315D01*
X182149785Y-32677137D01*
X182152422Y-32643632D01*
X182177708Y-32577291D01*
X182188939Y-32564423D01*
X182424038Y-32329324D01*
X182430304Y-32323470D01*
X182467549Y-32290979D01*
X182473274Y-32285985D01*
X182509494Y-32234449D01*
X182513427Y-32229153D01*
X182547606Y-32185564D01*
X182547608Y-32185561D01*
X182552292Y-32179587D01*
X182555418Y-32172663D01*
X182557256Y-32169628D01*
X182564500Y-32156929D01*
X182566188Y-32153781D01*
X182570556Y-32147566D01*
X182593438Y-32088877D01*
X182595978Y-32082832D01*
X182621913Y-32025392D01*
X182623298Y-32017919D01*
X182624369Y-32014501D01*
X182628354Y-32000512D01*
X182629251Y-31997020D01*
X182632012Y-31989938D01*
X182633004Y-31982404D01*
X182640233Y-31927497D01*
X182641265Y-31920984D01*
X182651361Y-31866509D01*
X182651361Y-31866507D01*
X182652745Y-31859040D01*
X182649209Y-31797714D01*
X182649000Y-31790462D01*
X182649000Y-31049770D01*
X182666547Y-30985631D01*
X182705107Y-30920429D01*
X182705107Y-30920428D01*
X182709145Y-30913601D01*
X182755562Y-30753831D01*
X182757829Y-30725035D01*
X182758307Y-30718958D01*
X182758307Y-30718950D01*
X182758500Y-30716502D01*
X182758500Y-29558498D01*
X182757965Y-29551697D01*
X182756067Y-29527579D01*
X182756066Y-29527574D01*
X182755562Y-29521169D01*
X182709145Y-29361399D01*
X182682981Y-29317158D01*
X182628491Y-29225020D01*
X182628489Y-29225017D01*
X182624453Y-29218193D01*
X182506807Y-29100547D01*
X182502998Y-29098294D01*
X182462345Y-29042004D01*
X182458494Y-28971112D01*
X182493582Y-28909391D01*
X182501276Y-28902724D01*
X182506807Y-28899453D01*
X182624453Y-28781807D01*
X182627964Y-28775871D01*
X183183434Y-28775871D01*
X183217981Y-28894783D01*
X183224230Y-28909222D01*
X183298854Y-29035405D01*
X183308501Y-29047841D01*
X183412159Y-29151499D01*
X183424595Y-29161146D01*
X183550778Y-29235770D01*
X183565217Y-29242019D01*
X183707436Y-29283338D01*
X183720023Y-29285637D01*
X183727943Y-29286260D01*
X183743030Y-29283090D01*
X183746000Y-29271626D01*
X183746000Y-28782115D01*
X183741525Y-28766876D01*
X183740135Y-28765671D01*
X183732452Y-28764000D01*
X183198100Y-28764000D01*
X183184569Y-28767973D01*
X183183434Y-28775871D01*
X182627964Y-28775871D01*
X182628489Y-28774983D01*
X182628491Y-28774980D01*
X182705108Y-28645427D01*
X182709145Y-28638601D01*
X182711979Y-28628848D01*
X182730482Y-28565158D01*
X182755562Y-28478831D01*
X182756937Y-28461369D01*
X182758307Y-28443958D01*
X182758307Y-28443950D01*
X182758500Y-28441502D01*
X182758500Y-27448594D01*
X182778502Y-27380473D01*
X182832158Y-27333980D01*
X182902432Y-27323876D01*
X182967012Y-27353370D01*
G37*
%TD.AperFunction*%
%TA.AperFunction,Conductor*%
G36*
X191333621Y-29263502D02*
G01*
X191380114Y-29317158D01*
X191391500Y-29369500D01*
X191391500Y-33226761D01*
X191371498Y-33294882D01*
X191317842Y-33341375D01*
X191247568Y-33351479D01*
X191182988Y-33321985D01*
X191176405Y-33315856D01*
X189682163Y-31821614D01*
X189648137Y-31759302D01*
X189651388Y-31713851D01*
X189650076Y-31713759D01*
X189651000Y-31700577D01*
X189651000Y-31686878D01*
X190159000Y-31686878D01*
X190162973Y-31700409D01*
X190170871Y-31701544D01*
X190310790Y-31660893D01*
X190325221Y-31654648D01*
X190454678Y-31578089D01*
X190467104Y-31568449D01*
X190573449Y-31462104D01*
X190583089Y-31449678D01*
X190659648Y-31320221D01*
X190665893Y-31305790D01*
X190708269Y-31159935D01*
X190710570Y-31147333D01*
X190712807Y-31118916D01*
X190713000Y-31113986D01*
X190713000Y-30672115D01*
X190708525Y-30656876D01*
X190707135Y-30655671D01*
X190699452Y-30654000D01*
X190177115Y-30654000D01*
X190161876Y-30658475D01*
X190160671Y-30659865D01*
X190159000Y-30667548D01*
X190159000Y-31686878D01*
X189651000Y-31686878D01*
X189651000Y-30272000D01*
X189671002Y-30203879D01*
X189724658Y-30157386D01*
X189777000Y-30146000D01*
X190694884Y-30146000D01*
X190710123Y-30141525D01*
X190711328Y-30140135D01*
X190712999Y-30132452D01*
X190712999Y-29686017D01*
X190712805Y-29681080D01*
X190710570Y-29652664D01*
X190708270Y-29640069D01*
X190665893Y-29494210D01*
X190659648Y-29479779D01*
X190632361Y-29433639D01*
X190614902Y-29364823D01*
X190637419Y-29297492D01*
X190692763Y-29253022D01*
X190740815Y-29243500D01*
X191265500Y-29243500D01*
X191333621Y-29263502D01*
G37*
%TD.AperFunction*%
%TA.AperFunction,Conductor*%
G36*
X181083621Y-29903502D02*
G01*
X181130114Y-29957158D01*
X181141500Y-30009500D01*
X181141500Y-30716502D01*
X181141693Y-30718950D01*
X181141693Y-30718958D01*
X181142172Y-30725035D01*
X181144438Y-30753831D01*
X181190855Y-30913601D01*
X181194893Y-30920428D01*
X181194893Y-30920429D01*
X181233453Y-30985631D01*
X181251000Y-31049770D01*
X181251000Y-31473102D01*
X181230998Y-31541223D01*
X181214095Y-31562197D01*
X181150403Y-31625889D01*
X181088091Y-31659915D01*
X181071192Y-31662406D01*
X181044108Y-31664537D01*
X181037690Y-31665042D01*
X180910153Y-31702095D01*
X180839157Y-31701892D01*
X180779540Y-31663338D01*
X180750232Y-31598673D01*
X180749000Y-31581098D01*
X180749000Y-31049770D01*
X180766547Y-30985631D01*
X180805107Y-30920429D01*
X180805107Y-30920428D01*
X180809145Y-30913601D01*
X180855562Y-30753831D01*
X180857829Y-30725035D01*
X180858307Y-30718958D01*
X180858307Y-30718950D01*
X180858500Y-30716502D01*
X180858500Y-30009500D01*
X180878502Y-29941379D01*
X180932158Y-29894886D01*
X180984500Y-29883500D01*
X181015500Y-29883500D01*
X181083621Y-29903502D01*
G37*
%TD.AperFunction*%
%TD*%
%TA.AperFunction,Conductor*%
%TO.N,+3V3*%
G36*
X177700891Y-48360820D02*
G01*
X177716405Y-48373170D01*
X177758673Y-48412636D01*
X177766725Y-48416681D01*
X177766731Y-48416685D01*
X177822059Y-48444478D01*
X177873953Y-48492929D01*
X177891500Y-48557070D01*
X177891500Y-51521896D01*
X177894411Y-51558885D01*
X177896204Y-51565056D01*
X177896205Y-51565062D01*
X177910867Y-51615527D01*
X177940406Y-51717199D01*
X177944441Y-51724021D01*
X177944441Y-51724022D01*
X178020292Y-51852279D01*
X178024326Y-51859100D01*
X178140900Y-51975674D01*
X178282801Y-52059594D01*
X178339103Y-52075951D01*
X178392386Y-52091432D01*
X178452221Y-52129646D01*
X178481898Y-52194142D01*
X178482684Y-52221802D01*
X178482440Y-52223309D01*
X178482361Y-52227802D01*
X178482361Y-52227806D01*
X178481722Y-52264305D01*
X178480108Y-52356551D01*
X178480271Y-52359098D01*
X178480271Y-52359103D01*
X178480583Y-52363973D01*
X178464971Y-52433232D01*
X178414393Y-52483055D01*
X178339705Y-52497105D01*
X178293392Y-52491500D01*
X178106608Y-52491500D01*
X178015527Y-52502522D01*
X178015181Y-52499661D01*
X177984819Y-52499661D01*
X177984473Y-52502522D01*
X177893392Y-52491500D01*
X177706608Y-52491500D01*
X177660291Y-52497105D01*
X177640755Y-52499469D01*
X177570725Y-52487796D01*
X177518123Y-52440114D01*
X177499650Y-52371563D01*
X177500531Y-52359245D01*
X177508044Y-52297158D01*
X177508500Y-52293392D01*
X177508500Y-52106608D01*
X177497478Y-52015527D01*
X177500339Y-52015181D01*
X177500339Y-51984819D01*
X177497478Y-51984473D01*
X177508044Y-51897157D01*
X177508500Y-51893392D01*
X177508500Y-51706608D01*
X177497478Y-51615527D01*
X177500339Y-51615181D01*
X177500339Y-51584819D01*
X177497478Y-51584473D01*
X177504753Y-51524353D01*
X177508500Y-51493392D01*
X177508500Y-51306608D01*
X177497478Y-51215527D01*
X177499103Y-51215330D01*
X177497072Y-51183653D01*
X177507544Y-51097115D01*
X177508000Y-51089561D01*
X177507999Y-50910447D01*
X177507544Y-50902891D01*
X177497071Y-50816345D01*
X177499107Y-50784670D01*
X177497478Y-50784473D01*
X177508500Y-50693392D01*
X177508500Y-50506608D01*
X177497478Y-50415527D01*
X177500339Y-50415181D01*
X177500339Y-50384819D01*
X177497478Y-50384473D01*
X177500579Y-50358850D01*
X177508500Y-50293392D01*
X177508500Y-50106608D01*
X177497478Y-50015527D01*
X177500339Y-50015181D01*
X177500339Y-49984819D01*
X177497478Y-49984473D01*
X177508044Y-49897157D01*
X177508500Y-49893392D01*
X177508500Y-49706608D01*
X177497478Y-49615527D01*
X177500339Y-49615181D01*
X177500339Y-49584819D01*
X177497478Y-49584473D01*
X177508500Y-49493392D01*
X177508500Y-49306608D01*
X177497478Y-49215527D01*
X177500339Y-49215181D01*
X177500339Y-49184819D01*
X177497478Y-49184473D01*
X177508500Y-49093392D01*
X177508500Y-48906608D01*
X177497478Y-48815527D01*
X177500339Y-48815181D01*
X177500339Y-48784819D01*
X177497478Y-48784473D01*
X177503557Y-48734241D01*
X177508500Y-48693392D01*
X177508500Y-48506608D01*
X177505329Y-48480404D01*
X177517002Y-48410374D01*
X177564684Y-48357772D01*
X177633235Y-48339299D01*
X177700891Y-48360820D01*
G37*
%TD.AperFunction*%
%TA.AperFunction,Conductor*%
G36*
X182433337Y-48580202D02*
G01*
X182479973Y-48633733D01*
X182491500Y-48686382D01*
X182491500Y-48693392D01*
X182496443Y-48734241D01*
X182502522Y-48784473D01*
X182499661Y-48784819D01*
X182499661Y-48815181D01*
X182502522Y-48815527D01*
X182491500Y-48906608D01*
X182491500Y-49093392D01*
X182502522Y-49184473D01*
X182499661Y-49184819D01*
X182499661Y-49215181D01*
X182502522Y-49215527D01*
X182491500Y-49306608D01*
X182491500Y-49493392D01*
X182502522Y-49584473D01*
X182499661Y-49584819D01*
X182499661Y-49615181D01*
X182502522Y-49615527D01*
X182491500Y-49706608D01*
X182491500Y-49893392D01*
X182491956Y-49897157D01*
X182502522Y-49984473D01*
X182499661Y-49984819D01*
X182499661Y-50015181D01*
X182502522Y-50015527D01*
X182491500Y-50106608D01*
X182491500Y-50293392D01*
X182499421Y-50358850D01*
X182502522Y-50384473D01*
X182499661Y-50384819D01*
X182499661Y-50415181D01*
X182502522Y-50415527D01*
X182491500Y-50506608D01*
X182491500Y-50693392D01*
X182502522Y-50784473D01*
X182500897Y-50784670D01*
X182502928Y-50816347D01*
X182492456Y-50902885D01*
X182492000Y-50910439D01*
X182492001Y-51089553D01*
X182492456Y-51097109D01*
X182502929Y-51183655D01*
X182500893Y-51215330D01*
X182502522Y-51215527D01*
X182491500Y-51306608D01*
X182491500Y-51309464D01*
X182467504Y-51376065D01*
X182411148Y-51419245D01*
X182340393Y-51425103D01*
X182305414Y-51412279D01*
X182253394Y-51383874D01*
X182244592Y-51381959D01*
X182244589Y-51381958D01*
X182207716Y-51373937D01*
X182145404Y-51339912D01*
X182111379Y-51277599D01*
X182108500Y-51250817D01*
X182108500Y-48734241D01*
X182128502Y-48666120D01*
X182182158Y-48619627D01*
X182198680Y-48613440D01*
X182247226Y-48599045D01*
X182286548Y-48587385D01*
X182294116Y-48582493D01*
X182294118Y-48582492D01*
X182297096Y-48580567D01*
X182300497Y-48579558D01*
X182302305Y-48578727D01*
X182302425Y-48578987D01*
X182365163Y-48560382D01*
X182433337Y-48580202D01*
G37*
%TD.AperFunction*%
%TD*%
M02*
